<?xml version="1.0" encoding="UTF-8"?>
<svg width="14px" height="14px" viewBox="0 0 14 14" version="1.1" xmlns="http://www.w3.org/2000/svg" xmlns:xlink="http://www.w3.org/1999/xlink">
    <!-- Generator: Sketch 46.1 (44463) - http://www.bohemiancoding.com/sketch -->
    <title>14x14_building</title>
    <desc>Created with Sketch.</desc>
    <defs></defs>
    <g id="Page-1" stroke="none" stroke-width="1" fill="none" fill-rule="evenodd">
        <g id="14x14_building" fill="#000000">
            <path d="M8,2 L8,1 L9,1 L9,2 L11.5,2 L12,2 L12,13 L11,13 L11,3.1 L6,3.1 L6,9 L7.5,9 L8,9 L8,12.6058371 L7,12.6058371 L7,10 L3,10 L3,12.6058371 L2,12.6058371 L2,9 L2.5,9 L5,9 L5,2 L5.5,2 L8,2 Z M7,5 L10,5 L10,6 L7,6 L7,5 Z M7,7 L10,7 L10,8 L7,8 L7,7 Z" id="Combined-Shape"></path>
        </g>
    </g>
</svg>