<?xml version="1.0" encoding="UTF-8"?>
<svg width="14px" height="14px" viewBox="0 0 14 14" version="1.1" xmlns="http://www.w3.org/2000/svg" xmlns:xlink="http://www.w3.org/1999/xlink">
    <!-- Generator: Sketch 46.2 (44496) - http://www.bohemiancoding.com/sketch -->
    <title>14x14_car_outline</title>
    <desc>Created with Sketch.</desc>
    <defs></defs>
    <g id="Page-1" stroke="none" stroke-width="1" fill="none" fill-rule="evenodd">
        <g id="14x14_car_outline" fill="#000000">
            <path d="M11.836567,6.18283506 C12.52334,6.49952876 13,7.19409943 13,8 L13,11 L1,11 L1,8 C1,7.19409943 1.47666001,6.49952876 2.16343299,6.18283506 L2.67844645,3.60776773 C2.86541613,2.67291934 3.68624577,2 4.63960781,2 L9.36039219,2 C10.3137542,2 11.1345839,2.67291934 11.3215535,3.60776773 L11.836567,6.18283506 Z M10.3409729,3.80388386 C10.247488,3.33645967 9.83707321,3 9.36039219,3 L4.63960781,3 C4.16292679,3 3.75251197,3.33645967 3.65902713,3.80388386 L3.2198039,6 L10.7801961,6 L10.3409729,3.80388386 Z M2,11 L4,11 L4,12 C4,12.5522847 3.55228475,13 3,13 C2.44771525,13 2,12.5522847 2,12 L2,11 Z M10,11 L12,11 L12,12 C12,12.5522847 11.5522847,13 11,13 C10.4477153,13 10,12.5522847 10,12 L10,11 Z M11,7 C10.448,7 10,7.448 10,8 C10,8.552 10.448,9 11,9 C11.552,9 12,8.552 12,8 C12,7.448 11.552,7 11,7 Z M3,9 C3.552,9 4,8.552 4,8 C4,7.448 3.552,7 3,7 C2.448,7 2,7.448 2,8 C2,8.552 2.448,9 3,9 Z" id="Icon"></path>
        </g>
    </g>
</svg>