<svg xmlns="http://www.w3.org/2000/svg" width="14" height="14" viewBox="0 0 14 14">
  <path fill-rule="evenodd" d="M13,7 C13,7.55228475 12.4627417,8 11.8,8 L2.2,8 C1.5372583,8 1,7.55228475 1,7 C1,6.44771525 1.5372583,6 2.2,6 L11.8,6 C12.4627417,6 13,6.44771525 13,7 Z M10,12 C10,12.5522847 9.59705627,13 9.1,13 L1.9,13 C1.40294373,13 1,12.5522847 1,12 C1,11.4477153 1.40294373,11 1.9,11 L9.1,11 C9.59705627,11 10,11.4477153 10,12 Z M13,2 C13,2.55228475 12.4627417,3 11.8,3 L2.2,3 C1.5372583,3 1,2.55228475 1,2 C1,1.44771525 1.5372583,1 2.2,1 L11.8,1 C12.4627417,1 13,1.44771525 13,2 Z"/>
</svg>
