<svg xmlns="http://www.w3.org/2000/svg" width="14" height="14" viewBox="0 0 14 14">
  <path fill-rule="evenodd" d="M11.9170416,6 L14,6 L10.5,9.5 L7,6 L9.87398251,6 C9.42993972,4.27477279 7.86383943,3 6,3 C3.790861,3 2,4.790861 2,7 C2,9.209139 3.790861,11 6,11 C6.34529957,11 6.68038008,10.956247 7,10.8739825 L7,12.9170416 C6.67479153,12.9716012 6.34071221,13 6,13 C2.6862915,13 4.05812251e-16,10.3137085 0,7 C-4.05812251e-16,3.6862915 2.6862915,1 6,1 C8.97299629,1 11.4409635,3.16228666 11.9170416,6 Z"/>
</svg>
