<svg width="14" height="14" fill="none" xmlns="http://www.w3.org/2000/svg"><path fill-rule="evenodd" clip-rule="evenodd" d="m5.871 3.336.707-.707a3 3 0 0 1 4.243 0l.707.707a3 3 0 0 1 0 4.242l-.707.708a2.988 2.988 0 0 1-1.908.87 2.99 2.99 0 0 1-.877 2.022l-.708.707a3 3 0 0 1-4.242 0l-.707-.707a3 3 0 0 1 0-4.242l.707-.707L4.5 7.643l-.707.707a1 1 0 0 0 0 1.414l.707.707a1 1 0 0 0 1.414 0l.707-.707a1 1 0 0 0 0-1.414l-.707-.707a1 1 0 0 0-1.414 0L3.086 6.229a2.988 2.988 0 0 1 1.908-.871 2.99 2.99 0 0 1 .877-2.022Zm3.536.707a1 1 0 0 0-1.414 0l-.707.707a1 1 0 0 0 0 1.414l.707.707a1 1 0 0 0 1.414 0l.707-.707a1 1 0 0 0 0-1.414l-.707-.707Z" fill="#000"/></svg>