<svg width="14" height="14" fill="none" xmlns="http://www.w3.org/2000/svg"><path d="M7.728 1.878H6.3v.994C4.62 3.04 3.402 4.006 3.402 5.56c0 1.75 1.582 2.198 2.828 2.59 1.036.322 1.75.476 1.75.98 0 .378-.336.63-.924.644-.77.042-1.666-.322-2.338-1.162L3.164 9.984c.742.91 1.82 1.456 3.122 1.596v1.148h1.428v-1.162c1.61-.196 2.856-1.064 2.856-2.688 0-1.988-1.708-2.366-2.982-2.716-1.064-.266-1.75-.448-1.75-.91 0-.406.392-.616.994-.616.686-.056 1.54.266 2.226 1.064L10.5 4.314c-.714-.812-1.708-1.246-2.772-1.4V1.878Z" fill="#000"/></svg>