<svg width="14" height="14" viewBox="0 0 14 14" fill="none" xmlns="http://www.w3.org/2000/svg"><path fill-rule="evenodd" clip-rule="evenodd" d="M8.768 1.134a1.033 1.033 0 0 0-1.603.334L6.035 3.91 3.662 5.27a.968.968 0 0 0-.165 1.584l1.174 1.02a.989.989 0 0 0-.242.193l-2.033 2.206a.966.966 0 0 0 .077 1.392 1.036 1.036 0 0 0 1.432-.08L5.937 9.38a.987.987 0 0 0 .17-.255l1.163 1.01a1.032 1.032 0 0 0 1.613-.355L9.95 7.312l2.405-1.302a.989.989 0 0 0 .517-.753.968.968 0 0 0-.33-.843l-3.774-3.28Z" fill="#000"/></svg>