<svg width="14" height="14" viewBox="0 0 14 14" fill="none" xmlns="http://www.w3.org/2000/svg"><path fill-rule="evenodd" clip-rule="evenodd" d="M11.3253 1.9266C9.6413 1.34732 7.72082 1.31051 6.16647 2.11251C5.18839 2.61717 4.42161 3.41996 3.96617 4.50002H3C2.44772 4.50002 2 4.94773 2 5.50002C2 6.0523 2.44772 6.50002 3 6.50002H3.51574C3.5053 6.66295 3.5 6.82963 3.5 7C3.5 7.17038 3.5053 7.33707 3.51574 7.50002H3C2.44772 7.50002 2 7.94773 2 8.50002C2 9.0523 2.44772 9.50002 3 9.50002H3.96618C4.42163 10.5801 5.1884 11.3828 6.16646 11.8875C7.72081 12.6895 9.64129 12.6527 11.3253 12.0734C11.8475 11.8938 12.1253 11.3248 11.9456 10.8025C11.766 10.2803 11.197 10.0025 10.6747 10.1822C9.35871 10.6349 8.02919 10.5981 7.08354 10.1101C6.79556 9.96155 6.52565 9.76237 6.29309 9.50002H8C8.55228 9.50002 9 9.0523 9 8.50002C9 7.94773 8.55228 7.50002 8 7.50002H5.52091C5.50715 7.3414 5.5 7.17484 5.5 7C5.5 6.82517 5.50715 6.65863 5.52091 6.50002H8C8.55228 6.50002 9 6.0523 9 5.50002C9 4.94773 8.55228 4.50002 8 4.50002H6.29306C6.52562 4.23764 6.79554 4.03846 7.08353 3.88986C8.02918 3.40193 9.3587 3.36514 10.6747 3.81783C11.197 3.99748 11.766 3.71975 11.9456 3.1975C12.1253 2.67525 11.8475 2.10625 11.3253 1.9266Z" fill="black"/></svg>