<svg xmlns="http://www.w3.org/2000/svg" width="14" height="14" viewBox="0 0 14 14">
  <path fill-rule="evenodd" d="M2.5,5.5 C3.32842712,5.5 4,6.17157288 4,7 C4,7.82842712 3.32842712,8.5 2.5,8.5 C1.67157288,8.5 1,7.82842712 1,7 C1,6.17157288 1.67157288,5.5 2.5,5.5 Z M7,5.5 C7.82842712,5.5 8.5,6.17157288 8.5,7 C8.5,7.82842712 7.82842712,8.5 7,8.5 C6.17157288,8.5 5.5,7.82842712 5.5,7 C5.5,6.17157288 6.17157288,5.5 7,5.5 Z M11.5,5.5 C12.3284271,5.5 13,6.17157288 13,7 C13,7.82842712 12.3284271,8.5 11.5,8.5 C10.6715729,8.5 10,7.82842712 10,7 C10,6.17157288 10.6715729,5.5 11.5,5.5 Z"/>
</svg>
