<svg xmlns="http://www.w3.org/2000/svg" width="14" height="14" viewBox="0 0 14 14">
  <path d="M10.1733291,8.74999336 L12.5675439,11.0561718 C12.9579017,11.4466961 12.9579017,12.0798611 12.5675439,12.4703854 C12.1771862,12.8609097 11.5442912,12.8609097 11.1539335,12.4703854 L8.76222321,10.1666194 C7.97056014,10.6931877 7.0202357,11 5.99827612,11 C3.23780444,11 1,8.76142375 1,6 C1,3.23857625 3.23780444,1 5.99827612,1 C8.75874779,1 10.9965522,3.23857625 10.9965522,6 C10.9965522,7.01590559 10.6936777,7.96104665 10.1733291,8.74999336 L10.1733291,8.74999336 Z M5.99827612,9 C7.65455912,9 8.99724179,7.65685425 8.99724179,6 C8.99724179,4.34314575 7.65455912,3 5.99827612,3 C4.34199311,3 2.99931045,4.34314575 2.99931045,6 C2.99931045,7.65685425 4.34199311,9 5.99827612,9 Z"/>
</svg>
