<svg width="14" height="14" fill="none" xmlns="http://www.w3.org/2000/svg"><g clip-path="url(#14x14_visible_off_outline__a)" fill="#000"><path fill-rule="evenodd" clip-rule="evenodd" d="M1.293 3.121a1 1 0 0 1 1.414-1.414l9.586 9.586a1 1 0 0 1-1.414 1.414l-1.203-1.203A7.457 7.457 0 0 1 7 12C4.22 12 1.455 10.448.088 7.41a1 1 0 0 1 0-.82 7.977 7.977 0 0 1 1.965-2.71l-.76-.76ZM3.47 5.3l1.536 1.536a2 2 0 0 0 2.158 2.158l.902.902A5.542 5.542 0 0 1 7 10c-1.895 0-3.804-.982-4.886-3A5.852 5.852 0 0 1 3.47 5.299Z"/><path d="M5.216 2.216A7.466 7.466 0 0 1 7 2c2.78 0 5.545 1.552 6.912 4.59a1 1 0 0 1 0 .82 8.137 8.137 0 0 1-1.377 2.125l-1.417-1.417c.286-.329.545-.701.768-1.118C10.805 4.982 8.896 4 7 4L5.216 2.216Z"/></g><defs><clipPath id="14x14_visible_off_outline__a"><path fill="#fff" d="M0 0h14v14H0z"/></clipPath></defs></svg>