<svg xmlns="http://www.w3.org/2000/svg" width="14" height="14" viewBox="0 0 14 14">
  <path fill-rule="evenodd" d="M5.53553391,3.29289322 C5.9260582,2.90236893 6.55922318,2.90236893 6.94974747,3.29289322 C7.34027176,3.68341751 7.34027176,4.31658249 6.94974747,4.70710678 L4.82842712,6.82842712 L6.94974747,8.94974747 C7.34027176,9.34027176 7.34027176,9.97343674 6.94974747,10.363961 C6.55922318,10.7544853 5.9260582,10.7544853 5.53553391,10.363961 L2,6.82842712 L5.53553391,3.29289322 Z M10.5355339,3.29289322 C10.9260582,2.90236893 11.5592232,2.90236893 11.9497475,3.29289322 C12.3402718,3.68341751 12.3402718,4.31658249 11.9497475,4.70710678 L9.82842712,6.82842712 L11.9497475,8.94974747 C12.3402718,9.34027176 12.3402718,9.97343674 11.9497475,10.363961 C11.5592232,10.7544853 10.9260582,10.7544853 10.5355339,10.363961 L7,6.82842712 L10.5355339,3.29289322 Z"/>
</svg>
