<svg xmlns="http://www.w3.org/2000/svg" width="14" height="14" viewBox="0 0 14 14">
  <path d="M9,1.34136883 C11.3306842,2.16508042 13,4.38786129 13,7 C13,10.3144 10.3144,13 7,13 C3.6868,13 1,10.3144 1,7 C1,4.38803821 2.66983544,2.1653815 5,1.34153622 L5,1 C5,0.44771525 5.44771525,1.01453063e-16 6,0 L8,0 C8.55228475,-1.01453063e-16 9,0.44771525 9,1 L9,1.34136883 Z M7,4 C6.44771525,4 6,4.44771525 6,5 L6,7 C6,7.55228475 6.44771525,8 7,8 C7.55228475,8 8,7.55228475 8,7 L8,5 C8,4.44771525 7.55228475,4 7,4 Z"/>
</svg>
