<svg xmlns="http://www.w3.org/2000/svg" width="14" height="14" viewBox="0 0 14 14">
  <path fill-rule="evenodd" d="M8.5,2.5 C8.5,3.32842712 7.82842712,4 7,4 C6.17157288,4 5.5,3.32842712 5.5,2.5 C5.5,1.67157288 6.17157288,1 7,1 C7.82842712,1 8.5,1.67157288 8.5,2.5 Z M8.5,7 C8.5,7.82842712 7.82842712,8.5 7,8.5 C6.17157288,8.5 5.5,7.82842712 5.5,7 C5.5,6.17157288 6.17157288,5.5 7,5.5 C7.82842712,5.5 8.5,6.17157288 8.5,7 Z M8.5,11.5 C8.5,12.3284271 7.82842712,13 7,13 C6.17157288,13 5.5,12.3284271 5.5,11.5 C5.5,10.6715729 6.17157288,10 7,10 C7.82842712,10 8.5,10.6715729 8.5,11.5 Z"/>
</svg>
