<svg width="14" height="14" viewBox="0 0 14 14" fill="none" xmlns="http://www.w3.org/2000/svg">
<path fill-rule="evenodd" clip-rule="evenodd" d="M1 7C1 10.3137 3.68629 13 7 13C10.3137 13 13 10.3137 13 7C13 3.68629 10.3137 1 7 1C3.68629 1 1 3.68629 1 7ZM10.9424 7.68C10.6196 9.56524 8.97734 11 7 11C6.99473 11 6.98945 11 6.98418 11C7.22839 10.8739 7.40965 10.6455 7.47378 10.3718L7.52662 10.1449C7.60585 9.8025 7.82308 9.5063 8.12498 9.32781L8.28693 9.23234C8.58684 9.05591 8.76726 8.73003 8.76164 8.38294L8.75892 8.21545C8.75477 7.95917 8.64787 7.71465 8.46331 7.53598L8.38333 7.45855C8.19878 7.27988 7.95092 7.18095 7.69464 7.18511L6.8249 7.1992C6.60091 7.20283 6.37799 7.14791 6.18045 7.04009L5.47782 6.65384C5.39023 6.60479 5.32233 6.52516 5.2885 6.43084C5.22079 6.23816 5.30416 6.02689 5.48632 5.9331L5.6044 5.87064C5.7365 5.80188 5.89169 5.78726 6.03373 5.8334L6.50441 5.9812C6.67077 6.033 6.85137 5.9675 6.94389 5.82269C7.03645 5.6799 7.02331 5.49239 6.91222 5.36299L6.63245 5.03851C6.42673 4.79963 6.42303 4.44645 6.625 4.205L6.93583 3.83058C7.11004 3.61986 7.13349 3.32276 6.99446 3.08885L6.94466 3.00488C6.91648 3.00373 6.88864 3.00289 6.86086 3.00237C6.90704 3.0008 6.95343 3 7 3C8.48648 3 9.78358 3.81084 10.4731 5.01435L9.9229 5.30815C9.60814 5.44041 9.45041 5.7962 9.5626 6.11734L9.92021 7.13492C9.99424 7.34364 10.1683 7.50028 10.3831 7.54928L10.9424 7.68ZM3.04191 6.41887C3.0143 6.60859 3 6.80263 3 7C3 8.98953 4.4525 10.6398 6.35491 10.9483C6.27056 10.865 6.21634 10.7496 6.21421 10.6183L6.20146 9.83131C6.19786 9.60933 6.06948 9.40956 5.87012 9.31389C5.67075 9.21822 5.54237 9.01845 5.53877 8.79647L5.52573 7.99131C5.51988 7.6301 5.27662 7.31714 4.92793 7.22389L3.75415 6.90986C3.46573 6.83248 3.21515 6.65836 3.04191 6.41887Z" fill="#1A1C20"/>
</svg>
