<svg xmlns="http://www.w3.org/2000/svg" width="14" height="14" viewBox="0 0 14 14">
  <path d="M7,13 C3.25,10 2,7.8509668 2,5.8 C2,3.1490332 4.23857625,1 7,1 C9.76142375,1 12,3.1490332 12,5.8 C12,7.8509668 10.75,10 7,13 Z M7,10.3883562 C9.17967924,8.4501677 10,7.04084562 10,5.80000019 C10,4.27228094 8.67470741,3 7,3 C5.32529259,3 4,4.27228094 4,5.80000019 C4,7.04084562 4.82032076,8.4501677 7,10.3883562 Z M7,7 C7.55228475,7 8,6.55228475 8,6 C8,5.44771525 7.55228475,5 7,5 C6.44771525,5 6,5.44771525 6,6 C6,6.55228475 6.44771525,7 7,7 Z"/>
</svg>
