<svg xmlns="http://www.w3.org/2000/svg" width="14" height="14" viewBox="0 0 14 14">
  <path fill-rule="evenodd" d="M2,1 C2.55228475,1 3,1.44771525 3,2 L3,12 C3,12.5522847 2.55228475,13 2,13 C1.44771525,13 1,12.5522847 1,12 L1,2 C1,1.44771525 1.44771525,1 2,1 Z M7,1 C7.55228475,1 8,1.44771525 8,2 L8,12 C8,12.5522847 7.55228475,13 7,13 C6.44771525,13 6,12.5522847 6,12 L6,2 C6,1.44771525 6.44771525,1 7,1 Z M12,1 C12.5522847,1 13,1.44771525 13,2 L13,9 C13,9.55228475 12.5522847,10 12,10 C11.4477153,10 11,9.55228475 11,9 L11,2 C11,1.44771525 11.4477153,1 12,1 Z"/>
</svg>
