<svg width="14" height="14" viewBox="0 0 14 14" fill="none" xmlns="http://www.w3.org/2000/svg"><path d="M7.206 6.826c.121.12.237.226.344.317l.218-.232c.623-.654 1.606-.82 2.483-.383l1.725.994c.524.282.89.782.993 1.369a1.938 1.938 0 0 1-.508 1.672l-1.615 1.71a2.436 2.436 0 0 1-1.344.699 2.889 2.889 0 0 1-.423.028c-1.658 0-3.48-.902-5.285-2.677-1.23-1.21-2.062-2.454-2.49-3.703-.253-.738-.35-1.419-.287-1.958a2.423 2.423 0 0 1 .633-1.35l1.612-1.706a1.929 1.929 0 0 1 1.705-.582c.626.1 1.165.504 1.402 1.015L7.38 3.9c.368.777.228 1.716-.356 2.329l-.176.186c.135.172.253.308.359.412ZM9.308 8.29c-.042-.02-.078-.015-.086-.006L7.942 9.65l-.654-.299a3.223 3.223 0 0 1-.136-.066c-.417-.214-.867-.56-1.349-1.033a6.87 6.87 0 0 1-.663-.778c-.068-.09-.136-.183-.215-.293l-.188-.261-.48-.669.563-.6.75-.798c.012-.012.019-.06.027-.047l-.95-1.752-1.552 1.64a.457.457 0 0 0-.091.2c-.026.216.03.604.192 1.078.32.935.98 1.921 2 2.925C6.657 10.332 8.006 11 9.08 11c.062 0 .106-.003.12-.005.06-.01.16-.062.198-.101l1.56-1.651-1.649-.953Z" fill="#000"/></svg>