<?xml version="1.0" encoding="UTF-8"?>
<svg width="14px" height="14px" viewBox="0 0 14 14" version="1.1" xmlns="http://www.w3.org/2000/svg" xmlns:xlink="http://www.w3.org/1999/xlink">
    <!-- Generator: Sketch 46.2 (44496) - http://www.bohemiancoding.com/sketch -->
    <title>14x14_add_outline</title>
    <desc>Created with Sketch.</desc>
    <defs></defs>
    <g id="Page-1" stroke="none" stroke-width="1" fill="none" fill-rule="evenodd">
        <g id="14x14_add_outline" fill="#000000">
            <path d="M8,6 L8,3 C8,2.44771525 7.55228475,2 7,2 C6.44771525,2 6,2.44771525 6,3 L6,3 L6,6 L3,6 C2.44771525,6 2,6.44771525 2,7 C2,7.55228475 2.44771525,8 3,8 L6,8 L6,11 C6,11.5522847 6.44771525,12 7,12 C7.55228475,12 8,11.5522847 8,11 L8,8 L11,8 C11.5522847,8 12,7.55228475 12,7 C12,6.44771525 11.5522847,6 11,6 L8,6 Z" id="Icon"></path>
        </g>
    </g>
</svg>