<svg xmlns="http://www.w3.org/2000/svg" width="14" height="14" viewBox="0 0 14 14">
  <path d="M5.8936821,6.10062704 L3.35603148,6.4715395 L5.178995,8.2551389 L4.7685725,10.6601844 L6.95606119,9.21889893 L9.25157312,10.627617 L8.81841076,8.25734429 L10.6436073,6.4715601 L8.11038352,6.10136607 L6.97384806,3.52018676 L5.8936821,6.10062704 Z M4.66148547,4.51213492 L5.73770255,1.94112823 C6.18869429,0.863740785 7.71016225,0.849791083 8.18083274,1.9187282 L9.32172333,4.50979844 L11.7369228,4.86274491 C12.8256381,5.02184491 13.260911,6.35907204 12.4744514,7.12854922 L10.7071115,8.85772616 L11.1424299,11.239797 C11.3491654,12.3710576 10.1193699,13.2134258 9.13922307,12.6119258 L6.98941988,11.2926268 L4.92258037,12.6544193 C3.9515048,13.2942384 2.68495031,12.4669381 2.88057338,11.3206013 L3.29967469,8.86469864 L1.52520837,7.12854922 C0.738760906,6.35908389 1.17400662,5.0218778 2.26270076,4.86275022 L4.66148547,4.51213492 Z"/>
</svg>
