<?xml version="1.0" encoding="UTF-8"?>
<svg width="14px" height="14px" viewBox="0 0 14 14" version="1.1" xmlns="http://www.w3.org/2000/svg" xmlns:xlink="http://www.w3.org/1999/xlink">
    <!-- Generator: Sketch 46.2 (44496) - http://www.bohemiancoding.com/sketch -->
    <title>14x14_meeting_outline</title>
    <desc>Created with Sketch.</desc>
    <defs></defs>
    <g id="Page-1" stroke="none" stroke-width="1" fill="none" fill-rule="evenodd">
        <g id="14x14_meeting_outline" fill="#000000">
            <path d="M9,1 C9.552,1 10,1.448 10,2 C11.103,2 12,2.897 12,4 L12,10 C12,11.103 11.103,12 10,12 L4,12 C2.897,12 2,11.103 2,10 L2,4 C2,2.897 2.897,2 4,2 C4,1.448 4.448,1 5,1 C5.552,1 6,1.448 6,2 L8,2 C8,1.448 8.448,1 9,1 Z M10,9.28571429 L10,5 L4,5 L4,9.28571429 C4,9.68 4.336,10 4.75,10 L9.25,10 C9.664,10 10,9.68 10,9.28571429 Z" id="Icon"></path>
        </g>
    </g>
</svg>