<svg xmlns="http://www.w3.org/2000/svg" width="14" height="14" viewBox="0 0 14 14">
  <path d="M7,13 C3.6862915,13 1,10.3137085 1,7 C1,3.6862915 3.6862915,1 7,1 C10.3137085,1 13,3.6862915 13,7 C13,10.3137085 10.3137085,13 7,13 Z M6.00004865,7.00996733 C5.99271389,7.40242465 6.17277161,7.8110746 6.5,8 L8.23205081,8.8660254 C8.71034343,9.14216778 9.32193384,8.97829262 9.59807621,8.5 C9.87421859,8.02170738 9.71034343,7.41011697 9.23205081,7.1339746 L8,6.42264973 L8,5 C8,4.44771525 7.55228475,4 7,4 C6.44771525,4 6,4.44771525 6,5 L6,7 C6,7.00332626 6.00001624,7.00664873 6.00004865,7.00996733 L6.00004865,7.00996733 Z"/>
</svg>
