<svg xmlns="http://www.w3.org/2000/svg" width="14" height="14" viewBox="0 0 14 14">
  <path fill-rule="evenodd" d="M9,11 C9,12.1045695 8.1045695,13 7,13 C5.8954305,13 5,12.1045695 5,11 L9,11 Z M7,1 C9.48528137,1 11.5,3.01471863 11.5,5.5 C11.5,7.26637512 10.482278,8.79504854 9.00122137,9.53163297 L9.001,10 L4.999,10 L4.99978782,9.53213473 C3.51818431,8.79574291 2.5,7.2667763 2.5,5.5 C2.5,3.01471863 4.51471863,1 7,1 Z M6,3 C5.44771525,3 5,3.44771525 5,4 C5,4.55228475 5.44771525,5 6,5 C6.55228475,5 7,4.55228475 7,4 C7,3.44771525 6.55228475,3 6,3 Z"/>
</svg>
