<svg xmlns="http://www.w3.org/2000/svg" width="14" height="14" viewBox="0 0 14 14">
  <path fill-rule="evenodd" d="M5.00008273,5.03677152 L3.88710678,6.14974747 C3.49658249,6.54027176 2.86341751,6.54027176 2.47289322,6.14974747 C2.08236893,5.75922318 2.08236893,5.1260582 2.47289322,4.73553391 L6.00842712,1.2 L9.54396103,4.73553391 C9.93448532,5.1260582 9.93448532,5.75922318 9.54396103,6.14974747 C9.15343674,6.54027176 8.52027176,6.54027176 8.12974747,6.14974747 L7.00842712,5.02842712 L7.00842712,5.32075482 C7.1481915,7.97409442 9.01176015,10.1705451 11.5,10.8109738 L11.5,12.8596042 C9.72581017,12.5230524 8.15900679,11.6006324 7.00842712,10.3011815 L7.00842712,11.8226408 C7.00842712,12.3749256 6.56071187,12.8226408 6.00842712,12.8226408 C5.45614237,12.8226408 5.00842712,12.3749256 5.00842712,11.8226408 L5.00842712,5.37049602 C5.00338218,5.25982591 5.00058584,5.14856954 5.00008273,5.03677152 Z M13,11 L13,13 L13,11 Z"/>
</svg>
