<?xml version="1.0" encoding="UTF-8"?>
<svg width="14px" height="14px" viewBox="0 0 14 14" version="1.1" xmlns="http://www.w3.org/2000/svg" xmlns:xlink="http://www.w3.org/1999/xlink">
    <!-- Generator: Sketch 46.2 (44496) - http://www.bohemiancoding.com/sketch -->
    <title>14x14_trash_outline</title>
    <desc>Created with Sketch.</desc>
    <defs></defs>
    <g id="Page-1" stroke="none" stroke-width="1" fill="none" fill-rule="evenodd">
        <g id="14x14_trash_outline" fill="#000000">
            <path d="M5,7.4 C5,7.18 5.225,7 5.5,7 C5.775,7 6,7.18 6,7.4 L6,10.6 C6,10.82 5.775,11 5.5,11 C5.225,11 5,10.82 5,10.6 L5,7.4 Z M8,7.4 C8,7.18 8.225,7 8.5,7 C8.775,7 9,7.18 9,7.4 L9,10.6 C9,10.82 8.775,11 8.5,11 C8.225,11 8,10.82 8,10.6 L8,7.4 Z M3,11 C3,12.1 3.9,13 5,13 L9,13 C10.1,13 11,12.1 11,11 L11,5 L3,5 L3,11 Z M9,2 L9,1 L5,1 L5,2 L2,2 L2,4 L12,4 L12,2 L9,2 Z" id="Icon"></path>
        </g>
    </g>
</svg>