<svg xmlns="http://www.w3.org/2000/svg" width="14" height="14" viewBox="0 0 14 14">
  <path fill-rule="evenodd" d="M10.5355339,4.53553391 C10.9260582,4.9260582 10.9260582,5.55922318 10.5355339,5.94974747 C10.1450096,6.34027176 9.51184464,6.34027176 9.12132034,5.94974747 L7,3.82842712 L4.87867966,5.94974747 C4.48815536,6.34027176 3.85499039,6.34027176 3.46446609,5.94974747 C3.0739418,5.55922318 3.0739418,4.9260582 3.46446609,4.53553391 L7,1 L10.5355339,4.53553391 Z M3.4628933,9.46710701 C3.072369,9.07658272 3.072369,8.44341774 3.4628933,8.05289345 C3.85341759,7.66236916 4.48658257,7.66236916 4.87710686,8.05289345 L6.9984272,10.1742138 L9.11974754,8.05289345 C9.51027184,7.66236916 10.1434368,7.66236916 10.5339611,8.05289345 C10.9244854,8.44341774 10.9244854,9.07658272 10.5339611,9.46710701 L6.9984272,13.0026409 L3.4628933,9.46710701 Z"/>
</svg>
