<svg width="14" height="14" viewBox="0 0 14 14" fill="none" xmlns="http://www.w3.org/2000/svg">
  <path fill-rule="evenodd" clip-rule="evenodd" d="M3 3C3 1.89543 3.89543 1 5 1H9C10.1046 1 11 1.89543 11 3V4H9V3H5V4H3V3Z" fill="black"/>
  <path fill-rule="evenodd" clip-rule="evenodd" d="M1 5.25C1 4.55964 1.55964 4 2.25 4H11.75C12.4404 4 13 4.55964 13 5.25V10.75C13 11.4404 12.4404 12 11.75 12H2.25C1.55964 12 1 11.4404 1 10.75V5.25ZM9 7H5V8C5 8.55228 5.44772 9 6 9H8C8.55228 9 9 8.55228 9 8V7Z" fill="black"/>
</svg>
