<?xml version="1.0" encoding="UTF-8"?>
<svg width="14px" height="14px" viewBox="0 0 14 14" version="1.1" xmlns="http://www.w3.org/2000/svg" xmlns:xlink="http://www.w3.org/1999/xlink">
    <!-- Generator: Sketch 46.2 (44496) - http://www.bohemiancoding.com/sketch -->
    <title>14x14_close_outline</title>
    <desc>Created with Sketch.</desc>
    <defs></defs>
    <g id="Page-1" stroke="none" stroke-width="1" fill="none" fill-rule="evenodd">
        <g id="14x14_close_outline" fill="#000000">
            <path d="M8.41421356,7 L10.5355339,4.87867966 C10.9260582,4.48815536 10.9260582,3.85499039 10.5355339,3.46446609 C10.1450096,3.0739418 9.51184464,3.0739418 9.12132034,3.46446609 L7,5.58578644 L4.87867966,3.46446609 C4.48815536,3.0739418 3.85499039,3.0739418 3.46446609,3.46446609 C3.0739418,3.85499039 3.0739418,4.48815536 3.46446609,4.87867966 L5.58578644,7 L3.46446609,9.12132034 C3.0739418,9.51184464 3.0739418,10.1450096 3.46446609,10.5355339 C3.85499039,10.9260582 4.48815536,10.9260582 4.87867966,10.5355339 L7,8.41421356 L9.12132034,10.5355339 C9.51184464,10.9260582 10.1450096,10.9260582 10.5355339,10.5355339 C10.9260582,10.1450096 10.9260582,9.51184464 10.5355339,9.12132034 L8.41421356,7 Z" id="Icon"></path>
        </g>
    </g>
</svg>