<?xml version="1.0" encoding="UTF-8"?>
<svg width="14px" height="14px" viewBox="0 0 14 14" version="1.1" xmlns="http://www.w3.org/2000/svg" xmlns:xlink="http://www.w3.org/1999/xlink">
    <!-- Generator: Sketch 46.2 (44496) - http://www.bohemiancoding.com/sketch -->
    <title>14x14_error_outline</title>
    <desc>Created with Sketch.</desc>
    <defs></defs>
    <g id="Page-1" stroke="none" stroke-width="1" fill="none" fill-rule="evenodd">
        <g id="14x14_error_outline" fill="#000000">
            <path d="M7,3.5 C6.447,3.5 6,4.06 6,4.75 L6,7.25 C6,7.94 6.447,8.5 7,8.5 C7.553,8.5 8,7.94 8,7.25 L8,4.75 C8,4.06 7.553,3.5 7,3.5 M7,0 C10.859,0 14,3.141 14,7 C14,10.859 10.859,14 7,14 C3.141,14 0,10.859 0,7 C0,3.141 3.141,0 7,0 Z M7,9 C7.553,9 8,9.447 8,10 C8,10.553 7.553,11 7,11 C6.447,11 6,10.553 6,10 C6,9.447 6.447,9 7,9 Z M7,1 C3.687,1 1,3.687 1,7 C1,10.313 3.687,13 7,13 C10.313,13 13,10.313 13,7 C13,3.687 10.313,1 7,1 Z" id="Icon"></path>
        </g>
    </g>
</svg>