<?xml version="1.0" encoding="UTF-8"?>
<svg width="14px" height="14px" viewBox="0 0 14 14" version="1.1" xmlns="http://www.w3.org/2000/svg" xmlns:xlink="http://www.w3.org/1999/xlink">
    <!-- Generator: Sketch 46.1 (44463) - http://www.bohemiancoding.com/sketch -->
    <title>14x14_meeting</title>
    <desc>Created with Sketch.</desc>
    <defs></defs>
    <g id="Page-1" stroke="none" stroke-width="1" fill="none" fill-rule="evenodd">
        <g id="14x14_meeting" fill="#000000">
            <path d="M9,1 C9.552,1 10,1.448 10,2 C11.103,2 12,2.897 12,4 L12,10 C12,11.103 11.103,12 10,12 L4,12 C2.897,12 2,11.103 2,10 L2,4 C2,2.897 2.897,2 4,2 C4,1.448 4.448,1 5,1 C5.552,1 6,1.448 6,2 L8,2 C8,1.448 8.448,1 9,1 Z M11,10 L11,4 L3,4 L3,10 C3,10.552 3.448,11 4,11 L10,11 C10.552,11 11,10.552 11,10 Z" id="Combined-Shape"></path>
        </g>
    </g>
</svg>