<svg xmlns="http://www.w3.org/2000/svg" width="14" height="14" viewBox="0 0 14 14">
  <path fill="#0D131A" fill-rule="evenodd" d="M12,8 L12,10 L14,10 L14,12 L12,12 L12,14 L10,14 L10,12 L8,12 L8,10 L10,10 L10,8 L12,8 Z M5,1 C6.93299662,1 8.5,2.56700338 8.5,4.5 C8.5,5.52574605 8.05874722,6.448432 7.35570385,7.08859566 C7.67507607,7.25949838 7.9737264,7.46406931 8.2469121,7.69756572 C7.79144505,8.21362444 7.44192972,8.82397931 7.23031394,9.49550927 C6.68251103,8.8841853 5.88612116,8.5 5,8.5 C3.34314575,8.5 2,9.84314575 2,11.5 L0,11.5 C0,9.59033907 1.07057798,7.93072503 2.64429615,7.08859566 C1.94125278,6.448432 1.5,5.52574605 1.5,4.5 C1.5,2.56700338 3.06700338,1 5,1 Z M5,3 C4.17157288,3 3.5,3.67157288 3.5,4.5 C3.5,5.32842712 4.17157288,6 5,6 C5.82842712,6 6.5,5.32842712 6.5,4.5 C6.5,3.67157288 5.82842712,3 5,3 Z"/>
</svg>
