<svg width="14" height="14" viewBox="0 0 14 14" fill="none" xmlns="http://www.w3.org/2000/svg">
<g opacity="0.84">
<path fill-rule="evenodd" clip-rule="evenodd" d="M12.7071 3.12129C13.0976 2.73077 13.0976 2.0976 12.7071 1.70708C12.3166 1.31655 11.6834 1.31655 11.2929 1.70708L1.70711 11.2929C1.31658 11.6834 1.31658 12.3166 1.70711 12.7071C2.09763 13.0976 2.7308 13.0976 3.12132 12.7071L4.3245 11.5039C5.1824 11.8338 6.09037 12 7 12C9.7803 12 12.5451 10.4478 13.9119 7.41036C14.0294 7.14939 14.0294 6.85061 13.9119 6.58964C13.4179 5.49175 12.7412 4.5879 11.9471 3.88126L12.7071 3.12129ZM10.5294 5.29895L8.9933 6.8351C8.99774 6.88948 9 6.94448 9 7C9 8.10457 8.10457 9 7 9C6.94448 9 6.88948 8.99774 6.8351 8.9933L5.93322 9.89518C6.28555 9.96518 6.64302 10 7 10C8.89544 10 10.8045 9.01847 11.8862 7C11.5186 6.3139 11.0553 5.74761 10.5294 5.29895Z" fill="#1A1C20"/>
<path d="M8.78381 2.21616C8.19919 2.07228 7.59996 2 7 2C4.2197 2 1.45492 3.55222 0.0880785 6.58964C-0.0293595 6.85061 -0.0293595 7.14939 0.0880785 7.41036C0.455163 8.22611 0.923078 8.93473 1.46504 9.53493L2.88202 8.11795C2.59561 7.78916 2.33705 7.41667 2.11376 7C3.19545 4.98154 5.10454 4.00001 6.99997 4L8.78381 2.21616Z" fill="#1A1C20"/>
</g>
</svg>
