<svg xmlns="http://www.w3.org/2000/svg" width="14" height="14" viewBox="0 0 14 14">
  <path d="M10,2 C11.132521,2 12,2.97591389 12,4.125 L12,10.875 C12,12.0240861 11.132521,13 10,13 L4,13 C2.86747902,13 2,12.0240861 2,10.875 L2,4.125 C2,2.97591389 2.86747902,2 4,2 C4.01863432,8 4.01863432,11 4,11 L10,11 C9.98136568,11 9.98136568,8 10,2 Z M6,1 L8,1 C8.55228475,1 9,1.44771525 9,2 L9,3 L5,3 L5,2 C5,1.44771525 5.44771525,1 6,1 Z M6,5 L8,5 C8.55228475,5 9,5.44771525 9,6 C9,6.55228475 8.55228475,7 8,7 L6,7 C5.44771525,7 5,6.55228475 5,6 C5,5.44771525 5.44771525,5 6,5 Z M6,8 L8,8 C8.55228475,8 9,8.44771525 9,9 C9,9.55228475 8.55228475,10 8,10 L6,10 C5.44771525,10 5,9.55228475 5,9 C5,8.44771525 5.44771525,8 6,8 Z"/>
</svg>
