<svg width="14" height="14" fill="none" xmlns="http://www.w3.org/2000/svg"><path d="M6.405 7.647c.522.513.965.843 1.326 1.028l.113.055.947-1.01a1.29 1.29 0 0 1 1.511-.247l2.1 1.21c.306.165.52.453.58.793a1.13 1.13 0 0 1-.3.976l-1.933 2.045a1.72 1.72 0 0 1-.925.483 2.29 2.29 0 0 1-.33.02c-1.491 0-3.393-.796-5.5-2.868C2.596 8.756 1.732 7.414 1.3 6.156c-.275-.802-.333-1.427-.288-1.822a1.73 1.73 0 0 1 .44-.936l1.932-2.042c.26-.273.62-.4.987-.342.366.058.672.295.818.607l1.182 2.173c.23.487.142 1.08-.218 1.458l-.894.951c.322.448.729 1.033 1.146 1.444Z" fill="#000"/></svg>