<svg xmlns="http://www.w3.org/2000/svg" width="14" height="14" viewBox="0 0 14 14" fill="none">
  <path d="M8 3C8 2.448 8.448 2 9 2C9.552 2 10 2.448 10 3C11.103 3 12 3.897 12 5V7H10V6H4V10H7V12H4C2.897 12 2 11.103 2 10V5C2 3.897 2.897 3 4 3C4 2.448 4.448 2 5 2C5.552 2 6 2.448 6 3H8Z" fill="#000"/>
  <path d="M11 14C9.34315 14 8 12.6569 8 11C8 9.34315 9.34315 8 11 8C12.6569 8 14 9.34315 14 11C14 12.6569 12.6569 14 11 14ZM10.5 11.005C10.4964 11.2012 10.5864 11.4055 10.75 11.5L11.616 11.933C11.8552 12.0711 12.161 11.9891 12.299 11.75C12.4371 11.5109 12.3552 11.2051 12.116 11.067L11.5 10.7113V9.5C11.5 9.22386 11.2761 9 11 9C10.7239 9 10.5 9.22386 10.5 9.5V11L10.5 11.005Z" fill="#000"/>
</svg>