<svg xmlns="http://www.w3.org/2000/svg" width="14" height="14" viewBox="0 0 14 14">
<path d="M7.7277 1.87799H6.2997V2.87199C4.6197 3.03999 3.4017 4.00599 3.4017 5.55999C3.4017 7.30999 4.9837 7.75799 6.2297 8.14999C7.2657 8.47199 7.9797 8.62599 7.9797 9.12999C7.9797 9.50799 7.6437 9.75999 7.0557 9.77399C6.2857 9.81599 5.3897 9.45199 4.7177 8.61199L3.1637 9.98399C3.9057 10.894 4.9837 11.44 6.2857 11.58V12.728H7.7137V11.566C9.3237 11.37 10.5697 10.502 10.5697 8.87799C10.5697 6.88999 8.8617 6.51199 7.5877 6.16199C6.5237 5.89599 5.8377 5.71399 5.8377 5.25199C5.8377 4.84599 6.2297 4.63599 6.8317 4.63599C7.5177 4.57999 8.3717 4.90199 9.0577 5.69999L10.4997 4.31399C9.7857 3.50199 8.7917 3.06799 7.7277 2.91399V1.87799Z"/>
</svg>
