<svg xmlns="http://www.w3.org/2000/svg" width="14" height="14" viewBox="0 0 14 14">
  <path d="M10,2 C11.132521,2 12,2.97591389 12,4.125 L12,10.875 C12,12.0240861 11.132521,13 10,13 L4,13 C2.86747902,13 2,12.0240861 2,10.875 L2,4.125 C2,2.97591389 2.86747902,2 4,2 L4,4 L10,4 L10,2 Z M6,1 L8,1 C8.55228475,1 9,1.44771525 9,2 L9,3 L5,3 L5,2 C5,1.44771525 5.44771525,1 6,1 Z M6,6 C5.44771525,6 5,6.44771525 5,7 C5,7.55228475 5.44771525,8 6,8 L8,8 C8.55228475,8 9,7.55228475 9,7 C9,6.44771525 8.55228475,6 8,6 L6,6 Z M6,9 C5.44771525,9 5,9.44771525 5,10 C5,10.5522847 5.44771525,11 6,11 L8,11 C8.55228475,11 9,10.5522847 9,10 C9,9.44771525 8.55228475,9 8,9 L6,9 Z"/>
</svg>
