<svg width="14" height="14" viewBox="0 0 14 14" fill="none" xmlns="http://www.w3.org/2000/svg">
<g opacity="0.84">
<path d="M7 9C8.10457 9 9 8.10457 9 7C9 5.89543 8.10457 5 7 5C5.89543 5 5 5.89543 5 7C5 8.10457 5.89543 9 7 9Z" fill="#1A1C20"/>
<path fill-rule="evenodd" clip-rule="evenodd" d="M7 2C4.2197 2 1.45492 3.55222 0.0880785 6.58964C-0.0293595 6.85061 -0.0293595 7.14939 0.0880785 7.41036C1.45492 10.4478 4.2197 12 7 12C9.7803 12 12.5451 10.4478 13.9119 7.41036C14.0294 7.14939 14.0294 6.85061 13.9119 6.58964C12.5451 3.55222 9.7803 2 7 2ZM7 10C5.10456 10 3.19546 9.01847 2.11376 7C3.19546 4.98153 5.10456 4 7 4C8.89544 4 10.8045 4.98153 11.8862 7C10.8045 9.01847 8.89544 10 7 10Z" fill="#1A1C20"/>
</g>
</svg>
