<svg xmlns="http://www.w3.org/2000/svg" width="14" height="14" viewBox="0 0 14 14">
  <path fill-rule="evenodd" d="M6,9.82929429 C4.83480763,9.41745788 4,8.30621883 4,7 C4,5.69378117 4.83480763,4.58254212 6,4.17070571 L6,3 C6,2.44771525 6.44771525,2 7,2 C7.55228475,2 8,2.44771525 8,3 L8,4.17070571 C9.16519237,4.58254212 10,5.69378117 10,7 C10,8.30621883 9.16519237,9.41745788 8,9.82929429 L8,11 C8,11.5522847 7.55228475,12 7,12 C6.44771525,12 6,11.5522847 6,11 L6,9.82929429 Z M7,8 C7.55228475,8 8,7.55228475 8,7 C8,6.44771525 7.55228475,6 7,6 C6.44771525,6 6,6.44771525 6,7 C6,7.55228475 6.44771525,8 7,8 Z"/>
</svg>
