<?xml version="1.0" encoding="UTF-8"?>
<svg width="14px" height="14px" viewBox="0 0 14 14" version="1.1" xmlns="http://www.w3.org/2000/svg" xmlns:xlink="http://www.w3.org/1999/xlink">
    <!-- Generator: Sketch 46.2 (44496) - http://www.bohemiancoding.com/sketch -->
    <title>14x14_clock_outline</title>
    <desc>Created with Sketch.</desc>
    <defs></defs>
    <g id="Page-1" stroke="none" stroke-width="1" fill="none" fill-rule="evenodd">
        <g id="14x14_clock_outline" fill-rule="nonzero" fill="#000000">
            <path d="M7,13 C10.3137085,13 13,10.3137085 13,7 C13,3.6862915 10.3137085,1 7,1 C3.6862915,1 1,3.6862915 1,7 C1,10.3137085 3.6862915,13 7,13 Z M7,14 C3.13400675,14 0,10.8659932 0,7 C0,3.13400675 3.13400675,0 7,0 C10.8659932,0 14,3.13400675 14,7 C14,10.8659932 10.8659932,14 7,14 Z M8,6.48238792 L8,4 C8,3.44771525 7.55228475,3 7,3 C6.44771525,3 6,3.44771525 6,4 L6,6.94343936 C6,7.28948696 6.17890804,7.61093987 6.47300239,7.79330613 L9.20718921,9.48876002 C9.68548184,9.76490239 10.2970722,9.60102724 10.5732146,9.12273461 C10.849357,8.64444199 10.6854818,8.03285159 10.2071892,7.75670921 L8,6.48238792 Z" id="Icon"></path>
        </g>
    </g>
</svg>