<svg width="14" height="14" viewBox="0 0 14 14" fill="none" xmlns="http://www.w3.org/2000/svg">
<path fill-rule="evenodd" clip-rule="evenodd" d="M2 5C2 2.79086 3.79086 1 6 1H7C9.20914 1 11 2.79086 11 5V10C11 11.6569 9.65685 13 8 13C6.34315 13 5 11.6569 5 10V5.94737C5 5.39508 5.44772 4.94737 6 4.94737C6.55228 4.94737 7 5.39508 7 5.94737V10C7 10.5523 7.44772 11 8 11C8.55228 11 9 10.5523 9 10V5C9 3.89543 8.10457 3 7 3H6C4.89543 3 4 3.89543 4 5V5.94737C4 6.49965 3.55228 6.94737 3 6.94737C2.44772 6.94737 2 6.49965 2 5.94737V5Z" fill="black"/>
</svg>
