<?xml version="1.0" encoding="UTF-8"?>
<svg width="14px" height="14px" viewBox="0 0 14 14" version="1.1" xmlns="http://www.w3.org/2000/svg" xmlns:xlink="http://www.w3.org/1999/xlink">
    <!-- Generator: Sketch 46.2 (44496) - http://www.bohemiancoding.com/sketch -->
    <title>14x14_search_outline</title>
    <desc>Created with Sketch.</desc>
    <defs></defs>
    <g id="Page-1" stroke="none" stroke-width="1" fill="none" fill-rule="evenodd">
        <g id="14x14_search_outline" fill-rule="nonzero" fill="#000000">
            <path d="M10.8681063,9.45467934 L13.2771304,11.863961 C13.6676228,12.2544853 13.6676228,12.8876503 13.2771304,13.2781746 C12.886638,13.6686989 12.2535248,13.6686989 11.8630324,13.2781746 L9.45401909,10.8689037 C8.53076883,11.5139944 7.40743796,11.8923979 6.19573346,11.8923979 C3.05006673,11.8923979 0.5,9.34212273 0.5,6.19619893 C0.5,3.05027513 3.05006673,0.5 6.19573346,0.5 C9.34140018,0.5 11.8914669,3.05027513 11.8914669,6.19619893 C11.8914669,7.40797118 11.5131139,8.53136714 10.8681063,9.45467934 Z M6.19573346,9.61391828 C8.08313349,9.61391828 9.61317353,8.08375321 9.61317353,6.19619893 C9.61317353,4.30864465 8.08313349,2.77847957 6.19573346,2.77847957 C4.30833342,2.77847957 2.77829338,4.30864465 2.77829338,6.19619893 C2.77829338,8.08375321 4.30833342,9.61391828 6.19573346,9.61391828 Z" id="Icon"></path>
        </g>
    </g>
</svg>