<svg width="14" height="14" viewBox="0 0 14 14" fill="none" xmlns="http://www.w3.org/2000/svg">
<path d="M7.04615 8.21224C7.71564 8.21224 8.25837 7.66951 8.25837 7.00002C8.25837 6.33053 7.71564 5.7878 7.04615 5.7878C6.37666 5.7878 5.83392 6.33053 5.83392 7.00002C5.83392 7.66951 6.37666 8.21224 7.04615 8.21224ZM6.14542 0.999515C6.42423 0.957087 6.70911 0.938904 7.00004 0.938904C7.29097 0.938904 7.57585 0.957087 7.85466 0.999515C8.40016 1.07225 8.78807 1.50259 8.90323 2.03597C8.9699 2.35721 9.16992 2.6542 9.47904 2.83603C9.66693 2.94513 9.87907 2.99968 10.0851 2.99968C10.2124 2.99968 10.3337 2.9815 10.4549 2.94513C10.5997 2.89846 10.7494 2.87482 10.8955 2.87482C11.2446 2.87482 11.5786 3.01059 11.8004 3.29668C12.1338 3.73308 12.4066 4.21191 12.6187 4.72104C12.8127 5.20593 12.7036 5.79386 12.2975 6.12722C12.0429 6.3333 11.8732 6.64241 11.8489 7.00002C11.8732 7.35763 12.0429 7.66674 12.2975 7.87282C12.7036 8.20618 12.8127 8.79411 12.6187 9.279C12.4066 9.78813 12.1338 10.267 11.8004 10.7034C11.5786 10.9894 11.2446 11.1252 10.8955 11.1252C10.7494 11.1252 10.5997 11.1016 10.4549 11.0549C10.3337 11.0185 10.2124 11.0004 10.0851 11.0004C9.87907 11.0004 9.66693 11.0549 9.47904 11.164C9.16992 11.3458 8.9699 11.6428 8.90323 11.9641C8.78807 12.4975 8.40016 12.9278 7.85466 13.0005C7.57585 13.043 7.29097 13.0611 7.00004 13.0611C6.70911 13.0611 6.42423 13.043 6.14542 13.0005C5.59992 12.9278 5.21201 12.4975 5.09685 11.9641C5.03018 11.6428 4.83016 11.3458 4.52104 11.164C4.33315 11.0549 4.12101 11.0004 3.91493 11.0004C3.78765 11.0004 3.66643 11.0185 3.5452 11.0549C3.40034 11.1016 3.25124 11.1252 3.10456 11.1252C2.75544 11.1252 2.42147 10.9894 2.19964 10.7034C1.86627 10.267 1.59352 9.78813 1.38138 9.279C1.18743 8.79411 1.29653 8.20618 1.70262 7.87282C1.95719 7.66674 2.1269 7.35763 2.15115 7.00002C2.1269 6.64241 1.95719 6.3333 1.70262 6.12722C1.29653 5.79386 1.18743 5.20593 1.38138 4.72104C1.59352 4.21191 1.86627 3.73308 2.19964 3.29668C2.42147 3.01059 2.75544 2.87482 3.10456 2.87482C3.25124 2.87482 3.40034 2.89846 3.5452 2.94513C3.66643 2.9815 3.78765 2.99968 3.91493 2.99968C4.12101 2.99968 4.33315 2.94513 4.52104 2.83603C4.83016 2.6542 5.03018 2.35721 5.09685 2.03597C5.21201 1.50259 5.59992 1.07225 6.14542 0.999515ZM7.04615 9.42447C5.70716 9.42447 4.6217 8.33901 4.6217 7.00002C4.6217 5.66104 5.70716 4.57557 7.04615 4.57557C8.38513 4.57557 9.47059 5.66104 9.47059 7.00002C9.47059 8.33901 8.38513 9.42447 7.04615 9.42447ZM7.00004 2.15113C6.75457 2.15113 6.53455 2.16628 6.32786 2.1978C6.31938 2.1978 6.29513 2.23053 6.2818 2.29175C6.14482 2.95059 5.7266 3.53306 5.13564 3.88097C4.76106 4.09856 4.34042 4.21191 3.91493 4.21191C3.67188 4.21191 3.43065 4.17675 3.19669 4.10644C3.15972 4.09432 3.13608 4.08947 3.12092 4.08765C2.87727 4.41556 2.66695 4.78771 2.50027 5.18714C2.49905 5.19138 2.49905 5.2029 2.50027 5.21381C3.00031 5.63142 3.31549 6.25268 3.36095 6.9182L3.36579 7.00002L3.36095 7.08185C3.31549 7.74493 3.00273 8.36317 2.50027 8.78563C2.49966 8.79775 2.50087 8.81411 2.50693 8.82927C2.66634 9.21051 2.87424 9.57903 3.12092 9.91178C3.13729 9.91057 3.15426 9.90754 3.17426 9.90087C3.43065 9.82329 3.67188 9.78813 3.91493 9.78813C4.34042 9.78813 4.76106 9.90148 5.12958 10.116C5.7266 10.467 6.14482 11.0495 6.28362 11.7174C6.29513 11.7695 6.31938 11.8022 6.32726 11.8083C6.53455 11.8338 6.75457 11.8489 7.00004 11.8489C7.24552 11.8489 7.46553 11.8338 7.67222 11.8022C7.6807 11.8022 7.70495 11.7695 7.71828 11.7083C7.85526 11.0495 8.27348 10.467 8.86444 10.1191C9.23902 9.90148 9.65966 9.78813 10.0851 9.78813C10.3276 9.78813 10.5694 9.82329 10.8028 9.8936C10.841 9.90572 10.864 9.91057 10.8785 9.91239C11.1228 9.58448 11.3331 9.21233 11.4998 8.8129C11.5016 8.80866 11.501 8.79714 11.5004 8.78623C11.0004 8.36862 10.6846 7.74736 10.6397 7.08185L10.6337 7.00002L10.6397 6.9182C10.6846 6.25511 10.9973 5.63688 11.4998 5.21442C11.5004 5.20229 11.4992 5.18593 11.4931 5.17078C11.3337 4.78953 11.1258 4.42102 10.8792 4.08826C10.8628 4.08947 10.8458 4.0925 10.8258 4.09917C10.5694 4.17675 10.3276 4.21191 10.0851 4.21191C9.65966 4.21191 9.23902 4.09856 8.8705 3.884C8.27348 3.53306 7.85526 2.95059 7.71646 2.28265C7.70495 2.23053 7.6807 2.1978 7.67282 2.19174C7.46553 2.16628 7.24552 2.15113 7.00004 2.15113Z" fill="black"/>
</svg>
