<svg width="14" height="14" fill="none" xmlns="http://www.w3.org/2000/svg"><g clip-path="url(#14x14_visible_outline__a)" fill="#000"><path d="M7 9a2 2 0 1 0 0-4 2 2 0 0 0 0 4Z"/><path fill-rule="evenodd" clip-rule="evenodd" d="M7 2C4.22 2 1.455 3.552.088 6.59a1 1 0 0 0 0 .82C1.455 10.448 4.22 12 7 12c2.78 0 5.545-1.552 6.912-4.59a1 1 0 0 0 0-.82C12.545 3.552 9.78 2 7 2Zm0 8c-1.895 0-3.805-.982-4.886-3C3.195 4.982 5.104 4 7 4c1.895 0 3.805.982 4.886 3-1.081 2.018-2.99 3-4.886 3Z"/></g><defs><clipPath id="14x14_visible_outline__a"><path fill="#fff" d="M0 0h14v14H0z"/></clipPath></defs></svg>