<svg xmlns="http://www.w3.org/2000/svg" xmlns:xlink="http://www.w3.org/1999/xlink" width="14" height="14" viewBox="0 0 14 14">
  <defs>
    <path id="14x14_user_outline-a" d="M9.35570385,7.58859566 C10.929422,8.43072503 12,10.0903391 12,12 L10,12 C10,10.3431458 8.65685425,9 7,9 C5.34314575,9 4,10.3431458 4,12 L2,12 C2,10.0903391 3.07057798,8.43072503 4.64429615,7.58859566 C3.94125278,6.948432 3.5,6.02574605 3.5,5 C3.5,3.06700338 5.06700338,1.5 7,1.5 C8.93299662,1.5 10.5,3.06700338 10.5,5 C10.5,6.02574605 10.0587472,6.948432 9.35570385,7.58859566 Z M7,3.5 C6.17157288,3.5 5.5,4.17157288 5.5,5 C5.5,5.82842712 6.17157288,6.5 7,6.5 C7.82842712,6.5 8.5,5.82842712 8.5,5 C8.5,4.17157288 7.82842712,3.5 7,3.5 Z"/>
  </defs>
  <g fill="none" fill-rule="evenodd">
    <use fill="#000" fill-rule="nonzero" xlink:href="#14x14_user_outline-a"/>
  </g>
</svg>
