<svg width="14" height="14" viewBox="0 0 14 14" fill="none" xmlns="http://www.w3.org/2000/svg"><g clip-path="url(#14x14_graph_trending_up_outline__a)" fill-rule="evenodd" clip-rule="evenodd" fill="#000"><path d="M12.771.364a1 1 0 0 1-.135 1.407l-2.9 2.394a2 2 0 0 1-2.753-.198l-1.445-1.59-2.902 2.394A1 1 0 1 1 1.364 3.23l2.9-2.394a2 2 0 0 1 2.753.198l1.445 1.59L11.364.228a1 1 0 0 1 1.407.135ZM11 14a1 1 0 0 1-1-1V7a1 1 0 1 1 2 0v6a1 1 0 0 1-1 1Zm-4 0a1 1 0 0 1-1-1V8a1 1 0 1 1 2 0v5a1 1 0 0 1-1 1Zm-4 0a1 1 0 0 1-1-1v-3a1 1 0 1 1 2 0v3a1 1 0 0 1-1 1Z"/></g><defs><clipPath id="14x14_graph_trending_up_outline__a"><path fill="#fff" d="M0 0h14v14H0z"/></clipPath></defs></svg>