<?xml version="1.0" encoding="UTF-8"?>
<svg width="14px" height="14px" viewBox="0 0 14 14" version="1.1" xmlns="http://www.w3.org/2000/svg" xmlns:xlink="http://www.w3.org/1999/xlink">
    <!-- Generator: Sketch 46.2 (44496) - http://www.bohemiancoding.com/sketch -->
    <title>14x14_flag_outline</title>
    <desc>Created with Sketch.</desc>
    <defs></defs>
    <g id="Page-1" stroke="none" stroke-width="1" fill="none" fill-rule="evenodd">
        <g id="14x14_flag_outline" fill="#000000">
            <path d="M9.0513,5.3164 L9.6133,7.0004 L4.0003,7.0004 L4.0003,3.0004 L9.6133,3.0004 L9.0513,4.6834 C8.9833,4.8894 8.9833,5.1104 9.0513,5.3164 L9.0513,5.3164 Z M11.0543,5.0004 L11.9483,2.3164 C12.0503,2.0114 11.9993,1.6764 11.8113,1.4154 C11.6233,1.1544 11.3213,1.0004 11.0003,1.0004 L4.0003,1.0004 C4.0003,0.4474 3.5523,0.0004 3.0003,0.0004 C2.4473,0.0004 2.0003,0.4474 2.0003,1.0004 L2.0003,2.0004 L2.0003,8.0004 L2.0003,13.0004 L4.0003,13.0004 L4.0003,9.0004 L11.0003,9.0004 C11.3213,9.0004 11.6233,8.8454 11.8113,8.5844 C11.9993,8.3234 12.0503,7.9884 11.9483,7.6834 L11.0543,5.0004 Z" id="Icon"></path>
        </g>
    </g>
</svg>