<svg width="14" height="14" fill="none" xmlns="http://www.w3.org/2000/svg"><path d="m5.894 6.1-2.538.372 1.823 1.783-.41 2.405 2.187-1.44 2.296 1.409-.434-2.37 1.826-1.786-2.534-.37L6.974 3.52 5.894 6.1ZM4.66 4.513l1.077-2.57C6.188.863 7.71.85 8.18 1.918l1.14 2.59 2.416.354c1.089.159 1.524 1.496.737 2.266l-1.767 1.729.435 2.382c.207 1.131-1.023 1.973-2.003 1.372l-2.15-1.32-2.066 1.362c-.972.64-2.238-.187-2.042-1.333l.42-2.455-1.775-1.736c-.786-.77-.351-2.107.738-2.266l2.398-.35Z" fill="#000"/></svg>