<svg width="14" height="14" viewBox="0 0 14 14" fill="none" xmlns="http://www.w3.org/2000/svg">
<path fill-rule="evenodd" clip-rule="evenodd" d="M5 8C5.64476 8 6.21826 8.3051 6.584 8.7788C6.59451 8.79305 6.60515 8.80721 6.6159 8.82127C6.77522 9.03931 6.89148 9.2908 6.95217 9.56325C5.783 10.2614 5 11.5393 5 13H7C7 11.8954 7.89543 11 9 11C10.1046 11 11 11.8954 11 13H13C13 11.4298 12.0952 10.0709 10.7786 9.41618C11.5194 8.86992 12 7.99108 12 7C12 5.34315 10.6569 4 9 4C8.64754 4 8.30928 4.06078 7.99513 4.17243C7.99836 4.11537 8 4.05788 8 4C8 2.34315 6.65685 1 5 1C3.34315 1 2 2.34315 2 4C2 4.99108 2.48059 5.86992 3.22144 6.41618C1.90478 7.07086 1 8.42977 1 10H3C3 8.89543 3.89543 8 5 8ZM6 4C6 4.55228 5.55228 5 5 5C4.44772 5 4 4.55228 4 4C4 3.44772 4.44772 3 5 3C5.55228 3 6 3.44772 6 4ZM9 8C8.68063 8 8.39623 7.85029 8.21315 7.61721L8.18712 7.58256C8.06935 7.41852 8 7.21736 8 7C8 6.44772 8.44772 6 9 6C9.55228 6 10 6.44772 10 7C10 7.55228 9.55228 8 9 8Z" fill="black"/>
</svg>
