<?xml version="1.0" encoding="UTF-8"?>
<svg width="14px" height="14px" viewBox="0 0 14 14" version="1.1" xmlns="http://www.w3.org/2000/svg" xmlns:xlink="http://www.w3.org/1999/xlink">
    <!-- Generator: Sketch 46.2 (44496) - http://www.bohemiancoding.com/sketch -->
    <title>14x14_user_outline</title>
    <desc>Created with Sketch.</desc>
    <defs></defs>
    <g id="Page-1" stroke="none" stroke-width="1" fill="none" fill-rule="evenodd">
        <g id="14x14_user_outline" fill-rule="nonzero" fill="#000000">
            <path d="M7,7 C8.1045695,7 9,6.1045695 9,5 C9,3.8954305 8.1045695,3 7,3 C5.8954305,3 5,3.8954305 5,5 C5,6.1045695 5.8954305,7 7,7 Z M4.09447314,7.74917984 C3.41605805,7.03242946 3,6.06480251 3,5 C3,2.790861 4.790861,1 7,1 C9.209139,1 11,2.790861 11,5 C11,6.06480251 10.583942,7.03242946 9.90552686,7.74917984 C11.7509014,8.77249546 13,10.7403764 13,13 L11,13 C11,10.790861 9.209139,9 7,9 C4.790861,9 3,10.790861 3,13 L1,13 C1,10.7403764 2.24909862,8.77249546 4.09447314,7.74917984 Z" id="Icon"></path>
        </g>
    </g>
</svg>