<svg width="14" height="14" viewBox="0 0 14 14" fill="none" xmlns="http://www.w3.org/2000/svg">
<path fill-rule="evenodd" clip-rule="evenodd" d="M4.15212 1.54999C3.79194 1.54999 3.49995 1.84198 3.49995 2.20216V3.79784H2.8043C1.72374 3.79784 0.847778 4.6738 0.847778 5.75436V8.14567C0.847778 9.22622 1.72374 10.1022 2.8043 10.1022H3.49995V11.7978C3.49995 12.158 3.79194 12.45 4.15212 12.45H9.84778C10.208 12.45 10.5 12.158 10.5 11.7978V10.1022H11.1956C12.2762 10.1022 13.1521 9.22622 13.1521 8.14567L13.1521 5.75436C13.1521 4.6738 12.2762 3.79784 11.1956 3.79784H10.5V2.20216C10.5 1.84198 10.208 1.54999 9.84778 1.54999H4.15212ZM4.79995 2.84999V3.74999H9.19995V2.84999H4.79995ZM10.5 8.79784H11.1956C11.5558 8.79784 11.8478 8.50585 11.8478 8.14567V5.75436C11.8478 5.39417 11.5558 5.10218 11.1956 5.10218H2.8043C2.44411 5.10218 2.15212 5.39417 2.15212 5.75436V8.14567C2.15212 8.50585 2.44411 8.79784 2.8043 8.79784H3.49995V8.10218C3.49995 7.742 3.79194 7.45001 4.15212 7.45001H9.84778C10.208 7.45001 10.5 7.742 10.5 8.10218V8.79784ZM4.8043 11.1457V8.75436H9.19561V11.1457H4.8043Z" fill="#1A1C20"/>
</svg>
