<svg xmlns="http://www.w3.org/2000/svg" width="14" height="14" viewBox="0 0 14 14">
  <path fill-rule="evenodd" d="M7,13 C3.6862915,13 1,10.3137085 1,7 C1,3.6862915 3.6862915,1 7,1 C10.3137085,1 13,3.6862915 13,7 C13,10.3137085 10.3137085,13 7,13 Z M5.85725,10.5565 L10.70725,5.7065 C11.09825,5.3165 11.09825,4.6835 10.70725,4.2925 C10.31625,3.9025 9.68425,3.9025 9.29325,4.2925 L5.85725,7.7285 L4.70725,6.5785 C4.31625,6.1875 3.68425,6.1875 3.29325,6.5785 C2.90225,6.9695 2.90225,7.6015 3.29325,7.9925 L5.85725,10.5565 Z"/>
</svg>
