<svg width="14" height="14" viewBox="0 0 14 14" fill="none" xmlns="http://www.w3.org/2000/svg">
<path d="M6.13969 0.959513C6.42036 0.916803 6.70713 0.898499 7 0.898499C7.29287 0.898499 7.57964 0.916803 7.86031 0.959513C8.40944 1.03273 8.79994 1.46594 8.91587 2.00287C8.98298 2.32625 9.18433 2.62522 9.49551 2.80826C9.68466 2.91809 9.89821 2.973 10.1057 2.973C10.2338 2.973 10.3558 2.9547 10.4778 2.91809C10.6237 2.87111 10.7744 2.84731 10.9214 2.84731C11.2729 2.84731 11.6091 2.98399 11.8324 3.27198C12.168 3.71128 12.4425 4.1933 12.6561 4.70583C12.8513 5.19395 12.7415 5.78579 12.3327 6.12137C12.0764 6.32882 11.9056 6.64 11.8812 6.99999C11.9056 7.35998 12.0764 7.67115 12.3327 7.8786C12.7415 8.21418 12.8513 8.80603 12.6561 9.29415C12.4425 9.80667 12.168 10.2887 11.8324 10.728C11.6091 11.016 11.2729 11.1527 10.9214 11.1527C10.7744 11.1527 10.6237 11.1289 10.4778 11.0819C10.3558 11.0453 10.2338 11.027 10.1057 11.027C9.89821 11.027 9.68466 11.0819 9.49551 11.1917C9.18433 11.3748 8.98298 11.6737 8.91587 11.9971C8.79994 12.534 8.40944 12.9672 7.86031 13.0405C7.57964 13.0832 7.29287 13.1015 7 13.1015C6.70713 13.1015 6.42036 13.0832 6.13969 13.0405C5.59056 12.9672 5.20006 12.534 5.08413 11.9971C5.01702 11.6737 4.81567 11.3748 4.50449 11.1917C4.31534 11.0819 4.10179 11.027 3.89434 11.027C3.76621 11.027 3.64418 11.0453 3.52215 11.0819C3.37633 11.1289 3.22623 11.1527 3.07857 11.1527C2.72713 11.1527 2.39094 11.016 2.16762 10.728C1.83204 10.2887 1.55747 9.80667 1.34392 9.29415C1.14867 8.80603 1.2585 8.21418 1.6673 7.8786C1.92356 7.67115 2.0944 7.35998 2.11881 6.99999C2.0944 6.64 1.92356 6.32882 1.6673 6.12137C1.2585 5.78579 1.14867 5.19395 1.34392 4.70583C1.55747 4.1933 1.83204 3.71128 2.16762 3.27198C2.39094 2.98399 2.72713 2.84731 3.07857 2.84731C3.22623 2.84731 3.37633 2.87111 3.52215 2.91809C3.64418 2.9547 3.76621 2.973 3.89434 2.973C4.10179 2.973 4.31534 2.91809 4.50449 2.80826C4.81567 2.62522 5.01702 2.32625 5.08413 2.00287C5.20006 1.46594 5.59056 1.03273 6.13969 0.959513ZM7.04641 9.44058C8.39432 9.44058 9.48701 8.34789 9.48701 6.99999C9.48701 5.65208 8.39432 4.55939 7.04641 4.55939C5.69851 4.55939 4.60582 5.65208 4.60582 6.99999C4.60582 8.34789 5.69851 9.44058 7.04641 9.44058Z" fill="black"/>
</svg>
