<svg width="24" height="24" fill="none" xmlns="http://www.w3.org/2000/svg"><path d="M14 21.542c4.057-1.274 7-5.064 7-9.542s-2.943-8.268-7-9.542V4.58a8.003 8.003 0 0 1 0 14.837v2.124Z" fill="#000"/><path d="M14 17.197A5.998 5.998 0 0 0 17 12c0-2.22-1.207-4.16-3-5.197v10.394Z" fill="#000"/><path fill-rule="evenodd" clip-rule="evenodd" d="M11.331 4.056A1 1 0 0 1 12 5v14a1 1 0 0 1-1.78.625L6.52 15H4a1 1 0 0 1-1-1v-4a1 1 0 0 1 1-1h2.52l3.7-4.625a1 1 0 0 1 1.111-.319ZM10 7.851l-2.22 2.774A1 1 0 0 1 7 11H5v2h2a1 1 0 0 1 .78.375L10 16.15V7.851Z" fill="#000"/></svg>