<?xml version="1.0" encoding="UTF-8"?>
<svg width="24px" height="24px" viewBox="0 0 24 24" version="1.1" xmlns="http://www.w3.org/2000/svg" xmlns:xlink="http://www.w3.org/1999/xlink">
    <!-- Generator: Sketch 46.2 (44496) - http://www.bohemiancoding.com/sketch -->
    <title>24x24_add_call_outline</title>
    <desc>Created with Sketch.</desc>
    <defs></defs>
    <g id="Page-1" stroke="none" stroke-width="1" fill="none" fill-rule="evenodd">
        <g id="24x24_add_call_outline" fill="#000000">
            <path d="M22,20 L24,20 L24,22 L22,22 L22,24 L20,24 L20,22 L18,22 L18,20 L20,20 L20,18 L22,18 L22,20 Z M20.9860845,16 L18.8144025,16 L15.5186094,14.099 C15.4586094,14.069 15.3896094,14.055 15.3186094,14.055 C15.1866094,14.055 15.0486094,14.106 14.9606094,14.198 L13.1526094,16.125 C13.0196094,16.265 12.7526094,16.384 12.5606094,16.389 L12.5576094,16.389 C12.4876094,16.389 11.2536094,16.357 8.98060939,14.122 C6.63960939,11.82 6.63060939,10.559 6.63060939,10.559 C6.62960939,10.364 6.73760939,10.089 6.87160939,9.95 L8.53760939,8.17 C8.67160939,8.03 8.71360939,7.771 8.63060939,7.595 L6.75760939,4.154 C6.70960939,4.053 6.63160939,4 6.54760939,4 C6.48560939,4 6.42060939,4.029 6.36360939,4.088 L3.29060939,7.334 C3.15660939,7.474 3.02860939,7.747 3.00660939,7.941 C3.00660939,7.941 2.61860939,11.283 7.29760939,15.883 C11.1426094,19.663 14.0436094,20 14.9546094,20 C14.9703277,20 14.9854599,19.9998992 15,19.9997135 L15,21.999821 C14.9851276,21.9999389 14.969997,22 14.9546094,22 C13.6656094,22 10.2016094,21.543 5.89560939,17.31 C0.669609393,12.172 0.968609393,8.152 1.02060939,7.71 C1.09360939,7.08 1.41060939,6.406 1.83860939,5.959 L4.91860939,2.706 C5.35460939,2.25 5.93260939,2 6.54760939,2 C7.38860939,2 8.14060939,2.468 8.53060939,3.228 L10.3876094,6.639 L10.4146094,6.69 L10.4396094,6.742 C10.8726094,7.66 10.6866094,8.815 9.99760939,9.537 L8.82560939,10.789 C9.05060939,11.186 9.50060939,11.829 10.3826094,12.696 C11.2206094,13.52 11.8446094,13.952 12.2396094,14.175 L13.5146094,12.816 C13.9766094,12.333 14.6346094,12.055 15.3186094,12.055 C15.6996094,12.055 16.0766094,12.143 16.4106094,12.31 L16.4646094,12.336 L16.5166094,12.367 L19.8166094,14.268 C20.4206094,14.599 20.8476094,15.186 20.9656094,15.855 C20.9740811,15.9032131 20.9808972,15.9515732 20.9860845,16 Z" id="Icon"></path>
        </g>
    </g>
</svg>