<?xml version="1.0" encoding="UTF-8"?>
<svg width="24px" height="24px" viewBox="0 0 24 24" version="1.1" xmlns="http://www.w3.org/2000/svg" xmlns:xlink="http://www.w3.org/1999/xlink">
    <!-- Generator: Sketch 46.1 (44463) - http://www.bohemiancoding.com/sketch -->
    <title>24x24_projects</title>
    <desc>Created with Sketch.</desc>
    <defs></defs>
    <g id="Page-1" stroke="none" stroke-width="1" fill="none" fill-rule="evenodd">
        <g id="24x24_projects" fill="#000000">
            <path d="M19,20 L15,20 L15,8 L15,5 L19,5 L19,20 Z M10,20 L14,20 L14,9 L10,9 L10,20 Z M9,20 L5,20 L5,4 L9,4 L9,8 L9,20 Z M14,4 L20,4 L20,21 L15,21 L14,21 L10,21 L9,21 L4,21 L4,3 L10,3 L10,8 L14,8 L14,4 Z M6.5,12 L7.5,12 L7.5,6 L6.5,6 L6.5,12 Z M16.5,13 L17.5,13 L17.5,7 L16.5,7 L16.5,13 Z M11.5,15 L12.5,15 L12.5,11 L11.5,11 L11.5,15 Z" id="Combined-Shape"></path>
        </g>
    </g>
</svg>