<svg width="24" height="24" fill="none" xmlns="http://www.w3.org/2000/svg"><path fill-rule="evenodd" clip-rule="evenodd" d="M4 17h8c0 .695.101 1.366.29 2H4c-2.2 0-4-1.8-4-4V7c0-2.2 1.8-4 4-4h12c2.2 0 4 1.8 4 4v3.07a7.062 7.062 0 0 0-2 0V7c0-.127-.015-.251-.038-.372a.282.282 0 0 0-.025.04.222.222 0 0 1-.036.052l-5.78 5.78a2.99 2.99 0 0 1-2.121.862 2.99 2.99 0 0 1-2.121-.862l-5.78-5.78a.21.21 0 0 1-.037-.053.297.297 0 0 0-.024-.039A1.988 1.988 0 0 0 2 7v8c0 1.103.897 2 2 2ZM16 5c.259 0 .505.053.732.143-.086.045-.172.09-.245.163l-5.78 5.78c-.363.363-1.051.363-1.414 0l-5.78-5.78a.974.974 0 0 0-.245-.162A1.96 1.96 0 0 1 4 5h12Zm2.19 8.794c-1.323 0-2.32 1.016-2.32 2.178 0 .655.232 1.262.665 1.663.413.382 1.13.691 2.35.525l.27 1.981c-1.686.23-3.042-.171-3.979-1.039-.916-.848-1.306-2.029-1.306-3.13 0-2.348 1.976-4.178 4.32-4.178 2.072 0 3.857 1.43 4.243 3.384H24l-2.516 2.383-2.516-2.383h1.381c-.333-.794-1.151-1.384-2.159-1.384Z" fill="#000"/></svg>