<svg xmlns="http://www.w3.org/2000/svg" xmlns:xlink="http://www.w3.org/1999/xlink" width="24" height="24" viewBox="0 0 24 24">
  <defs>
    <path id="24x24_feed_outline-a" d="M5,5 L5,11 L19,11 L19,5 L5,5 Z M5,3 L19,3 C20.1045695,3 21,3.8954305 21,5 L21,11 C21,12.1045695 20.1045695,13 19,13 L5,13 C3.8954305,13 3,12.1045695 3,11 L3,5 C3,3.8954305 3.8954305,3 5,3 Z M11,7 L11,9 L17,9 L17,7 L11,7 Z M11,19 L17,19 L17,21 L11,21 L11,19 Z M7,7 L9,7 L9,9 L7,9 L7,7 Z M7,19 L9,19 L9,21 L7,21 L7,19 Z M19,17 L5,17 L5,21 L3,21 L3,17 C3,15.8954305 3.8954305,15 5,15 L5,15 L19,15 C20.1045695,15 21,15.8954305 21,17 L21,21 L19,21 L19,17 Z"/>
  </defs>
  <g fill="none" fill-rule="evenodd">
    <use fill="#000" fill-rule="nonzero" xlink:href="#24x24_feed_outline-a"/>
  </g>
</svg>
