<svg width="24" height="24" viewBox="0 0 24 24" fill="none" xmlns="http://www.w3.org/2000/svg"><path fill-rule="evenodd" clip-rule="evenodd" d="M9.54369 2C9.8895 1.4022 10.5358 1 11.2761 1C12.0164 1 12.6628 1.4022 13.0086 2H13.2761C14.3807 2 15.2761 2.89543 15.2761 4V6H17.7761C18.6046 6 19.2761 6.67157 19.2761 7.5V13.9375L16.7292 11.4688C16.283 11.0364 15.7517 10.7457 15.1912 10.5961C15.036 10.245 14.6847 10 14.2761 10H8.27612C7.72384 10 7.27612 10.4477 7.27612 11C7.27612 11.5523 7.72384 12 8.27612 12H11.3813C11.0657 12.4573 10.8709 12.972 10.7962 13.5H8.27612C7.72384 13.5 7.27612 13.9477 7.27612 14.5C7.27612 15.0523 7.72384 15.5 8.27612 15.5H11.0982C11.274 15.8719 11.5184 16.219 11.8311 16.5222L12.3241 17H8.27612C7.72384 17 7.27612 17.4477 7.27612 18C7.27612 18.5523 7.72384 19 8.27612 19H14.2761C14.3118 19 14.3471 18.9981 14.3818 18.9945L16.4645 21.0132C17.2203 21.7457 18.2201 22.0713 19.1928 21.9942C18.9885 22.5798 18.4314 23 17.7761 23H4.77612C3.9477 23 3.27612 22.3284 3.27612 21.5V7.5C3.27612 6.67157 3.9477 6 4.77612 6H7.27612V4C7.27612 2.89543 8.17155 2 9.27612 2H9.54369ZM12.2761 4C12.2761 3.44772 11.8284 3 11.2761 3C10.7238 3 10.2761 3.44772 10.2761 4H9.27612V5H13.2761V4H12.2761ZM13.2896 13.5234L14.152 15.7798L18.4902 20.0786C19.0126 20.5962 19.8586 20.5829 20.3645 20.0491C20.8574 19.5289 20.8413 18.7092 20.3282 18.2089L15.8694 13.8602L13.6859 13.112C13.4704 13.0642 13.2777 13.2353 13.2802 13.4458C13.2805 13.4715 13.2835 13.4972 13.2896 13.5234Z" fill="#1A1C20"/></svg>
