<svg width="24" height="24" viewBox="0 0 24 24" fill="none" xmlns="http://www.w3.org/2000/svg"><path fill-rule="evenodd" clip-rule="evenodd" d="M11 5.828 9.879 6.95a1 1 0 0 1-1.415-1.414L12 2l3.536 3.536A1 1 0 1 1 14.12 6.95L13 5.828V9a1 1 0 0 1-2 0V5.828ZM5.828 13l1.122 1.121a1 1 0 1 1-1.414 1.415L2 12l3.536-3.536A1 1 0 1 1 6.95 9.88L5.828 11H9a1 1 0 0 1 0 2H5.828Zm12.344 0-1.122 1.121a1 1 0 1 0 1.415 1.415L22 12l-3.535-3.536A1 1 0 1 0 17.05 9.88L18.172 11H15a1 1 0 0 0 0 2h3.172ZM13 18.172l1.121-1.122a1 1 0 1 1 1.415 1.415L12 22l-3.536-3.535A1 1 0 1 1 9.88 17.05L11 18.172V15a1 1 0 0 1 2 0v3.172Z" fill="#000"/></svg>