<svg xmlns="http://www.w3.org/2000/svg" width="24" height="24" viewBox="0 0 24 24">
  <path d="M7,20 L17,20 L17,10 L7,10 L7,20 Z M19,9.73243561 L19,20 C19,21.1045695 18.1045695,22 17,22 L7,22 C5.8954305,22 5,21.1045695 5,20 L5,9.73243561 C4.40219863,9.38662619 4,8.74028236 4,8 L4,6 C4,4.8954305 4.8954305,4 6,4 L9,4 C9,2.8954305 9.8954305,2 11,2 L13,2 C14.1045695,2 15,2.8954305 15,4 L18,4 C19.1045695,4 20,4.8954305 20,6 L20,8 C20,8.74028236 19.5978014,9.38662619 19,9.73243561 L19,9.73243561 Z M11,4 L11,6 L6,6 L6,8 L18,8 L18,6 L13,6 L13,4 L11,4 Z M10,12 C10.5522847,12 11,12.4477153 11,13 L11,17 C11,17.5522847 10.5522847,18 10,18 C9.44771525,18 9,17.5522847 9,17 L9,13 C9,12.4477153 9.44771525,12 10,12 Z M14,12 C14.5522847,12 15,12.4477153 15,13 L15,17 C15,17.5522847 14.5522847,18 14,18 C13.4477153,18 13,17.5522847 13,17 L13,13 C13,12.4477153 13.4477153,12 14,12 Z"/>
</svg>
