<svg xmlns="http://www.w3.org/2000/svg" xmlns:xlink="http://www.w3.org/1999/xlink" width="24" height="24" viewBox="0 0 24 24">
  <defs>
    <path id="24x24_books_outline-a" d="M17.7292712,17.3787821 L19.5418868,16.5335455 L16.1609407,9.28308325 L14.3483251,10.1283198 L17.7292712,17.3787821 Z M21,20 L3,20 C2.44771525,20 2,19.5522847 2,19 C2,18.4477153 2.44771525,18 3,18 L3,9 C3,8.44771525 3.44771525,8 4,8 L7,8 L7,5 C7,4.44771525 7.44771525,4 8,4 L13,4 C13.5522847,4 14,4.44771525 14,5 L14,8.08399061 L16.222012,7.04784941 C16.722552,6.81444379 17.3175324,7.03099897 17.550938,7.53153894 L21.7771206,16.5946168 C22.0105263,17.0951568 21.7939711,17.6901372 21.2934311,17.9235429 L21.1153544,18.0065814 C21.6133041,18.0637753 22,18.4867288 22,19 C22,19.5522847 21.5522847,20 21,20 Z M14,18 L15.8121941,18 L14,14.1137373 L14,18 L14,18 Z M9,6 L9,18 L12,18 L12,6 L9,6 Z M5,10 L5,18 L7,18 L7,10 L5,10 Z"/>
  </defs>
  <g fill="none" fill-rule="evenodd">
    <use fill="#000" fill-rule="nonzero" xlink:href="#24x24_books_outline-a"/>
  </g>
</svg>
