<?xml version="1.0" encoding="UTF-8"?>
<svg width="24px" height="24px" viewBox="0 0 24 24" version="1.1" xmlns="http://www.w3.org/2000/svg" xmlns:xlink="http://www.w3.org/1999/xlink">
    <!-- Generator: Sketch 46.1 (44463) - http://www.bohemiancoding.com/sketch -->
    <title>24x24_contact_filled</title>
    <desc>Created with Sketch.</desc>
    <defs></defs>
    <g id="Page-1" stroke="none" stroke-width="1" fill="none" fill-rule="evenodd">
        <g id="24x24_contact_filled" fill="#000000">
            <path d="M7,21 L5,21 L5,18.5 L3,18.5 L3,17.5 L5,17.5 L5,14.5 L3,14.5 L3,13.5 L5,13.5 L5,10.5 L3,10.5 L3,9.5 L5,9.5 L5,6.5 L3,6.5 L3,5.5 L5,5.5 L5,3 L7,3 L7,21 Z M18.5,3 C19.88,3 21,4.12 21,5.5 L21,18.5 C21,19.88 19.88,21 18.5,21 L8,21 L8,3 L18.5,3 Z M17,16.25 L18,16.25 C18,14.68 17.08,13.33 15.75,12.67 C16.51,12.13 17,11.25 17,10.25 C17,8.6 15.65,7.25 14,7.25 C12.35,7.25 11,8.6 11,10.25 C11,11.25 11.49,12.13 12.25,12.67 C10.92,13.33 10,14.68 10,16.25 L11,16.25 C11,14.6 12.35,13.25 14,13.25 C15.65,13.25 17,14.6 17,16.25 Z M16,10.25 C16,11.35 15.1,12.25 14,12.25 C12.9,12.25 12,11.35 12,10.25 C12,9.15 12.9,8.25 14,8.25 C15.1,8.25 16,9.15 16,10.25 Z" id="Combined-Shape"></path>
        </g>
    </g>
</svg>