<svg xmlns="http://www.w3.org/2000/svg" width="24" height="24" viewBox="0 0 24 24">
  <path d="M9,21 L9,16 L11,16 L11,21 L13,21 L13,14 L15,14 L15,21 L17,21 L17,19 L19,19 L19,21 L21,21 L21,17 L17,17 L17,12 L11,12 L11,14 L9,14 L9,10 L3,10 L3,21 L5,21 L5,12.1818182 L7,12.1818182 L7,21 L9,21 Z M18.4209894,9.23781307 L14.1246559,6.18587101 L12.3016172,8.08750456 C11.6308616,8.78717781 10.5549522,8.90518731 9.74848307,8.36754123 L4.44540608,4.83215657 C3.98587739,4.52580411 3.86170352,3.90493477 4.16805598,3.44540608 C4.47440844,2.98587739 5.09527778,2.86170352 5.55480647,3.16805598 L10.8578835,6.70344064 L12.6809221,4.80180708 C13.3672022,4.0859401 14.474421,3.98107845 15.2828895,4.5553819 L19.5792231,7.60732396 C20.0294703,7.92716136 20.1351882,8.55143822 19.8153508,9.00168536 C19.4955134,9.45193249 18.8712366,9.55765047 18.4209894,9.23781307 Z"/>
</svg>
