<svg xmlns="http://www.w3.org/2000/svg" xmlns:xlink="http://www.w3.org/1999/xlink" width="24" height="24" viewBox="0 0 24 24">
  <defs>
    <path id="24x24_stats_outline-a" d="M13,15.5 L13,13 L11,13 L11,18 L9,18 L9,14.5 L9,11 L7,11 L7,18 L5,18 L5,9 L11,9 L11,11 L13,11 L13,4 L19,4 L19,18 L17,18 L17,6.18181818 L15,6.18181818 L15,18 L13,18 L13,15.5 Z M3,18 L21,18 C21.5522847,18 22,18.4477153 22,19 C22,19.5522847 21.5522847,20 21,20 L3,20 C2.44771525,20 2,19.5522847 2,19 C2,18.4477153 2.44771525,18 3,18 L3,18 Z"/>
  </defs>
  <g fill="none" fill-rule="evenodd">
    <use fill="#000" fill-rule="nonzero" xlink:href="#24x24_stats_outline-a"/>
  </g>
</svg>
