<svg width="24" height="24" viewBox="0 0 24 24" fill="none" xmlns="http://www.w3.org/2000/svg"><path fill-rule="evenodd" clip-rule="evenodd" d="M21.83 5.431c.34.344.586.771.71 1.239C23 8.398 23 12 23 12s0 3.602-.46 5.33a2.765 2.765 0 0 1-1.945 1.958c-1.72.462-8.595.462-8.595.462s-6.875 0-8.595-.462A2.765 2.765 0 0 1 1.46 17.33C1 15.603 1 12 1 12s0-3.602.46-5.33a2.765 2.765 0 0 1 1.945-1.957C5.125 4.25 12 4.25 12 4.25s6.875 0 8.595.463c.467.127.893.375 1.234.718ZM15.5 12 9.75 8.729v6.542L15.5 12Z" fill="#000"/></svg>