<svg width="24" height="24" viewBox="0 0 24 24" fill="none" xmlns="http://www.w3.org/2000/svg"><path fill-rule="evenodd" clip-rule="evenodd" d="M17 9V7h1a3 3 0 0 1 3 3v8a3 3 0 0 1-3 3H6a3 3 0 0 1-3-3v-8a3 3 0 0 1 3-3h1v2H6a1 1 0 0 0-1 1v8a1 1 0 0 0 1 1h12a1 1 0 0 0 1-1v-8a1 1 0 0 0-1-1h-1Zm-3.955 2.047 1.171-1.157a1.054 1.054 0 0 1 1.478 0 1.024 1.024 0 0 1 0 1.46L12 15l-3.694-3.65a1.024 1.024 0 0 1 0-1.46 1.054 1.054 0 0 1 1.478 0l1.171 1.157V3.032C10.955 2.462 11.423 2 12 2s1.045.462 1.045 1.032v8.015Z" fill="#000"/></svg>