<svg xmlns="http://www.w3.org/2000/svg" width="24" height="24" viewBox="0 0 24 24">
  <path d="M19.6197953,8.20835007 C20.494141,9.59583558 21,11.2388429 21,13 C21,17.9705627 16.9705627,22 12,22 C7.02943725,22 3,17.9705627 3,13 C3,9.05870117 5.53344805,5.70912084 9.06069225,4.49091092 C9.02105563,4.33384152 9,4.16937966 9,4 C9,2.8954305 9.8954305,2 11,2 L13,2 C14.1045695,2 15,2.8954305 15,4 C15,4.16937966 14.9789444,4.33384152 14.9393077,4.49091092 C15.5943116,4.71713063 16.2150454,5.01684834 16.7916499,5.38020473 C16.7979286,5.37373841 16.8042654,5.36730752 16.8106602,5.3609127 C17.514893,4.65667991 18.6566799,4.65667991 19.3609127,5.3609127 L19.6390873,5.6390873 C20.3433201,6.34332009 20.3433201,7.48510704 19.6390873,8.18933983 C19.6326925,8.19573464 19.6262616,8.20207139 19.6197953,8.20835007 Z M11,11.2675644 C10.4021986,11.6133738 10,12.2597176 10,13 C10,14.1045695 10.8954305,15 12,15 C13.1045695,15 14,14.1045695 14,13 C14,12.2597176 13.5978014,11.6133738 13,11.2675644 L13,9 C13,8.44771525 12.5522847,8 12,8 C11.4477153,8 11,8.44771525 11,9 L11,11.2675644 L11,11.2675644 Z"/>
</svg>
