<svg xmlns="http://www.w3.org/2000/svg" width="24" height="24" viewBox="0 0 24 24">
  <path d="M22,14.3414114 C21.3744421,14.1203084 20.7012708,14 20,14 C18.7732623,14 17.6325112,14.3681527 16.6822049,15 L8,15 L8,17 L14.8026932,17 C14.4513404,17.6073842 14.2034032,18.2820765 14.0829584,19 L6,19 L6,11 L2,11 L2,5 L18,5 L18,9 L22,9 L22,14.3414114 Z M4,7 L4,9 L16,9 L16,7 L4,7 Z M8,13 L20,13 L20,11 L8,11 L8,13 Z M21,19 L23,19 C23.5522847,19 24,19.4477153 24,20 C24,20.5522847 23.5522847,21 23,21 L21,21 L21,23 C21,23.5522847 20.5522847,24 20,24 C19.4477153,24 19,23.5522847 19,23 L19,21 L17,21 C16.4477153,21 16,20.5522847 16,20 C16,19.4477153 16.4477153,19 17,19 L19,19 L19,17 C19,16.4477153 19.4477153,16 20,16 C20.5522847,16 21,16.4477153 21,17 L21,19 Z"/>
</svg>
