<svg width="24" height="24" fill="none" xmlns="http://www.w3.org/2000/svg"><path fill-rule="evenodd" clip-rule="evenodd" d="M8.842 13.044c.088-1.347.634-2.446 1.704-3.259a4.253 4.253 0 0 1 5.917.772c.137.176.232.226.46.136 2.268-.901 4.737.756 4.78 3.196.002.085 0 .17 0 .27.136.032.263.058.389.091 1.209.313 2.034 1.506 1.892 2.735-.148 1.28-1.207 2.278-2.477 2.28-4.368.01-8.736.012-13.104 0-1.608-.005-2.936-1.325-3.022-2.95A3.103 3.103 0 0 1 8.053 13.1c.253-.033.51-.037.789-.056Z" fill="#000"/><path fill-rule="evenodd" clip-rule="evenodd" d="M5.113 18.457c-.89-.051-1.799-.005-2.665-.177-1.524-.3-2.533-1.762-2.442-3.337.087-1.508 1.275-2.781 2.785-2.984.092-.013.184-.032.287-.05-.292-1.548.119-2.855 1.37-3.808 1.254-.956 2.626-.991 4.056-.298.745-1.358 1.858-2.276 3.383-2.652a4.995 4.995 0 0 1 3.001.179c1.806.673 3.277 2.554 3.28 4.19-.388.07-.775.15-1.166.199-.073.01-.172-.095-.242-.164a5.13 5.13 0 0 0-7.325.05 4.98 4.98 0 0 0-1.315 2.36c-.042.175-.113.249-.29.28-2.772.499-4.174 3.478-2.791 5.922.036.064.07.13.104.194l-.03.096Z" fill="#000"/></svg>