<?xml version="1.0" encoding="UTF-8"?>
<svg width="24px" height="24px" viewBox="0 0 24 24" version="1.1" xmlns="http://www.w3.org/2000/svg" xmlns:xlink="http://www.w3.org/1999/xlink">
    <!-- Generator: Sketch 46.2 (44496) - http://www.bohemiancoding.com/sketch -->
    <title>24x24_ticket_outline</title>
    <desc>Created with Sketch.</desc>
    <defs></defs>
    <g id="Page-1" stroke="none" stroke-width="1" fill="none" fill-rule="evenodd">
        <g id="24x24_ticket_outline" fill-rule="nonzero" fill="#000000">
            <path d="M12.3789,3.4769 L3.4569,12.3829 C3.1619,12.6769 2.9999,13.0689 2.9999,13.4869 C2.9999,13.9119 3.1669,14.3129 3.4689,14.6139 L9.3829,20.5179 C10.0039,21.1369 11.0079,21.1429 11.6219,20.5299 L20.5439,11.6249 C20.8359,11.3329 21.0019,10.9299 20.9999,10.5179 L20.9999,5.3629 C20.9999,4.7339 20.7549,4.1439 20.3109,3.6999 C19.8669,3.2569 19.2769,3.0129 18.6499,3.0129 L13.4919,3.0209 C13.0709,3.0209 12.6689,3.1869 12.3789,3.4769 Z M13.4849,1.0209 L18.6469,1.0129 C19.8066014,1.0129 20.9046112,1.46703022 21.7251136,2.28568644 C22.5443874,3.10496025 22.9999,4.20375034 22.9999,5.3629 L22.9998764,10.5081914 C23.0044693,11.4543255 22.6273242,12.3699029 21.9567643,13.0404615 L13.0349605,21.9452657 C11.6370388,23.3409107 9.36940474,23.3283244 7.9698836,21.9333097 L2.05703368,16.0304569 C1.37890021,15.3545689 0.9999,14.444015 0.9999,13.4869 C0.9999,12.5379319 1.3730878,11.6360112 2.04395621,10.9674178 L10.9646864,2.06268644 C11.6306811,1.39669176 12.5417647,1.0209 13.4849,1.0209 Z M16.275177,5.7339 C15.5657416,5.7339 14.9327899,6.09838883 14.5571111,6.71492478 C14.1818621,7.32896926 14.1818621,8.13883074 14.5575594,8.75360977 C14.9327899,9.36941117 15.5657416,9.7339 16.275177,9.7339 C16.9834619,9.7339 17.6158385,9.37058912 17.9932783,8.75632881 C18.3697394,8.13826312 18.3697394,7.32882961 17.9941275,6.71419023 C17.6165949,6.09782156 16.984091,5.7339 16.275177,5.7339 Z" id="Icon"></path>
        </g>
    </g>
</svg>