<svg xmlns="http://www.w3.org/2000/svg" width="24" height="24" viewBox="0 0 24 24">
  <path d="M10,20 C10,21.1045695 10.8954305,22 12,22 C13.1045695,22 14,21.1045695 14,20 L10,20 Z M10.0273967,4.33180314 C7.68271203,5.14769073 6,7.37733614 6,10 L5.98976356,13 L4,17 C4,18.1045695 4.8954305,19 6,19 L18,19 C18.2878369,19 18.5717208,18.9329841 18.8291699,18.8042595 C19.7450456,18.3463217 20.1162776,17.2326257 19.6583679,16.3167358 L18,13 L18,10 C18,7.37733614 16.317288,5.14769073 13.9726033,4.33180314 C13.9906226,4.22388264 14,4.11303643 14,4 C14,2.8954305 13.1045695,2 12,2 C10.8954305,2 10,2.8954305 10,4 C10,4.11303643 10.0093774,4.22388264 10.0273967,4.33180314 Z"/>
</svg>
