<svg xmlns="http://www.w3.org/2000/svg" xmlns:xlink="http://www.w3.org/1999/xlink" width="24" height="24" viewBox="0 0 24 24">
  <defs>
    <path id="24x24_shop_outline-a" d="M15,19 L18,19 L18,13 L6,13 L6,19 L9,19 L9,15 L15,15 L15,19 Z M13,19 L13,17 L11,17 L11,19 L13,19 Z M4,11 L20,11 L20,21 L4,21 L4,11 Z M4,3 L20,3 C20.5522847,3 21,3.44771525 21,4 L21,10 C21,11.6568542 19.6568542,13 18,13 C17.2316456,13 16.5307565,12.7111464 16,12.2361065 C15.4692435,12.7111464 14.7683544,13 14,13 C13.2316456,13 12.5307565,12.7111464 12,12.2361065 C11.4692435,12.7111464 10.7683544,13 10,13 C9.23164556,13 8.53075649,12.7111464 8,12.2361065 C7.46924351,12.7111464 6.76835444,13 6,13 C4.34314575,13 3,11.6568542 3,10 L3,4 C3,3.44771525 3.44771525,3 4,3 Z M5,10 C5,10.5522847 5.44771525,11 6,11 C6.55228475,11 7,10.5522847 7,10 L7,5 L5,5 L5,10 Z M9,10 C9,10.5522847 9.44771525,11 10,11 C10.5522847,11 11,10.5522847 11,10 L11,5 L9,5 L9,10 Z M13,10 C13,10.5522847 13.4477153,11 14,11 C14.5522847,11 15,10.5522847 15,10 L15,5 L13,5 L13,10 Z M17,5 L17,10 C17,10.5522847 17.4477153,11 18,11 C18.5522847,11 19,10.5522847 19,10 L19,5 L17,5 Z"/>
  </defs>
  <g fill="none" fill-rule="evenodd">
    <use fill="#000" fill-rule="nonzero" xlink:href="#24x24_shop_outline-a"/>
  </g>
</svg>
