<svg xmlns="http://www.w3.org/2000/svg" width="24" height="24" viewBox="0 0 24 24">
  <path d="M6,5 C5.44771525,5 5,5.44771525 5,6 L5,18 C5,18.5522847 5.44771525,19 6,19 L18,19 C18.5522847,19 19,18.5522847 19,18 L19,6 C19,5.44771525 18.5522847,5 18,5 L6,5 Z M6,3 L18,3 C19.6568542,3 21,4.34314575 21,6 L21,18 C21,19.6568542 19.6568542,21 18,21 L6,21 C4.34314575,21 3,19.6568542 3,18 L3,6 C3,4.34314575 4.34314575,3 6,3 Z M10.85725,15.7765003 L7.29325,12.2125003 C6.90225,11.8215003 6.90225,11.1895003 7.29325,10.7985003 C7.68425,10.4075003 8.31625,10.4075003 8.70725,10.7985003 L10.85725,12.9485003 L15.29325,8.51250027 C15.68425,8.12250027 16.31625,8.12250027 16.70725,8.51250027 C17.09825,8.90350027 17.09825,9.53650027 16.70725,9.92650027 L10.85725,15.7765003 Z"/>
</svg>
