<svg xmlns="http://www.w3.org/2000/svg" xmlns:xlink="http://www.w3.org/1999/xlink" width="24" height="24" viewBox="0 0 24 24">
  <defs>
    <path id="24x24_timer_outline-a" d="M12,20 C15.8659932,20 19,16.8659932 19,13 C19,9.13400675 15.8659932,6 12,6 C8.13400675,6 5,9.13400675 5,13 C5,16.8659932 8.13400675,20 12,20 Z M12,22 C7.02943725,22 3,17.9705627 3,13 C3,8.02943725 7.02943725,4 12,4 C16.9705627,4 21,8.02943725 21,13 C21,17.9705627 16.9705627,22 12,22 Z M11,2 L13,2 C14.1045695,2 15,2.8954305 15,4 C15,5.1045695 14.1045695,6 13,6 L11,6 C9.8954305,6 9,5.1045695 9,4 C9,2.8954305 9.8954305,2 11,2 Z M19.3609127,5.3609127 L19.6390873,5.6390873 C20.3433201,6.34332009 20.3433201,7.48510704 19.6390873,8.18933983 C18.9348545,8.89357262 17.7930676,8.89357262 17.0888348,8.18933983 L16.8106602,7.91116524 C16.1064274,7.20693244 16.1064274,6.06514549 16.8106602,5.3609127 C17.514893,4.65667991 18.6566799,4.65667991 19.3609127,5.3609127 Z M11,11.2675644 L11,9 C11,8.44771525 11.4477153,8 12,8 C12.5522847,8 13,8.44771525 13,9 L13,11.2675644 C13.5978014,11.6133738 14,12.2597176 14,13 C14,14.1045695 13.1045695,15 12,15 C10.8954305,15 10,14.1045695 10,13 C10,12.2597176 10.4021986,11.6133738 11,11.2675644 L11,11.2675644 Z"/>
  </defs>
  <g fill="none" fill-rule="evenodd">
    <use fill="#000" fill-rule="nonzero" xlink:href="#24x24_timer_outline-a"/>
  </g>
</svg>
