<svg xmlns="http://www.w3.org/2000/svg" width="24" height="24" viewBox="0 0 24 24">
  <path fill-rule="evenodd" d="M13,11.4226497 L16.830127,13.6339746 C17.308173,13.9099746 17.4721524,14.521954 17.1961524,15 C16.9201524,15.478046 16.308173,15.6420254 15.830127,15.3660254 L11.509667,12.8716066 C11.3559711,12.7849072 11.2274619,12.6587312 11.1379317,12.5068708 C11.043253,12.339672 10.998236,12.1652918 11,11.9888375 L11,7 C11,6.448 11.448,6 12,6 C12.552,6 13,6.448 13,7 L13,11.4226497 Z M12,2 C17.5229861,2 22,6.47701386 22,12 C22,17.5229861 17.5229861,22 12,22 C6.47701386,22 2,17.5229861 2,12 C2,6.47701386 6.47701386,2 12,2 Z M12,4 C7.58158644,4 4,7.58158644 4,12 C4,16.4184136 7.58158644,20 12,20 C16.4184136,20 20,16.4184136 20,12 C20,7.58158644 16.4184136,4 12,4 Z"/>
</svg>
