<?xml version="1.0" encoding="UTF-8"?>
<svg width="24px" height="24px" viewBox="0 0 24 24" version="1.1" xmlns="http://www.w3.org/2000/svg" xmlns:xlink="http://www.w3.org/1999/xlink">
    <!-- Generator: Sketch 46.1 (44463) - http://www.bohemiancoding.com/sketch -->
    <title>24x24_euro</title>
    <desc>Created with Sketch.</desc>
    <defs></defs>
    <g id="Page-1" stroke="none" stroke-width="1" fill="none" fill-rule="evenodd">
        <g id="24x24_euro" fill="#000000">
            <path d="M11.0811,18.9106 C10.1871,18.5326 9.3851,17.9926 8.6971,17.3036 C8.0291,16.6366 7.5041,15.8606 7.1281,14.9996 L12.9991,14.9996 L12.9991,13.9996 L6.7771,13.9996 C6.5981,13.3526 6.5001,12.6846 6.5001,11.9996 C6.5001,11.6616 6.5301,11.3296 6.5741,10.9996 L12.9991,10.9996 L12.9991,9.9996 L6.7771,9.9996 C6.8631,9.6886 6.9621,9.3806 7.0891,9.0806 C7.4671,8.1876 8.0081,7.3856 8.6971,6.6966 C9.3851,6.0076 10.1871,5.4676 11.0811,5.0896 C12.9291,4.3066 15.0711,4.3066 16.9191,5.0896 L17.3091,4.1686 C15.2141,3.2816 12.7861,3.2816 10.6911,4.1686 C9.6791,4.5966 8.7691,5.2096 7.9901,5.9896 C7.2091,6.7696 6.5971,7.6786 6.1681,8.6916 C5.9881,9.1166 5.8541,9.5556 5.7471,9.9996 L3.9991,9.9996 L3.9991,10.9996 L5.5641,10.9996 C5.5251,11.3296 5.5001,11.6626 5.5001,11.9996 C5.5001,12.6816 5.5891,13.3486 5.7471,13.9996 L3.9991,13.9996 L3.9991,14.9996 L6.0561,14.9996 C6.0951,15.1026 6.1251,15.2066 6.1681,15.3086 C6.5971,16.3216 7.2091,17.2306 7.9901,18.0106 C8.7691,18.7906 9.6791,19.4036 10.6911,19.8316 C11.7391,20.2746 12.8521,20.4996 14.0001,20.4996 C15.1481,20.4996 16.2611,20.2746 17.3091,19.8316 L16.9191,18.9106 C15.0711,19.6926 12.9291,19.6926 11.0811,18.9106" id="Fill-2"></path>
        </g>
    </g>
</svg>