<svg width="24" height="24" viewBox="0 0 24 24" fill="none" xmlns="http://www.w3.org/2000/svg"><path fill-rule="evenodd" clip-rule="evenodd" d="M9.76756 2.5C10.1134 1.9022 10.7597 1.5 11.5 1.5C12.2403 1.5 12.8866 1.9022 13.2324 2.5H13.5C14.6046 2.5 15.5 3.39543 15.5 4.5V6.5C15.5 7.05228 15.0523 7.5 14.5 7.5H8.5C7.94772 7.5 7.5 7.05228 7.5 6.5V4.5C7.5 3.39543 8.39543 2.5 9.5 2.5H9.76756ZM12.5 4.5C12.5 3.94772 12.0523 3.5 11.5 3.5C10.9477 3.5 10.5 3.94772 10.5 4.5H9.5V5.5H13.5V4.5H12.5Z" fill="#1A1C20"/><path d="M4.5 5.5C5.05228 5.5 5.5 5.94772 5.5 6.5V20.5H16.5503L17.0251 20.9749C17.5508 21.5005 18.2021 21.824 18.8823 21.9454C18.5232 22.2889 18.0363 22.5 17.5 22.5H5.5C4.39543 22.5 3.5 21.6046 3.5 20.5V6.5C3.5 5.94772 3.94772 5.5 4.5 5.5Z" fill="#1A1C20"/><path d="M19.5 13.5503V6.5C19.5 5.94772 19.0523 5.5 18.5 5.5C17.9477 5.5 17.5 5.94772 17.5 6.5V11.5503L19.5 13.5503Z" fill="#1A1C20"/><path d="M15.4271 10.1244C15.2786 9.75823 14.9194 9.5 14.5 9.5H8.5C7.94772 9.5 7.5 9.94772 7.5 10.5C7.5 11.0523 7.94772 11.5 8.5 11.5H11.627C11.7435 11.3331 11.8762 11.1741 12.0251 11.0251C12.9466 10.1037 14.2541 9.8034 15.4271 10.1244Z" fill="#1A1C20"/><path d="M11.0357 13H8.5C7.94772 13 7.5 13.4477 7.5 14C7.5 14.5523 7.94772 15 8.5 15H11.3367C11.0391 14.3725 10.9388 13.6748 11.0357 13Z" fill="#1A1C20"/><path d="M12.5503 16.5H8.5C7.94772 16.5 7.5 16.9477 7.5 17.5C7.5 18.0523 7.94772 18.5 8.5 18.5H14.5C14.5165 18.5 14.5328 18.4996 14.5491 18.4988L12.5503 16.5Z" fill="#1A1C20"/><path fill-rule="evenodd" clip-rule="evenodd" d="M16.2242 13.2758L21.0962 18.1478C21.3656 18.4165 21.4999 18.7692 21.4999 19.122C21.4999 19.4748 21.3656 19.8268 21.0962 20.0962C20.8268 20.3656 20.4747 20.5 20.1219 20.5C19.7691 20.5 19.4164 20.3656 19.1477 20.0962L14.2757 15.2243L13.5175 12.9497C13.4942 12.8796 13.4942 12.8038 13.5175 12.7337C13.5772 12.5547 13.7706 12.458 13.9496 12.5176L16.2242 13.2758Z" fill="#1A1C20"/></svg>
