<svg xmlns="http://www.w3.org/2000/svg" xmlns:xlink="http://www.w3.org/1999/xlink" width="24" height="24" viewBox="0 0 24 24">
  <defs>
    <path id="24x24_marker_outline-a" d="M18,10 C18,6.6862915 15.3137085,4 12,4 C8.6862915,4 6,6.6862915 6,10 C6,12.6869129 7.68290401,15.5388439 12,19.3645989 C16.317096,15.5388439 18,12.6869129 18,10 Z M12,22 C6,17 4,13.418278 4,10 C4,5.581722 7.581722,2 12,2 C16.418278,2 20,5.581722 20,10 C20,13.418278 18,17 12,22 Z M12,12 C13.1045695,12 14,11.1045695 14,10 C14,8.8954305 13.1045695,8 12,8 C10.8954305,8 10,8.8954305 10,10 C10,11.1045695 10.8954305,12 12,12 Z"/>
  </defs>
  <g fill="none" fill-rule="evenodd">
    <use fill="#000" fill-rule="nonzero" xlink:href="#24x24_marker_outline-a"/>
  </g>
</svg>
