<svg width="24" height="24" fill="none" xmlns="http://www.w3.org/2000/svg"><path fill-rule="evenodd" clip-rule="evenodd" d="M20 16c0 1.103-.897 2-2 2H6c-1.103 0-2-.897-2-2V8c0-.127.015-.251.038-.372.023.03.033.065.061.092l5.78 5.78a2.99 2.99 0 0 0 2.121.862 2.99 2.99 0 0 0 2.121-.862l5.78-5.78c.028-.028.038-.063.061-.092.023.121.038.245.038.372v8ZM18 6c.259 0 .505.053.732.143-.086.045-.172.09-.245.163l-5.78 5.78c-.363.363-1.051.363-1.414 0l-5.78-5.78c-.073-.072-.159-.117-.245-.162A1.96 1.96 0 0 1 6 6h12ZM6 4C3.8 4 2 5.8 2 8v8c0 2.2 1.8 4 4 4h12c2.2 0 4-1.8 4-4V8c0-2.2-1.8-4-4-4H6Z" fill="#000"/></svg>