<svg width="24" height="24" viewBox="0 0 24 24" fill="none" xmlns="http://www.w3.org/2000/svg"><path d="M11.014 2.1c.46-.07.93-.1 1.41-.1.48 0 .95.03 1.41.1.9.12 1.54.83 1.73 1.71.11.53.44 1.02.95 1.32.31.18.66.27 1 .27.21 0 .41-.03.61-.09a2.38 2.38 0 0 1 .727-.116c.576 0 1.127.224 1.493.696.55.72 1 1.51 1.35 2.35.32.8.14 1.77-.53 2.32-.42.34-.7.85-.74 1.44.04.59.32 1.1.74 1.44.67.55.85 1.52.53 2.32-.35.84-.8 1.63-1.35 2.35-.366.472-.917.696-1.493.696a2.38 2.38 0 0 1-.727-.116c-.2-.06-.4-.09-.61-.09-.34 0-.69.09-1 .27-.51.3-.84.79-.95 1.32-.19.88-.83 1.59-1.73 1.71-.46.07-.93.1-1.41.1-.48 0-.95-.03-1.41-.1-.9-.12-1.54-.83-1.73-1.71-.11-.53-.44-1.02-.95-1.32-.31-.18-.66-.27-1-.27-.21 0-.41.03-.61.09a2.375 2.375 0 0 1-.727.116c-.576 0-1.127-.224-1.493-.696-.55-.72-1-1.51-1.35-2.35-.32-.8-.14-1.77.53-2.32.42-.34.7-.85.74-1.44-.04-.59-.32-1.1-.74-1.44-.67-.55-.85-1.52-.53-2.32.35-.84.8-1.63 1.35-2.35.366-.472.917-.696 1.493-.696.242 0 .488.039.727.116.2.06.4.09.61.09.34 0 .69-.09 1-.27.51-.3.84-.79.95-1.32.19-.88.83-1.59 1.73-1.71ZM12.5 16a4 4 0 1 0 0-8 4 4 0 0 0 0 8Z" fill="#000"/></svg>