<svg xmlns="http://www.w3.org/2000/svg" width="24" height="24" viewBox="0 0 24 24">
  <path fill-rule="evenodd" d="M11,5 L20,5 C20.5522847,5 21,5.44771525 21,6 C21,6.55228475 20.5522847,7 20,7 L11,7 C10.4477153,7 10,6.55228475 10,6 C10,5.44771525 10.4477153,5 11,5 Z M11,17 L20,17 C20.5522847,17 21,17.4477153 21,18 C21,18.5522847 20.5522847,19 20,19 L11,19 C10.4477153,19 10,18.5522847 10,18 C10,17.4477153 10.4477153,17 11,17 Z M11,11 L20,11 C20.5522847,11 21,11.4477153 21,12 C21,12.5522847 20.5522847,13 20,13 L11,13 C10.4477153,13 10,12.5522847 10,12 C10,11.4477153 10.4477153,11 11,11 Z M4.5,4 C4.22385763,4 4,3.77614237 4,3.5 C4,3.22385763 4.22385763,3 4.5,3 L6,3 C6.55228475,3 7,3.44771525 7,4 L7,6.5 C7,6.77614237 7.22385763,7 7.5,7 C7.77614237,7 8,7.22385763 8,7.5 C8,7.77614237 7.77614237,8 7.5,8 L4.5,8 C4.22385763,8 4,7.77614237 4,7.5 C4,7.22385763 4.22385763,7 4.5,7 C4.77614237,7 5,6.77614237 5,6.5 L5,4.5 C5,4.22385763 4.77614237,4 4.5,4 Z M4,13 L4,12.4142136 C4,12.1489971 4.10535684,11.8946432 4.29289322,11.7071068 L6,10 L4.5,10 C4.22385763,10 4,9.77614237 4,9.5 C4,9.22385763 4.22385763,9 4.5,9 L7,9 C7.55228475,9 8,9.44771525 8,10 L8,10.5857864 C8,10.8510029 7.89464316,11.1053568 7.70710678,11.2928932 L6,13 L7.5,13 C7.77614237,13 8,13.2238576 8,13.5 C8,13.7761424 7.77614237,14 7.5,14 L5,14 C4.44771525,14 4,13.5522847 4,13 Z M4,19.5 C4,19.2238576 4.22385763,19 4.5,19 L5.5,19 C5.77614237,19 6,18.7761424 6,18.5 C6,18.2238576 5.77614237,18 5.5,18 L4.5,18 C4.22385763,18 4,17.7761424 4,17.5 C4,17.2238576 4.22385763,17 4.5,17 L5.5,17 C5.77614237,17 6,16.7761424 6,16.5 C6,16.2238576 5.77614237,16 5.5,16 L4.5,16 C4.22385763,16 4,15.7761424 4,15.5 C4,15.2238576 4.22385763,15 4.5,15 L7,15 C7.55228475,15 8,15.4477153 8,16 L8,19 C8,19.5522847 7.55228475,20 7,20 L4.5,20 C4.22385763,20 4,19.7761424 4,19.5 Z"/>
</svg>
