<svg width="24" height="24" viewBox="0 0 24 24" fill="none" xmlns="http://www.w3.org/2000/svg"><path fill-rule="evenodd" clip-rule="evenodd" d="M14 17h2v1a3 3 0 0 1-3 3H5a3 3 0 0 1-3-3V6a3 3 0 0 1 3-3h8a3 3 0 0 1 3 3v1h-2V6a1 1 0 0 0-1-1H5a1 1 0 0 0-1 1v12a1 1 0 0 0 1 1h8a1 1 0 0 0 1-1v-1Zm4.047-6.045L16.89 9.784a1.054 1.054 0 0 1 0-1.478 1.024 1.024 0 0 1 1.46 0L22 12l-3.65 3.694a1.024 1.024 0 0 1-1.46 0 1.054 1.054 0 0 1 0-1.478l1.157-1.171h-7.014c-.57 0-1.033-.468-1.033-1.045s.462-1.045 1.033-1.045h7.014Z" fill="#000"/></svg>