<?xml version="1.0" encoding="UTF-8"?>
<svg width="24px" height="24px" viewBox="0 0 24 24" version="1.1" xmlns="http://www.w3.org/2000/svg" xmlns:xlink="http://www.w3.org/1999/xlink">
    <!-- Generator: Sketch 46.2 (44496) - http://www.bohemiancoding.com/sketch -->
    <title>24x24_phone_outline</title>
    <desc>Created with Sketch.</desc>
    <defs></defs>
    <g id="Page-1" stroke="none" stroke-width="1" fill="none" fill-rule="evenodd">
        <g id="24x24_phone_outline" fill="#000000">
            <path d="M7.54760939,2 L7.54760939,2 C6.93260939,2 6.35460939,2.25 5.91860939,2.706 L2.83860939,5.959 C2.41060939,6.406 2.09360939,7.08 2.02060939,7.71 C1.96860939,8.152 1.66960939,12.172 6.89560939,17.31 C11.2016094,21.543 14.6656094,22 15.9546094,22 C16.2596094,22 16.4636094,21.976 16.5586094,21.961 C17.1886094,21.865 17.8526094,21.519 18.2926094,21.058 L21.3696094,17.802 C21.8626094,17.286 22.0886094,16.555 21.9656094,15.855 C21.8476094,15.186 21.4206094,14.599 20.8166094,14.268 L17.5166094,12.367 L17.4646094,12.336 L17.4106094,12.31 C17.0766094,12.143 16.6996094,12.055 16.3186094,12.055 C15.6346094,12.055 14.9766094,12.333 14.5146094,12.816 L13.2396094,14.175 C12.8446094,13.952 12.2206094,13.52 11.3826094,12.696 C10.5006094,11.829 10.0506094,11.186 9.82560939,10.789 L10.9976094,9.537 C11.6866094,8.815 11.8726094,7.66 11.4396094,6.742 L11.4146094,6.69 L11.3876094,6.639 L9.53060939,3.228 C9.14060939,2.468 8.38860939,2 7.54760939,2 M7.54760939,4 C7.63160939,4 7.70960939,4.053 7.75760939,4.154 L9.63060939,7.595 C9.71360939,7.771 9.67160939,8.03 9.53760939,8.17 L7.87160939,9.95 C7.73760939,10.089 7.62960939,10.364 7.63060939,10.559 C7.63060939,10.559 7.63960939,11.82 9.98060939,14.122 C12.2536094,16.357 13.4876094,16.389 13.5576094,16.389 L13.5606094,16.389 C13.7526094,16.384 14.0196094,16.265 14.1526094,16.125 L15.9606094,14.198 C16.0486094,14.106 16.1866094,14.055 16.3186094,14.055 C16.3896094,14.055 16.4586094,14.069 16.5186094,14.099 L19.8456094,16.018 C20.0186094,16.103 20.0496094,16.288 19.9156094,16.428 L16.8466094,19.677 C16.7126094,19.817 16.4476094,19.955 16.2576094,19.984 C16.2576094,19.984 16.1526094,20 15.9546094,20 C15.0436094,20 12.1426094,19.663 8.29760939,15.883 C3.61860939,11.283 4.00660939,7.941 4.00660939,7.941 C4.02860939,7.747 4.15660939,7.474 4.29060939,7.334 L7.36360939,4.088 C7.42060939,4.029 7.48560939,4 7.54760939,4" id="Icon"></path>
        </g>
    </g>
</svg>