<svg width="24" height="24" fill="none" xmlns="http://www.w3.org/2000/svg"><path fill-rule="evenodd" clip-rule="evenodd" d="M10 14v-3h1a1 1 0 1 0 0-2h-1V4h10c1.63 0 3 1.2 3 2.75v11.5C23 19.8 21.63 21 20 21H10v-5h1a1 1 0 1 0 0-2h-1Zm7-5a2 2 0 1 0 0 4 2 2 0 0 0 0-4Zm-3 8h6a3 3 0 1 0-6 0Zm-7 4H3.385C2.009 21 1 19.724 1 18.25V6.75C1 5.276 2.01 4 3.385 4H7V2a1 1 0 0 1 2 0v20a1 1 0 1 1-2 0v-1Zm0-5H6a1 1 0 1 1 0-2h1v-3H6a1 1 0 1 1 0-2h1V6H3.5a.5.5 0 0 0-.5.5v12a.5.5 0 0 0 .5.5H7v-3Z" fill="#000"/></svg>