<?xml version="1.0" encoding="UTF-8"?>
<svg width="24px" height="24px" viewBox="0 0 24 24" version="1.1" xmlns="http://www.w3.org/2000/svg" xmlns:xlink="http://www.w3.org/1999/xlink">
    <!-- Generator: Sketch 46.2 (44496) - http://www.bohemiancoding.com/sketch -->
    <title>24x24_idea_filled</title>
    <desc>Created with Sketch.</desc>
    <defs></defs>
    <g id="Page-1" stroke="none" stroke-width="1" fill="none" fill-rule="evenodd">
        <g id="24x24_idea_filled" fill="#000000">
            <path d="M15,15.3198 L15,16.9998 L9,16.9998 L9,15.3198 C6.64,14.1898 5,11.7898 5,8.9998 C5,5.1298 8.13,1.9998 12,1.9998 C15.87,1.9998 19,5.1298 19,8.9998 C19,11.7898 17.36,14.1898 15,15.3198 M13,20.9998 L12.5,20.9998 L11.5,20.9998 L11,20.9998 C9.895,20.9998 9,20.1048 9,18.9998 L15,18.9998 C15,20.1048 14.105,20.9998 13,20.9998 M12,5 C12.552,5 13,5.448 13,6 C13,6.552 12.552,7 12,7 C10.897,7 10,7.897 10,9 C10,9.552 9.552,10 9,10 C8.448,10 8,9.552 8,9 C8,6.794 9.794,5 12,5 Z" id="Icon"></path>
        </g>
    </g>
</svg>