<svg xmlns="http://www.w3.org/2000/svg" width="24" height="24" viewBox="0 0 24 24">
  <path d="M6,15.6655586 L2.79047091,14.9778024 C2.32940013,14.8790015 2,14.4715378 2,14 L2,10 C2,9.52846222 2.32940013,9.12099847 2.79047091,9.02219759 L16.7904709,6.02219759 C16.8610379,6.0070761 16.9311487,5.99976682 17,5.99962029 L17,18.0003797 C16.9311487,18.0002332 16.8610379,17.9929239 16.7904709,17.9778024 L13,17.1655586 L13,18 C13,19.1045695 12.1045695,20 11,20 L8,20 C6.8954305,20 6,19.1045695 6,18 L6,15.6655586 Z M8,16.0941301 L8,18 L11,18 L11,16.7369872 L8,16.0941301 Z M18,7 L18,17 L18,7 Z M2,9 C2,8.44771525 2.44771525,8 3,8 C3.55228475,8 4,8.44771525 4,9 L4,15 C4,15.5522847 3.55228475,16 3,16 C2.44771525,16 2,15.5522847 2,15 L2,9 Z M19,4 L21,4 C21.5522847,4 22,4.44771525 22,5 L22,19 C22,19.5522847 21.5522847,20 21,20 L19,20 C18.4477153,20 18,19.5522847 18,19 L18,5 C18,4.44771525 18.4477153,4 19,4 Z"/>
</svg>
