<svg width="24" height="24" viewBox="0 0 24 24" fill="none" xmlns="http://www.w3.org/2000/svg"><path d="M2.3999 12C2.3999 6.75329 6.6532 2.5 11.8999 2.5C14.6155 2.5 17.0654 3.64042 18.7956 5.46558L21.5112 2.75V9.75H18.0999C17.7933 8.91899 17.3217 8.16785 16.7249 7.53632L17.3808 6.88041C16.0109 5.4143 14.0625 4.5 11.8999 4.5C7.75777 4.5 4.3999 7.85786 4.3999 12C4.3999 16.1421 7.75777 19.5 11.8999 19.5C14.0295 19.5 15.9503 18.6138 17.3168 17.1872C17.6988 16.7884 18.3319 16.7748 18.7307 17.1568C19.1295 17.5389 19.1431 18.1719 18.7611 18.5707C17.0331 20.3747 14.5971 21.5 11.8999 21.5C6.6532 21.5 2.3999 17.2467 2.3999 12Z" fill="#000"/><path fill-rule="evenodd" clip-rule="evenodd" d="M8.9999 10.5V9.5C8.9999 8.70435 9.31597 7.94129 9.87858 7.37868C10.4412 6.81607 11.2043 6.5 11.9999 6.5C12.7956 6.5 13.5586 6.81607 14.1212 7.37868C14.6838 7.94129 14.9999 8.70435 14.9999 9.5V10.5C15.2651 10.5 15.5195 10.6054 15.707 10.7929C15.8945 10.9804 15.9999 11.2348 15.9999 11.5V15.5C15.9999 15.7652 15.8945 16.0196 15.707 16.2071C15.5195 16.3946 15.2651 16.5 14.9999 16.5H8.9999C8.73469 16.5 8.48033 16.3946 8.2928 16.2071C8.10526 16.0196 7.9999 15.7652 7.9999 15.5V11.5C7.9999 11.2348 8.10526 10.9804 8.2928 10.7929C8.48033 10.6054 8.73469 10.5 8.9999 10.5ZM11.9999 8.5C12.2651 8.5 12.5195 8.60536 12.707 8.79289C12.8945 8.98043 12.9999 9.23478 12.9999 9.5V10.5H10.9999V9.5C10.9999 9.23478 11.1053 8.98043 11.2928 8.79289C11.4803 8.60536 11.7347 8.5 11.9999 8.5Z" fill="#000"/></svg>
