<svg width="24" height="24" viewBox="0 0 24 24" fill="none" xmlns="http://www.w3.org/2000/svg"><path d="M7.91 19.901c8.302 0 12.845-5.734 12.845-10.699 0-.161 0-.323-.009-.484A8.513 8.513 0 0 0 23 6.768c-.81.3-1.681.498-2.597.593.933-.462 1.646-1.202 1.99-2.082-.872.432-1.84.74-2.87.909C18.695 5.455 17.524 5 16.23 5c-2.491 0-4.516 1.687-4.516 3.762 0 .293.044.58.114.858-3.75-.154-7.078-1.657-9.305-3.93a3.294 3.294 0 0 0-.607 1.891c0 1.306.8 2.457 2.007 3.132a5.282 5.282 0 0 1-2.043-.47v.052c0 1.818 1.559 3.344 3.619 3.688a5.234 5.234 0 0 1-1.189.132c-.29 0-.572-.022-.845-.066.572 1.496 2.245 2.582 4.217 2.611-1.55 1.012-3.495 1.613-5.608 1.613A10.4 10.4 0 0 1 1 18.222c1.99 1.056 4.367 1.68 6.91 1.68Z" fill="#000"/></svg>