<svg width="24" height="24" fill="none" xmlns="http://www.w3.org/2000/svg"><path fill-rule="evenodd" clip-rule="evenodd" d="M13.258 3.477a1.78 1.78 0 0 0-2.516 0l-7.265 7.265a1.78 1.78 0 0 0 0 2.516l7.265 7.265a1.78 1.78 0 0 0 2.516 0l7.265-7.265a1.78 1.78 0 0 0 0-2.516l-7.265-7.265Zm1.383-1.383 7.265 7.265a3.735 3.735 0 0 1 0 5.282l-7.265 7.265a3.735 3.735 0 0 1-5.282 0l-7.265-7.265a3.735 3.735 0 0 1 0-5.282l7.265-7.265a3.735 3.735 0 0 1 5.282 0ZM13.586 10l-.293-.293a1 1 0 0 1 1.414-1.414l2 2a1 1 0 0 1 0 1.414l-2 2a1 1 0 0 1-1.414-1.414l.293-.293H11v3a1 1 0 1 1-2 0v-3a2 2 0 0 1 2-2h2.586Z" fill="#000"/></svg>