<svg width="24" height="24" viewBox="0 0 24 24" fill="none" xmlns="http://www.w3.org/2000/svg"><path fill-rule="evenodd" clip-rule="evenodd" d="M12.16 5C9.424 5 7.132 6.96 6.609 9.572l-.14.705-.714.09C3.642 10.638 2 12.456 2 14.668 2 17.066 3.93 19 6.3 19h12.169C20.435 18.854 22 17.188 22 15.152c0-1.959-1.45-3.57-3.316-3.816l-.823-.109-.044-.83C17.657 7.384 15.18 5 12.16 5ZM4.813 8.511C5.752 5.328 8.682 3 12.161 3c3.834 0 7.002 2.828 7.572 6.513A5.846 5.846 0 0 1 24 15.152c0 3.09-2.39 5.644-5.43 5.846l-.033.002H6.299C2.814 21 0 18.158 0 14.667A6.329 6.329 0 0 1 4.812 8.51Z" fill="#000"/></svg>