<svg width="24" height="24" fill="none" xmlns="http://www.w3.org/2000/svg"><path d="M20 14V7a1 1 0 1 0-2 0v7.341A5.99 5.99 0 0 1 20 14Zm-5.659 8H6a2 2 0 0 1-2-2V7a1 1 0 0 1 2 0v13h8c0 .701.12 1.374.341 2ZM10 11h4a1 1 0 1 1 0 2h-4a1 1 0 1 1 0-2Zm0 4h4a1 1 0 1 1 0 2h-4a1 1 0 1 1 0-2Zm11 4h2a1 1 0 1 1 0 2h-2v2a1 1 0 1 1-2 0v-2h-2a1 1 0 1 1 0-2h2v-2a1 1 0 1 1 2 0v2ZM10.268 3a2 2 0 0 1 3.464 0H14a2 2 0 0 1 2 2v2a1 1 0 0 1-1 1H9a1 1 0 0 1-1-1V5a2 2 0 0 1 2-2h.268ZM10 5v1h4V5h-4Zm2-1a1 1 0 0 0-1 1h2a1 1 0 0 0-1-1Z" fill="#000"/></svg>