<svg xmlns="http://www.w3.org/2000/svg" width="24" height="24" viewBox="0 0 24 24">
  <path fill-rule="evenodd" d="M6,10 L18,10 L18,19 C18,20.1045695 17.1045695,21 16,21 L8,21 C6.8954305,21 6,20.1045695 6,19 L6,10 Z M9,5 C9,3.8954305 9.8954305,3 11,3 L13,3 C14.1045695,3 15,3.8954305 15,5 L17,5 C18.1045695,5 19,5.8954305 19,7 L19,9 L5,9 L5,7 C5,5.8954305 5.8954305,5 7,5 L9,5 Z M10,12 C9.44771525,12 9,12.4477153 9,13 L9,17 C9,17.5522847 9.44771525,18 10,18 C10.5522847,18 11,17.5522847 11,17 L11,13 C11,12.4477153 10.5522847,12 10,12 Z M14,12 C13.4477153,12 13,12.4477153 13,13 L13,17 C13,17.5522847 13.4477153,18 14,18 C14.5522847,18 15,17.5522847 15,17 L15,13 C15,12.4477153 14.5522847,12 14,12 Z"/>
</svg>
