<svg xmlns="http://www.w3.org/2000/svg" width="24" height="24" viewBox="0 0 24 24">
  <path fill-rule="evenodd" d="M5.7251,16.2705 L14.0541,7.9415 L16.0581,9.9465 L7.7291,18.2755 L5.1231,18.8755 L5.7251,16.2705 Z M17.0161,4.9795 C17.2161,4.7795 17.4491,4.7495 17.5701,4.7495 C17.6911,4.7495 17.9251,4.7795 18.1241,4.9795 L19.0201,5.8755 C19.2201,6.0755 19.2501,6.3085 19.2501,6.4295 C19.2501,6.5505 19.2201,6.7845 19.0201,6.9835 L17.2951,8.7085 L15.2911,6.7045 L17.0161,4.9795 Z M3.7761,20.9835 L8.6121,19.8675 L20.2581,8.2215 C21.2471,7.2315 21.2471,5.6275 20.2581,4.6385 L19.3621,3.7425 C18.8671,3.2475 18.2191,2.9995 17.5701,2.9995 C16.9221,2.9995 16.2731,3.2475 15.7791,3.7425 L4.1331,15.3885 L3.0171,20.2235 C2.9231,20.6305 3.2381,20.9995 3.6311,20.9995 C3.6791,20.9995 3.7271,20.9945 3.7761,20.9835 Z"/>
</svg>
