<?xml version="1.0" encoding="UTF-8"?>
<svg width="24px" height="24px" viewBox="0 0 24 24" version="1.1" xmlns="http://www.w3.org/2000/svg" xmlns:xlink="http://www.w3.org/1999/xlink">
    <!-- Generator: Sketch 46.2 (44496) - http://www.bohemiancoding.com/sketch -->
    <title>24x24_add_meeting_outline</title>
    <desc>Created with Sketch.</desc>
    <defs></defs>
    <g id="Page-1" stroke="none" stroke-width="1" fill="none" fill-rule="evenodd">
        <g id="24x24_add_meeting_outline" fill="#000000">
            <path d="M21,15 L19,15 L19,11 L5,11 L5,18 C5,18.5522847 5.44771525,19 6,19 L15,19 L15,21 L5.5,21 C4.121,21 3,19.807875 3,18.34375 L3,6.65625 C3,5.192125 4.121,4 5.5,4 L18.5,4 C19.879,4 21,5.192125 21,6.65625 L21,15 Z M7.5,2 C8.32842712,2 9,2.67157288 9,3.5 L9,4 L6,4 L6,3.5 L6,3.5 C6,2.67157288 6.67157288,2 7.5,2 Z M16.5,2 C17.3284271,2 18,2.67157288 18,3.5 L18,4 L15,4 L15,3.5 L15,3.5 C15,2.67157288 15.6715729,2 16.5,2 Z M6,6 C5.44771525,6 5,6.44771525 5,7 L5,7.5 L5,9 L19,9 L19,7 C19,6.44771525 18.5522847,6 18,6 L6,6 Z M21,19 L23,19 L23,21 L21,21 L21,23 L19,23 L19,21 L17,21 L17,19 L19,19 L19,17 L21,17 L21,19 Z" id="Icon"></path>
        </g>
    </g>
</svg>