<svg xmlns="http://www.w3.org/2000/svg" width="24" height="24" viewBox="0 0 24 24">
  <path d="M16,18 L8,18 L8,16.9297424 C5.60879452,15.5465048 4,12.9611294 4,10 C4,5.581722 7.581722,2 12,2 C16.418278,2 20,5.581722 20,10 C20,12.9611294 18.3912055,15.5465048 16,16.9297424 L16,18 Z M15.8739825,19 C15.4299397,20.7252272 13.8638394,22 12,22 C10.1361606,22 8.57006028,20.7252272 8.12601749,19 L15.8739825,19 L15.8739825,19 Z M12,6 C9.790861,6 8,7.790861 8,10 C8,10.5522847 8.44771525,11 9,11 C9.55228475,11 10,10.5522847 10,10 C10,8.8954305 10.8954305,8 12,8 C12.5522847,8 13,7.55228475 13,7 C13,6.44771525 12.5522847,6 12,6 Z"/>
</svg>
