<?xml version="1.0" encoding="UTF-8"?>
<svg width="24px" height="24px" viewBox="0 0 24 24" version="1.1" xmlns="http://www.w3.org/2000/svg" xmlns:xlink="http://www.w3.org/1999/xlink">
    <!-- Generator: Sketch 46.1 (44463) - http://www.bohemiancoding.com/sketch -->
    <title>24x24_home</title>
    <desc>Created with Sketch.</desc>
    <defs></defs>
    <g id="Page-1" stroke="none" stroke-width="1" fill="none" fill-rule="evenodd">
        <g id="24x24_home" fill="#000000">
            <path d="M15,20 L18,20 L18,13 L19.586,13 C19.874,13 19.999,12.78 20.039,12.686 C20.112,12.516 20.122,12.263 19.932,12.065 L12.346,4.153 C12.161,3.96 11.839,3.96 11.654,4.153 L4.068,12.065 C3.878,12.263 3.888,12.516 3.961,12.686 C4.001,12.78 4.126,13 4.414,13 L6,13 L6,20 L9,20 L9,16.5 C9,15.673 9.673,15 10.5,15 L13.5,15 C14.327,15 15,15.673 15,16.5 L15,20 Z M19,21 L14,21 L14,16.5 C14,16.224 13.776,16 13.5,16 L10.5,16 C10.224,16 10,16.224 10,16.5 L10,21 L5,21 L5,14 L4.414,14 C3.81,14 3.284,13.647 3.041,13.078 C2.792,12.495 2.912,11.826 3.346,11.373 L10.932,3.461 C11.499,2.871 12.501,2.871 13.068,3.461 L20.654,11.373 C21.088,11.826 21.208,12.495 20.959,13.078 C20.716,13.647 20.19,14 19.586,14 L19,14 L19,21 Z" id="mask"></path>
        </g>
    </g>
</svg>