<svg width="24" height="24" viewBox="0 0 24 24" fill="none" xmlns="http://www.w3.org/2000/svg"><path d="M9.96 4.096H5.984A2.983 2.983 0 0 0 3 7.079v10.938A2.983 2.983 0 0 0 5.983 21h10.938a2.983 2.983 0 0 0 2.983-2.983v-3.978h-1.988v3.978c0 .55-.446.994-.995.994H5.983a.994.994 0 0 1-.994-.994V7.079c0-.55.445-.995.994-.995h3.978V4.096Z" fill="#000"/><path d="m15.818 5.066 1.637.01-5.926 5.926c-.401.4-.397 1.055.008 1.46.406.406 1.06.41 1.461.01l5.927-5.927.01 1.637c.003.57.468 1.036 1.038 1.04A1.02 1.02 0 0 0 21 8.195l-.03-5.164L15.804 3a1.018 1.018 0 0 0-1.026 1.027c.003.57.468 1.035 1.039 1.039Z" fill="#000"/></svg>