<svg xmlns="http://www.w3.org/2000/svg" width="24" height="24" viewBox="0 0 24 24">
  <path fill-rule="evenodd" d="M12.8735951,9.87789865 C13.7840691,9.32097902 14.8545502,9 16,9 C19.3137085,9 22,11.6862915 22,15 L22,16 L14.245371,16 C13.616036,15.2149309 12.841738,14.5510752 11.9630691,14.0490254 C12.6132943,13.2051276 13,12.1477238 13,11 C13,10.6142012 12.9563054,10.2386078 12.8735951,9.87789865 L12.8735951,9.87789865 Z M16,8 C14.3431458,8 13,6.65685425 13,5 C13,3.34314575 14.3431458,2 16,2 C17.6568542,2 19,3.34314575 19,5 C19,6.65685425 17.6568542,8 16,8 Z M2,22 L2,21 C2,17.6862915 4.6862915,15 8,15 C11.3137085,15 14,17.6862915 14,21 L14,22 L2,22 Z M8,14 C6.34314575,14 5,12.6568542 5,11 C5,9.34314575 6.34314575,8 8,8 C9.65685425,8 11,9.34314575 11,11 C11,12.6568542 9.65685425,14 8,14 Z"/>
</svg>
