<?xml version="1.0" encoding="UTF-8"?>
<svg width="24px" height="24px" viewBox="0 0 24 24" version="1.1" xmlns="http://www.w3.org/2000/svg" xmlns:xlink="http://www.w3.org/1999/xlink">
    <!-- Generator: Sketch 46.1 (44463) - http://www.bohemiancoding.com/sketch -->
    <title>24x24_orders</title>
    <desc>Created with Sketch.</desc>
    <defs></defs>
    <g id="Page-1" stroke="none" stroke-width="1" fill="none" fill-rule="evenodd">
        <g id="24x24_orders" fill="#000000">
            <path d="M2,5 L2,4 L6,4 C6.551,4 7,4.449 7,5 L7,7 L6,7 L6,6 L6,5 L5,5 L2,5 Z M20.613,8 L18.279,15 L6.895,15 L6.117,8 L8,8 L20.613,8 Z M6,16 L5,6 L2,6 C1.448,6 1,5.552 1,5 L1,4 C1,3.448 1.448,3 2,3 L6,3 C7.104,3 8,3.896 8,5 L8,7 L22,7 L19,16 L6,16 Z M7,17 C8.104,17 9,17.896 9,19 C9,20.104 8.104,21 7,21 C5.896,21 5,20.104 5,19 C5,17.896 5.896,17 7,17 Z M7,20 C7.551,20 8,19.551 8,19 C8,18.449 7.551,18 7,18 C6.449,18 6,18.449 6,19 C6,19.551 6.449,20 7,20 Z M18,17 C19.104,17 20,17.896 20,19 C20,20.104 19.104,21 18,21 C16.896,21 16,20.104 16,19 C16,17.896 16.896,17 18,17 Z M18,20 C18.551,20 19,19.551 19,19 C19,18.449 18.551,18 18,18 C17.449,18 17,18.449 17,19 C17,19.551 17.449,20 18,20 Z" id="Combined-Shape"></path>
        </g>
    </g>
</svg>