<svg width="24" height="24" viewBox="0 0 24 24" fill="none" xmlns="http://www.w3.org/2000/svg"><path d="M16 13.171V10a4 4 0 0 0-6.384-3.212L8.192 5.363a5.99 5.99 0 0 1 1.835-1.031 2 2 0 1 1 3.945 0A6.003 6.003 0 0 1 18 10v3l1.658 3.317c.114.227.176.466.192.705L16 13.172Z" fill="#000"/><path fill-rule="evenodd" clip-rule="evenodd" d="M6.096 8.925A6.035 6.035 0 0 0 6 10l-.01 3L4 17a2 2 0 0 0 2 2h10.172l2.9 2.9a1 1 0 0 0 1.413-1.415l-1.672-1.672L8.354 8.354 6.876 6.876 3.515 3.515A1 1 0 0 0 2.1 4.929l3.995 3.996Zm1.901 1.9-.009 2.648L6.234 17h7.938l-6.175-6.174Z" fill="#000"/><path d="M10 20a2 2 0 1 0 4 0h-4Z" fill="#000"/></svg>