<?xml version="1.0" encoding="UTF-8"?>
<svg width="24px" height="24px" viewBox="0 0 24 24" version="1.1" xmlns="http://www.w3.org/2000/svg" xmlns:xlink="http://www.w3.org/1999/xlink">
    <!-- Generator: Sketch 46.1 (44463) - http://www.bohemiancoding.com/sketch -->
    <title>24x24_stopwatch</title>
    <desc>Created with Sketch.</desc>
    <defs></defs>
    <g id="Page-1" stroke="none" stroke-width="1" fill="none" fill-rule="evenodd">
        <g id="24x24_stopwatch" fill="#000000">
            <path d="M12,20.5 C7.864,20.5 4.5,17.136 4.5,13 C4.5,8.864 7.864,5.5 12,5.5 C16.136,5.5 19.5,8.864 19.5,13 C19.5,17.136 16.136,20.5 12,20.5 M12.5,4.525 C16.953,4.786 20.5,8.482 20.5,13 C20.5,17.687 16.687,21.5 12,21.5 C7.313,21.5 3.5,17.687 3.5,13 C3.5,8.482 7.047,4.786 11.5,4.525 L11.5,3 L10,3 L10,2 L14,2 L14,3 L12.5,3 L12.5,4.525 Z M12.5,11.5918 L12.5,7.9998 L11.5,7.9998 L11.5,11.5918 C10.919,11.7988 10.5,12.3478 10.5,12.9998 C10.5,13.8288 11.172,14.4998 12,14.4998 C12.828,14.4998 13.5,13.8288 13.5,12.9998 C13.5,12.3478 13.081,11.7988 12.5,11.5918 Z M21.1924,6.6362 L20.4854,7.3432 L17.6574,4.5142 L18.3644,3.8072 L21.1924,6.6362 Z" id="Combined-Shape"></path>
        </g>
    </g>
</svg>