<svg xmlns="http://www.w3.org/2000/svg" width="24" height="24" viewBox="0 0 24 24">
  <path fill-rule="evenodd" d="M4,6 L4,18 L6,18 L6,6 L4,6 Z M4,4 L6,4 C7.1045695,4 8,4.8954305 8,6 L8,18 C8,19.1045695 7.1045695,20 6,20 L4,20 C2.8954305,20 2,19.1045695 2,18 L2,6 C2,4.8954305 2.8954305,4 4,4 Z M11,6 L11,13 L13,13 L13,6 L11,6 Z M11,4 L13,4 C14.1045695,4 15,4.8954305 15,6 L15,13 C15,14.1045695 14.1045695,15 13,15 L11,15 C9.8954305,15 9,14.1045695 9,13 L9,6 C9,4.8954305 9.8954305,4 11,4 Z M18,6 L18,16 L20,16 L20,6 L18,6 Z M18,4 L20,4 C21.1045695,4 22,4.8954305 22,6 L22,16 C22,17.1045695 21.1045695,18 20,18 L18,18 C16.8954305,18 16,17.1045695 16,16 L16,6 C16,4.8954305 16.8954305,4 18,4 Z"/>
</svg>
