<svg width="24" height="24" fill="none" xmlns="http://www.w3.org/2000/svg"><path d="M24 7h-2v6.34l2 .858v2.176l-2.924-1.253-8.62 5.172a3 3 0 0 1-2.885.11L2.764 17H0v-2h2V8H0V6h4v9.382l6.465 3.233a1 1 0 0 0 .962-.037l.678-.407-.552-.277a1 1 0 1 1 .894-1.788l1.691.845 1.15-.69-.735-.367a1 1 0 1 1 .894-1.789l1.873.937 1.603-.962-5.259-2.63a2 2 0 0 0-1.527-.108l-2.978.992a3.11 3.11 0 0 1-2.551-5.638l4.388-2.56a1 1 0 0 1 1.008 1.728l-4.389 2.56a1.11 1.11 0 0 0 .911 2.013l2.979-.993a4 4 0 0 1 3.054.217L20 12.382V5h4v2Z" fill="#000"/></svg>