<?xml version="1.0" encoding="UTF-8"?>
<svg width="24px" height="24px" viewBox="0 0 24 24" version="1.1" xmlns="http://www.w3.org/2000/svg" xmlns:xlink="http://www.w3.org/1999/xlink">
    <!-- Generator: Sketch 46.2 (44496) - http://www.bohemiancoding.com/sketch -->
    <title>24x24_user_outline</title>
    <desc>Created with Sketch.</desc>
    <defs></defs>
    <g id="Page-1" stroke="none" stroke-width="1" fill="none" fill-rule="evenodd">
        <g id="24x24_user_outline" fill="#000000">
            <path d="M12,4 C10.07,4 8.5,5.57 8.5,7.5 C8.5,9.43 10.07,11 12,11 C13.93,11 15.5,9.43 15.5,7.5 C15.5,5.57 13.93,4 12,4 Z M12,13 C8.967,13 6.5,10.533 6.5,7.5 C6.5,4.467 8.967,2 12,2 C15.033,2 17.5,4.467 17.5,7.5 C17.5,10.533 15.033,13 12,13 Z M20,22 L18,22 C18,18.691 15.309,16 12,16 C8.691,16 6,18.691 6,22 L4,22 C4,17.589 7.589,14 12,14 C16.411,14 20,17.589 20,22 Z" id="Icon"></path>
        </g>
    </g>
</svg>