<svg width="24" height="24" viewBox="0 0 24 24" fill="none" xmlns="http://www.w3.org/2000/svg"><path fill-rule="evenodd" clip-rule="evenodd" d="M19.867 14.001a5.97 5.97 0 0 0-2.74.73l-1.143-.659a.232.232 0 0 0-.096-.022.263.263 0 0 0-.165.053L13.5 16.47l-1.367-.772c-.621-.35-1.318-.887-2.09-1.646-.81-.796-1.376-1.516-1.74-2.157l-.725-1.28 2.074-2.214a.355.355 0 0 0 .059-.233L7.999 5.02c-.007-.013-.94.963-2.8 2.927a.904.904 0 0 0-.194.427c-.008.066-.01.222.01.456.036.407.134.878.312 1.408.527 1.57 1.627 3.293 3.481 5.116 1.567 1.54 3.062 2.543 4.454 3.115.305.126.593.226.864.304a6.028 6.028 0 0 0-.07 2.044c-1.56-.354-3.916-1.35-6.65-4.037-4.703-4.624-4.434-8.242-4.387-8.64a2.875 2.875 0 0 1 .736-1.576l2.772-2.928A2.012 2.012 0 0 1 7.993 3c.757 0 1.434.421 1.785 1.105l1.671 3.07.047.093c.39.826.223 1.865-.398 2.515l-1.055 1.127c.203.357.608.936 1.402 1.716.754.742 1.316 1.13 1.671 1.332l1.148-1.224a2.255 2.255 0 0 1 2.655-.432l.047.028 2.901 1.671Z" fill="#000"/><path d="M22.828 21.414 21.414 20l1.414-1.414a1 1 0 1 0-1.414-1.414L20 18.586l-1.414-1.414a1 1 0 1 0-1.414 1.414L18.586 20l-1.414 1.414a1 1 0 1 0 1.414 1.414L20 21.414l1.414 1.414a1 1 0 1 0 1.414-1.414Z" fill="#000"/></svg>