<svg width="24" height="24" fill="none" xmlns="http://www.w3.org/2000/svg"><path fill-rule="evenodd" clip-rule="evenodd" d="m12.515 3.664-1.344 1.362-5.268.954a1.986 1.986 0 0 0-1.06.56l-2.2 2.23a1.53 1.53 0 0 0 0 2.145l1.711 1.735c.492.498 1.24.577 1.814.237l5.103 5.172a1.534 1.534 0 0 0 .234 1.838l1.712 1.735a1.482 1.482 0 0 0 2.116 0l2.2-2.23a2.03 2.03 0 0 0 .553-1.074l.942-5.34 1.343-1.362a9.171 9.171 0 0 0 2.548-7.653l-.035-.258a3.012 3.012 0 0 0-2.563-2.598l-.254-.034a8.902 8.902 0 0 0-7.552 2.581Zm8.393.322c-.06-.45-.41-.804-.855-.866l-.254-.034a6.924 6.924 0 0 0-5.856 1.99l-3.828 3.88-1.413-1.432-.003.003-2.446.443-1.848 1.873 1.007 1.02 1.905-1.93 1.41 1.429-1.115 1.13 5.036 5.103 1.115-1.13 1.41 1.43-1.905 1.93 1.007 1.02 1.848-1.872.436-2.476.005-.005-1.414-1.433 3.81-3.862a7.133 7.133 0 0 0 1.982-5.953l-.034-.258Z" fill="#000"/><path d="M18.1 8.09a1.482 1.482 0 0 1-2.116 0 1.53 1.53 0 0 1 0-2.144 1.482 1.482 0 0 1 2.115 0 1.53 1.53 0 0 1 0 2.144ZM5.113 14.843a.988.988 0 0 1 1.41 0 1.02 1.02 0 0 1 0 1.43l-2.82 2.858a.988.988 0 0 1-1.41 0 1.02 1.02 0 0 1 0-1.43l2.82-2.858Zm2.115 3.573a.988.988 0 0 1 1.41 0 1.02 1.02 0 0 1 0 1.43l-2.82 2.858a.988.988 0 0 1-1.41 0 1.02 1.02 0 0 1 0-1.43l2.82-2.858Z" fill="#000"/></svg>