<svg width="24" height="24" fill="none" xmlns="http://www.w3.org/2000/svg"><path fill-rule="evenodd" clip-rule="evenodd" d="M11 5h9a1 1 0 1 1 0 2h-9a1 1 0 1 1 0-2Zm0 12h9a1 1 0 1 1 0 2h-9a1 1 0 1 1 0-2Zm0-6h9a1 1 0 1 1 0 2h-9a1 1 0 1 1 0-2ZM4.5 4a.5.5 0 0 1 0-1H6a1 1 0 0 1 1 1v2.5a.5.5 0 0 0 .5.5.5.5 0 0 1 0 1h-3a.5.5 0 0 1 0-1 .5.5 0 0 0 .5-.5v-2a.5.5 0 0 0-.5-.5ZM4 13v-.586a1 1 0 0 1 .293-.707L6 10H4.5a.5.5 0 0 1 0-1H7a1 1 0 0 1 1 1v.586a1 1 0 0 1-.293.707L6 13h1.5a.5.5 0 0 1 0 1H5a1 1 0 0 1-1-1Zm0 6.5a.5.5 0 0 1 .5-.5h1a.5.5 0 0 0 0-1h-1a.5.5 0 0 1 0-1h1a.5.5 0 0 0 0-1h-1a.5.5 0 0 1 0-1H7a1 1 0 0 1 1 1v3a1 1 0 0 1-1 1H4.5a.5.5 0 0 1-.5-.5Z" fill="#000"/></svg>