<svg width="24" height="24" xmlns="http://www.w3.org/2000/svg">
  <path fill-rule="evenodd" clip-rule="evenodd" d="M7.874 4h.001a5.863 5.863 0 014.126 1.7A5.84 5.84 0 0116.125 4h.001A5.88 5.88 0 0122 9.887l-1-.001h1v.001c0 2.856-1.928 4.777-3.859 6.3a51.428 51.428 0 01-1.684 1.261c-.443.323-.875.639-1.293.96-.954.729-1.775 1.44-2.377 2.208a1 1 0 01-1.574 0c-.602-.767-1.423-1.479-2.377-2.209a70.214 70.214 0 00-1.47-1.089 49.694 49.694 0 01-1.507-1.13C3.928 14.663 2 12.742 2 9.886A5.88 5.88 0 017.874 4zm8.25 2a3.865 3.865 0 00-3.277 1.822 1 1 0 01-1.696-.003 3.863 3.863 0 00-6.018-.68A3.88 3.88 0 004 9.886v.001c0 1.847 1.21 3.243 3.097 4.73.462.364.947.722 1.448 1.087l.176.13c.441.32.893.65 1.331.986.675.517 1.347 1.07 1.948 1.676.6-.607 1.273-1.16 1.948-1.676.438-.335.89-.665 1.33-.987l.177-.129c.501-.365.986-.723 1.448-1.086C18.79 13.129 20 11.733 20 9.886v-.001A3.88 3.88 0 0016.125 6z"/>
</svg>
