<svg width="24" height="24" viewBox="0 0 24 24" fill="none" xmlns="http://www.w3.org/2000/svg"><path fill-rule="evenodd" clip-rule="evenodd" d="M8.418 9.833a4 4 0 0 0 5.364 5.364l1.733 1.732a9.352 9.352 0 0 1-3.515.686c-3.857 0-7.336-2.384-8.86-6a9.933 9.933 0 0 1 3.063-3.998l2.215 2.216ZM4.778 6.19A12.01 12.01 0 0 0 1 11.615c1.6 4.663 5.922 8 11 8 1.801 0 3.508-.42 5.031-1.17l1.848 1.848a1 1 0 1 0 1.414-1.414L4.737 3.322a1 1 0 0 0-1.415 1.415L4.777 6.19Zm14.102 8.446 1.415 1.416A12.047 12.047 0 0 0 23 11.615c-1.6-4.663-5.922-8-11-8-1.245 0-2.445.2-3.57.572l1.631 1.632A9.325 9.325 0 0 1 12 5.615c3.857 0 7.336 2.384 8.86 6a9.982 9.982 0 0 1-1.98 3.022Z" fill="#000"/></svg>