<svg width="24" height="24" viewBox="0 0 24 24" fill="none" xmlns="http://www.w3.org/2000/svg"><path d="M17.338 7.863a1.2 1.2 0 1 0 0-2.4 1.2 1.2 0 0 0 0 2.4Z" fill="#000"/><path fill-rule="evenodd" clip-rule="evenodd" d="M12 7a5 5 0 1 0 0 10 5 5 0 0 0 0-10Zm0 2a3 3 0 1 0 0 6 3 3 0 0 0 0-6Z" fill="#000"/><path fill-rule="evenodd" clip-rule="evenodd" d="M12.003 2.002H12L12.002 2h-.004c-1.493 0-2.267.003-2.84.015-.467.009-.8.023-1.28.045-1.066.05-1.793.22-2.428.466A4.91 4.91 0 0 0 3.678 3.68a4.91 4.91 0 0 0-1.153 1.772c-.247.635-.416 1.363-.465 2.427C2.012 8.943 2 9.285 2 12s.012 3.056.06 4.123c.05 1.066.218 1.79.465 2.426a4.909 4.909 0 0 0 1.153 1.771c.5.509 1.105.903 1.772 1.154.635.247 1.363.416 2.428.465 1.064.048 1.407.06 4.123.06s3.056-.012 4.123-.06c1.067-.05 1.79-.218 2.426-.465a5.112 5.112 0 0 0 2.925-2.925c.247-.635.416-1.363.465-2.427.048-1.064.06-1.407.06-4.123s-.012-3.056-.06-4.123c-.05-1.066-.218-1.79-.465-2.425a4.901 4.901 0 0 0-1.153-1.771 4.91 4.91 0 0 0-1.772-1.155c-.635-.247-1.363-.416-2.428-.464a44.536 44.536 0 0 0-1.308-.046c-.57-.01-1.343-.014-2.81-.014ZM7.97 4.058a48.38 48.38 0 0 1 2.666-.056H12c2.706 0 3.012.011 4.031.058.875.04 1.386.172 1.794.33l.01.004.01.004a2.91 2.91 0 0 1 1.05.684l.012.013.013.012c.301.296.534.654.683 1.049l.004.01.004.011c.159.408.29.915.33 1.792C19.989 8.989 20 9.294 20 12c0 2.705-.012 3.013-.058 4.032-.04.875-.172 1.385-.33 1.792l-.003.005a3.11 3.11 0 0 1-1.78 1.78l-.005.002c-.408.159-.914.29-1.792.33-1.02.047-1.325.059-4.031.059-2.706 0-3.013-.012-4.032-.058-.875-.04-1.386-.172-1.793-.33l-.01-.005-.011-.004a2.903 2.903 0 0 1-1.05-.683l-.012-.013-.013-.013a2.91 2.91 0 0 1-.684-1.05l-.003-.009-.004-.01c-.159-.408-.29-.915-.33-1.793C4.011 15.012 4 14.707 4 12.001c0-2.706.012-3.012.058-4.031.04-.875.172-1.386.33-1.794l.005-.01.004-.01a2.91 2.91 0 0 1 .683-1.05l.013-.012.012-.012a2.91 2.91 0 0 1 1.05-.684l.01-.004.01-.004c.41-.159.92-.292 1.795-.332Z" fill="#000"/></svg>