<svg width="24" height="24" viewBox="0 0 24 24" fill="none" xmlns="http://www.w3.org/2000/svg"><path d="M17 14.803V9A5 5 0 0 0 7 9v7H4a2 2 0 0 1-2-2v-4a2 2 0 0 1 2-2h1.07a7.002 7.002 0 0 1 13.86 0H20a2 2 0 0 1 2 2v4c0 .113-.01.224-.027.332A5.99 5.99 0 0 0 20 14v-4h-1v4.083a5.958 5.958 0 0 0-2 .72Zm-2.998 5.055a5.995 5.995 0 0 0 .292 2c-.418.093-.85.142-1.294.142h-1.5a1.5 1.5 0 0 1 0-3h1a1.5 1.5 0 0 1 1.37.888l.132-.03ZM5 10H4v4h1v-4Zm16 9h2a1 1 0 1 1 0 2h-2v2a1 1 0 1 1-2 0v-2h-2a1 1 0 1 1 0-2h2v-2a1 1 0 1 1 2 0v2Z" fill="#000"/></svg>