<svg width="24" height="24" viewBox="0 0 24 24" fill="none" xmlns="http://www.w3.org/2000/svg"><path fill-rule="evenodd" clip-rule="evenodd" d="M6.076 2.617A1 1 0 0 1 7 2h10a1 1 0 0 1 .894 1.447L16 7.237v2.43l2.8 3.733a1 1 0 0 1-1.6 1.2l-3-4a1 1 0 0 1-.2-.6V7c0-.155.036-.308.106-.447L15.382 4H9.414l1.293 1.293a1 1 0 0 1-1.414 1.414l-3-3a1 1 0 0 1-.217-1.09Z" fill="#000"/><path d="M19.778 21.192a1 1 0 0 0 0-1.414L4.222 4.222a1 1 0 1 0-1.414 1.414l4.694 4.695L5.2 13.4A1 1 0 0 0 6 15h5v6a1 1 0 1 0 2 0v-5.171l5.364 5.363a1 1 0 0 0 1.414 0Z" fill="#000"/></svg>