<?xml version="1.0" encoding="UTF-8"?>
<svg width="24px" height="24px" viewBox="0 0 24 24" version="1.1" xmlns="http://www.w3.org/2000/svg" xmlns:xlink="http://www.w3.org/1999/xlink">
    <!-- Generator: Sketch 46.1 (44463) - http://www.bohemiancoding.com/sketch -->
    <title>24x24_files</title>
    <desc>Created with Sketch.</desc>
    <defs></defs>
    <g id="Page-1" stroke="none" stroke-width="1" fill="none" fill-rule="evenodd">
        <g id="24x24_files" fill="#000000">
            <path d="M8,21 L20,21 L20,8 L8,8 L8,21 Z M4,16 L4,3 L16,3 L16,7 L7,7 L7,16 L4,16 Z M17,7 L21,7 L21,22 L7,22 L7,17 L3,17 L3,2 L17,2 L17,7 Z M11,12 L17,12 L17,11 L11,11 L11,12 Z M11,15 L17,15 L17,14 L11,14 L11,15 Z M11,18 L17,18 L17,17 L11,17 L11,18 Z" id="Combined-Shape"></path>
        </g>
    </g>
</svg>