<svg width="24" height="24" viewBox="0 0 24 24" fill="none" xmlns="http://www.w3.org/2000/svg"><path fill-rule="evenodd" clip-rule="evenodd" d="m21.414 8.121 1.414-1.414a.999.999 0 1 0-1.414-1.414L20 6.707l-1.414-1.414a.999.999 0 1 0-1.414 1.414l1.414 1.414-1.414 1.414a.999.999 0 1 0 1.414 1.414L20 9.535l1.414 1.414a.997.997 0 0 0 1.414 0 .999.999 0 0 0 0-1.414l-1.414-1.414ZM20 12.621a1 1 0 0 0-1 1v1a1 1 0 1 0 2 0v-1a1 1 0 0 0-1-1Zm-6.358 4.967a3.536 3.536 0 0 1-1.057-1.028 1 1 0 0 0-1.664 1.11 5.56 5.56 0 0 0 1.659 1.613 1 1 0 1 0 1.062-1.695Zm4.146-.318c-.38.33-.815.566-1.293.707a1.002 1.002 0 0 0-.675 1.244 1.002 1.002 0 0 0 1.243.674 5.464 5.464 0 0 0 2.032-1.11.998.998 0 0 0 .103-1.41.998.998 0 0 0-1.41-.105ZM3 10.396a1 1 0 0 0-1 1v1.91a1 1 0 0 0 2 0v-1.91a1 1 0 0 0-1-1Zm1.784-4.758a5.032 5.032 0 0 0-1.809 1.516 1 1 0 0 0 1.609 1.188c.284-.385.66-.7 1.087-.91a1 1 0 0 0-.887-1.794Zm6.084 3.052a.998.998 0 0 0 .26-1.389 5.029 5.029 0 0 0-1.753-1.58 1.004 1.004 0 0 0-1.356.403 1.001 1.001 0 0 0 .405 1.356 3.03 3.03 0 0 1 1.054.95.998.998 0 0 0 1.39.26ZM12 13.45v-1.91a1 1 0 0 0-2 0v1.91a1 1 0 0 0 2 0Zm-9 2.67a1 1 0 0 0-1 1v1a1 1 0 1 0 2 0v-1a1 1 0 0 0-1-1Z" fill="#000"/></svg>