<svg width="24" height="24" viewBox="0 0 24 24" fill="none" xmlns="http://www.w3.org/2000/svg"><path fill-rule="evenodd" clip-rule="evenodd" d="M18.33 4.257c-3.93-3.219-9.735-2.995-13.402.672-3.667 3.667-3.89 9.472-.672 13.4l-.035.035.686.686.021.021.02.02.687.687.035-.035c3.928 3.219 9.733 2.995 13.4-.672 3.667-3.667 3.89-9.472.672-13.4l.035-.035-1.414-1.414-.035.035ZM16.905 5.68A8.001 8.001 0 0 0 5.68 16.906L16.906 5.68ZM7.094 18.32A8.001 8.001 0 0 0 18.32 7.094L7.094 18.32Z" fill="#000"/></svg>