<svg xmlns="http://www.w3.org/2000/svg" width="24" height="24" viewBox="0 0 24 24">
  <path fill-rule="evenodd" d="M5,4 L10,4 C10.5522847,4 11,4.44771525 11,5 L11,7 L4,7 L4,5 C4,4.44771525 4.44771525,4 5,4 Z M14,4 L19,4 C19.5522847,4 20,4.44771525 20,5 L20,7 L13,7 L13,5 C13,4.44771525 13.4477153,4 14,4 Z M4,8 L11,8 L11,19 C11,19.5522847 10.5522847,20 10,20 L5,20 C4.44771525,20 4,19.5522847 4,19 L4,8 Z M13,8 L20,8 L20,15 C20,15.5522847 19.5522847,16 19,16 L14,16 C13.4477153,16 13,15.5522847 13,15 L13,8 Z"/>
</svg>
