<svg xmlns="http://www.w3.org/2000/svg" xmlns:xlink="http://www.w3.org/1999/xlink" width="24" height="24" viewBox="0 0 24 24">
  <defs>
    <path id="24x24_trash_outline-a" d="M19,10 L19,20 C19,21.1045695 18.1045695,22 17,22 L7,22 C5.8954305,22 5,21.1045695 5,20 L5,10 L19,10 Z M4,8 L4,6 C4,4.8954305 4.8954305,4 6,4 L9,4 C9,2.8954305 9.8954305,2 11,2 L13,2 C14.1045695,2 15,2.8954305 15,4 L18,4 C19.1045695,4 20,4.8954305 20,6 L20,8 L4,8 Z M10,12 C9.44771525,12 9,12.4477153 9,13 L9,17 C9,17.5522847 9.44771525,18 10,18 C10.5522847,18 11,17.5522847 11,17 L11,13 C11,12.4477153 10.5522847,12 10,12 Z M14,12 C13.4477153,12 13,12.4477153 13,13 L13,17 C13,17.5522847 13.4477153,18 14,18 C14.5522847,18 15,17.5522847 15,17 L15,13 C15,12.4477153 14.5522847,12 14,12 Z"/>
  </defs>
  <use xlink:href="#24x24_trash_outline-a"/>
</svg>
