<?xml version="1.0" encoding="UTF-8"?>
<svg width="24px" height="24px" viewBox="0 0 24 24" version="1.1" xmlns="http://www.w3.org/2000/svg" xmlns:xlink="http://www.w3.org/1999/xlink">
    <!-- Generator: Sketch 46.1 (44463) - http://www.bohemiancoding.com/sketch -->
    <title>24x24_close</title>
    <desc>Created with Sketch.</desc>
    <defs>
        <path d="M12.5,11.5 L12.5,4 C12.5,3.724 12.276,3.5 12,3.5 C11.724,3.5 11.5,3.724 11.5,4 L11.5,11.5 L4,11.5 C3.724,11.5 3.5,11.724 3.5,12 C3.5,12.276 3.724,12.5 4,12.5 L11.5,12.5 L11.5,20 C11.5,20.276 11.724,20.5 12,20.5 C12.276,20.5 12.5,20.276 12.5,20 L12.5,12.5 L20,12.5 C20.276,12.5 20.5,12.276 20.5,12 C20.5,11.724 20.276,11.5 20,11.5 L12.5,11.5 Z" id="path-1"></path>
    </defs>
    <g id="Page-1" stroke="none" stroke-width="1" fill="none" fill-rule="evenodd">
        <g id="24x24_close">
            <mask id="mask-2" fill="white">
                <use xlink:href="#path-1"></use>
            </mask>
            <use id="icon" fill="#000000" transform="translate(12.000000, 12.000000) rotate(45.000000) translate(-12.000000, -12.000000) " xlink:href="#path-1"></use>
        </g>
    </g>
</svg>