<svg width="24" height="24" viewBox="0 0 24 24" fill="none" xmlns="http://www.w3.org/2000/svg"><path fill-rule="evenodd" clip-rule="evenodd" d="M22 14.341A5.99 5.99 0 0 0 20 14v-3h-6v9h-2V6H6v6h2a2 2 0 0 1 2 2v6H8v-6H4v6H2v-6a2 2 0 0 1 2-2V6a2 2 0 0 1 2-2h6a2 2 0 0 1 2 2v3h2V7a1 1 0 1 1 2 0v2h2a2 2 0 0 1 2 2v3.341Z" fill="#000"/><path d="M22.622 16c-.353 0-.706.134-.974.404l-4.872 4.872-.758 2.274a.342.342 0 0 0 .432.432l2.274-.758 4.872-4.872a1.372 1.372 0 0 0 0-1.948 1.372 1.372 0 0 0-.974-.404Z" fill="#000"/></svg>