<svg width="24" height="24" fill="none" xmlns="http://www.w3.org/2000/svg"><path fill-rule="evenodd" clip-rule="evenodd" d="m7.725 13.271-.602 2.605 2.606-.6 6.329-6.329-2.004-2.005-6.33 6.329Zm9.29-9.291-1.724 1.725 2.004 2.004 1.725-1.725a.779.779 0 0 0 0-1.108l-.896-.896a.779.779 0 0 0-1.108 0Zm-6.403 12.888-4.836 1.116a.633.633 0 0 1-.759-.76l1.116-4.835 9.646-9.646A2.524 2.524 0 0 1 17.569 2c.65 0 1.298.248 1.793.743l.896.896a2.534 2.534 0 0 1 0 3.583l-9.646 9.646ZM4 19h16a1 1 0 1 1 0 2H4a1 1 0 1 1 0-2Z" fill="#000"/></svg>