<svg width="24" height="24" viewBox="0 0 24 24" fill="none" xmlns="http://www.w3.org/2000/svg"><path fill-rule="evenodd" clip-rule="evenodd" d="M3.657 6.61c-.33.343-.58.879-.636 1.364-.067.566.015 1.481.413 2.665.639 1.904 1.939 3.941 4.077 6.044C10.71 19.828 13.56 21 15.77 21c.213 0 .381-.013.496-.031a2.494 2.494 0 0 0 1.347-.7l2.933-3.106c.355-.371.517-.899.43-1.397a1.643 1.643 0 0 0-.838-1.146l-3.151-1.815a1.87 1.87 0 0 0-.87-.223c-.508 0-.997.206-1.333.558l-1.5 1.598-.361-.204c-.531-.3-1.159-.784-1.88-1.493-.756-.744-1.265-1.39-1.573-1.934l-.192-.339.266-.284 1.12-1.197c.507-.53.644-1.396.332-2.059l-.042-.084L9.18 3.883A1.584 1.584 0 0 0 7.76 3c-.44 0-.853.178-1.169.508L3.657 6.61Z" fill="#000"/></svg>