<?xml version="1.0" encoding="UTF-8"?>
<svg width="24px" height="24px" viewBox="0 0 24 24" version="1.1" xmlns="http://www.w3.org/2000/svg" xmlns:xlink="http://www.w3.org/1999/xlink">
    <!-- Generator: Sketch 46.2 (44496) - http://www.bohemiancoding.com/sketch -->
    <title>24x24_trash_outline</title>
    <desc>Created with Sketch.</desc>
    <defs></defs>
    <g id="Page-1" stroke="none" stroke-width="1" fill="none" fill-rule="evenodd">
        <g id="24x24_trash_outline" fill-rule="nonzero" fill="#000000">
            <path d="M18,10 L18,19 C18,20.6568542 16.6568542,22 15,22 L9,22 C7.34314575,22 6,20.6568542 6,19 L6,10 L5,10 L5,4 L9.17468772,4 C9.58917494,2.8309643 10.6952171,2 12,2 C13.3049925,2 14.4125923,2.83112764 14.8263936,4 L19,4 L19,10 L18,10 Z M8,10 L8,19 C8,19.5522847 8.44771525,20 9,20 L15,20 C15.5522847,20 16,19.5522847 16,19 L16,10 L8,10 Z M13.0084087,6 C12.9952596,5.44285507 12.5507921,5 12,5 C11.4499706,5 11.006143,5.44263972 10.9999404,6.01091408 L10.9891448,6 L7,6 L7,8 L17,8 L17,6 L13.0084087,6 Z M10,12 L11,12 L11,17 L10,17 L10,12 Z M13,12 L14,12 L14,17 L13,17 L13,12 Z" id="Icon"></path>
        </g>
    </g>
</svg>