<svg xmlns="http://www.w3.org/2000/svg" width="24" height="24" viewBox="0 0 24 24">
  <path fill-rule="evenodd" d="M21,14 L21,16 L17,16 L17,14 L12.6585886,14 C11.8349158,16.3303847 9.61243765,18 7,18 C3.6862915,18 1,15.3137085 1,12 C1,8.6862915 3.6862915,6 7,6 C9.61243765,6 11.8349158,7.66961525 12.6585886,10 L21,10 C22.1045695,10 23,10.8954305 23,12 C23,13.1045695 22.1045695,14 21,14 Z M7,14 C8.1045695,14 9,13.1045695 9,12 C9,10.8954305 8.1045695,10 7,10 C5.8954305,10 5,10.8954305 5,12 C5,13.1045695 5.8954305,14 7,14 Z"/>
</svg>
