<?xml version="1.0" encoding="UTF-8"?>
<svg width="24px" height="24px" viewBox="0 0 24 24" version="1.1" xmlns="http://www.w3.org/2000/svg" xmlns:xlink="http://www.w3.org/1999/xlink">
    <!-- Generator: Sketch 46.2 (44496) - http://www.bohemiancoding.com/sketch -->
    <title>24x24_settings_filled</title>
    <desc>Created with Sketch.</desc>
    <defs></defs>
    <g id="Page-1" stroke="none" stroke-width="1" fill="none" fill-rule="evenodd">
        <g id="24x24_settings_filled" fill="#000000">
            <path d="M12,15.4999 C10.067,15.4999 8.5,13.9329 8.5,11.9999 C8.5,10.0669 10.067,8.4999 12,8.4999 C13.933,8.4999 15.5,10.0669 15.5,11.9999 C15.5,13.9329 13.933,15.4999 12,15.4999 L12,15.4999 Z M21.873,13.5179 C21.948,13.0219 22,12.5179 22,11.9999 C22,11.4819 21.948,10.9769 21.873,10.4799 L18.708,10.0049 C18.568,9.5359 18.384,9.0849 18.155,8.6629 L20.055,6.0919 C19.452,5.2709 18.728,4.5469 17.907,3.9439 L15.336,5.8439 C14.913,5.6149 14.463,5.4319 13.994,5.2919 L13.52,2.1269 C13.022,2.0519 12.518,1.9999 12,1.9999 C11.482,1.9999 10.978,2.0519 10.481,2.1269 L10.006,5.2919 C9.537,5.4319 9.087,5.6149 8.664,5.8439 L6.093,3.9439 C5.272,4.5469 4.548,5.2709 3.945,6.0919 L5.845,8.6629 C5.615,9.0849 5.432,9.5359 5.292,10.0049 L2.127,10.4799 C2.052,10.9769 2,11.4819 2,11.9999 C2,12.5179 2.051,13.0219 2.127,13.5179 L5.292,13.9929 C5.431,14.4619 5.615,14.9129 5.845,15.3359 L3.944,17.9069 C4.243,18.3139 4.564,18.7049 4.92,19.0619 L4.938,19.0799 C5.295,19.4359 5.685,19.7559 6.092,20.0559 L8.663,18.1549 C9.086,18.3849 9.537,18.5679 10.006,18.7079 L10.481,21.8729 C10.972,21.9479 11.471,21.9999 11.983,21.9999 L12.017,21.9999 C12.529,21.9999 13.028,21.9479 13.519,21.8729 L13.994,18.7079 C14.463,18.5679 14.914,18.3849 15.337,18.1549 L17.908,20.0559 C18.315,19.7559 18.705,19.4359 19.062,19.0799 L19.08,19.0619 C19.436,18.7049 19.757,18.3139 20.056,17.9069 L18.156,15.3359 C18.385,14.9129 18.569,14.4619 18.708,13.9929 L21.873,13.5179 Z" id="Icon"></path>
        </g>
    </g>
</svg>