<svg xmlns="http://www.w3.org/2000/svg" width="24" height="24" viewBox="0 0 24 24">
  <path fill-rule="evenodd" d="M15.5817018,10.217288 C15.8494088,10.754062 16,11.3594578 16,12 C16,14.209 14.209,16 12,16 C11.3594578,16 10.754062,15.8494088 10.217288,15.5817018 L8.48536364,17.3136262 C9.58485203,17.7588553 10.7733084,18 12,18 C15.857,18 19.336,15.616 20.86,12 C20.1808436,10.3885634 19.1134329,9.02179652 17.7973358,8.00165407 L15.5817018,10.217288 Z M19.2229364,6.57605345 C20.9352704,7.9668572 22.2593071,9.84134303 23,12 C21.4,16.663 17.078,20 12,20 C10.198616,20 8.49236889,19.5800637 6.9690243,18.8299656 L5.12132034,20.6776695 C4.73079605,21.0681938 4.09763107,21.0681938 3.70710678,20.6776695 C3.31658249,20.2871452 3.31658249,19.6539803 3.70710678,19.263456 L19.263456,3.70710678 C19.6539803,3.31658249 20.2871452,3.31658249 20.6776695,3.70710678 C21.0681938,4.09763107 21.0681938,4.73079605 20.6776695,5.12132034 L19.2229364,6.57605345 Z M5.12012808,15.0220075 L3.70481475,16.4373209 C2.5100928,15.194138 1.57764926,13.6834866 1,12 C2.6,7.337 6.922,4 12,4 C13.2450856,4 14.4447211,4.20061769 15.5699262,4.57220943 L13.9385597,6.20357596 C13.3087024,6.06978167 12.6598834,6 12,6 C8.143,6 4.664,8.384 3.14,12 C3.62148288,13.1424161 4.29810228,14.1618612 5.12012808,15.0220075 Z"/>
</svg>
