<?xml version="1.0" encoding="UTF-8"?>
<svg width="24px" height="24px" viewBox="0 0 24 24" version="1.1" xmlns="http://www.w3.org/2000/svg" xmlns:xlink="http://www.w3.org/1999/xlink">
    <!-- Generator: Sketch 46.2 (44496) - http://www.bohemiancoding.com/sketch -->
    <title>24x24_minimize_outline</title>
    <desc>Created with Sketch.</desc>
    <defs></defs>
    <g id="Page-1" stroke="none" stroke-width="1" fill="none" fill-rule="evenodd">
        <g id="24x24_minimize_outline" fill="#000000">
            <path d="M9.00473697,7.54052345 L9.00473697,4.00161227 C9.00473697,3.44932752 9.45245222,3.00161227 10.004737,3.00161227 C10.5570217,3.00161227 11.004737,3.44932752 11.004737,4.00161227 L11.004737,11.0016123 L4.00473697,11.0016123 C3.45245222,11.0016123 3.00473697,10.553897 3.00473697,10.0016123 C3.00473697,9.44932752 3.45245222,9.00161227 4.00473697,9.00161227 L7.63739866,9.00161227 L2.54289322,3.90710683 C2.15236893,3.51658254 2.15236893,2.88341756 2.54289322,2.49289327 C2.93341751,2.10236897 3.56658249,2.10236897 3.95710678,2.49289327 L9.00473697,7.54052345 Z M14.9989179,16.4604549 L14.9989179,19.9987179 C14.9989179,20.5509015 14.5514448,20.9985348 13.9994589,20.9985348 C13.447473,20.9985348 13,20.5509015 13,19.9987179 L13,13 L19.9962125,13 C20.5481984,13 20.9956714,13.4476333 20.9956714,13.9998168 C20.9956714,14.5520004 20.5481984,14.9996337 19.9962125,14.9996337 L16.3655163,14.9996337 L21.4572653,20.0932061 C21.8475782,20.4836588 21.8475782,21.1167078 21.4572653,21.5071606 C21.0669523,21.8976134 20.4341299,21.8976134 20.0438169,21.5071606 L14.9989179,16.4604549 Z" id="Icon"></path>
        </g>
    </g>
</svg>