<svg xmlns="http://www.w3.org/2000/svg" xmlns:xlink="http://www.w3.org/1999/xlink" width="24" height="24" viewBox="0 0 24 24">
  <defs>
    <path id="24x24_maximize_outline-a" d="M3.99891785,5.46108881 L3.99891785,9 C3.99891785,9.55228475 3.55144485,10 2.99945893,10 C2.447473,10 2,9.55228475 2,9 L2,2 L8.99621248,2 C9.5481984,2 9.9956714,2.44771525 9.9956714,3 C9.9956714,3.55228475 9.5481984,4 8.99621248,4 L5.36551633,4 L10.4572653,9.09450544 C10.8475782,9.48502973 10.8475782,10.1181947 10.4572653,10.508719 C10.0669523,10.8992433 9.43412988,10.8992433 9.04381689,10.508719 L3.99891785,5.46108881 Z M20.0010821,18.5395451 L20.0010821,15.0012821 C20.0010821,14.4490985 20.4485552,14.0014652 21.0005411,14.0014652 C21.552527,14.0014652 22,14.4490985 22,15.0012821 L22,22 L15.0037875,22 C14.4518016,22 14.0043286,21.5523667 14.0043286,21.0001832 C14.0043286,20.4479996 14.4518016,20.0003663 15.0037875,20.0003663 L18.6344837,20.0003663 L13.5427347,14.9067939 C13.1524218,14.5163412 13.1524218,13.8832922 13.5427347,13.4928394 C13.9330477,13.1023866 14.5658701,13.1023866 14.9561831,13.4928394 L20.0010821,18.5395451 Z"/>
  </defs>
  <g fill="none" fill-rule="evenodd">
    <use fill="#000" xlink:href="#24x24_maximize_outline-a"/>
  </g>
</svg>
