<?xml version="1.0" encoding="UTF-8"?>
<svg width="24px" height="24px" viewBox="0 0 24 24" version="1.1" xmlns="http://www.w3.org/2000/svg" xmlns:xlink="http://www.w3.org/1999/xlink">
    <!-- Generator: Sketch 46.1 (44463) - http://www.bohemiancoding.com/sketch -->
    <title>24x24_product</title>
    <desc>Created with Sketch.</desc>
    <defs></defs>
    <g id="Page-1" stroke="none" stroke-width="1" fill="none" fill-rule="evenodd">
        <g id="24x24_product" fill="#000000">
            <path d="M20,11 L4,11 L4,9 L8,9 L16,9 L20,9 L20,11 Z M17.134,19.245 C17.021,19.689 16.623,20 16.164,20 L7.836,20 C7.377,20 6.979,19.689 6.866,19.245 L5.036,12 L18.964,12 L17.134,19.245 Z M9,6 C9,4.897 9.897,4 11,4 L13,4 C14.103,4 15,4.897 15,6 L15,8 L9,8 L9,6 Z M20.052,8 L16,8 L16,6 C16,4.343 14.657,3 13,3 L11,3 C9.343,3 8,4.343 8,6 L8,8 L3.948,8 C3.425,8 3,8.425 3,8.949 L3,11.051 C3,11.575 3.425,12 3.948,12 L4.005,12 L5.896,19.49 C6.121,20.378 6.92,21 7.836,21 L16.164,21 C17.08,21 17.879,20.378 18.104,19.49 L19.995,12 L20.052,12 C20.575,12 21,11.575 21,11.051 L21,8.949 C21,8.425 20.575,8 20.052,8 L20.052,8 Z" id="Fill-2"></path>
        </g>
    </g>
</svg>