<svg width="24" height="24" viewBox="0 0 24 24" fill="none" xmlns="http://www.w3.org/2000/svg"><path fill-rule="evenodd" clip-rule="evenodd" d="M1 5C1 3.89543 1.89543 3 3 3H21C22.1046 3 23 3.89543 23 5V19C23 20.1046 22.1046 21 21 21H3C1.89543 21 1 20.1046 1 19V5ZM19.5 10.5C19.5 11.6046 18.6046 12.5 17.5 12.5C16.3954 12.5 15.5 11.6046 15.5 10.5C15.5 9.39543 16.3954 8.5 17.5 8.5C18.6046 8.5 19.5 9.39543 19.5 10.5ZM17.5 12.5C15.567 12.5 14 13.8431 14 15.5H21C21 13.8431 19.433 12.5 17.5 12.5ZM4 5C3.44772 5 3 5.44772 3 6V18C3 18.5523 3.44772 19 4 19H12V5H4Z" fill="black" /><path d="M5.4 12.5V8.5H11V15.5H9.5V10H7V12.5H8.5V15.5H7V13.6463H5.4V15.5H4V12.5H5.4Z" fill="black" /></svg>