<svg width="24" height="24" viewBox="0 0 24 24" fill="none" xmlns="http://www.w3.org/2000/svg"><path fill-rule="evenodd" clip-rule="evenodd" d="M17 10V8h1a3 3 0 0 1 3 3v8a3 3 0 0 1-3 3H6a3 3 0 0 1-3-3v-8a3 3 0 0 1 3-3h1v2H6a1 1 0 0 0-1 1v8a1 1 0 0 0 1 1h12a1 1 0 0 0 1-1v-8a1 1 0 0 0-1-1h-1Zm-6.045-4.047L9.784 7.11a1.054 1.054 0 0 1-1.478 0 1.024 1.024 0 0 1 0-1.46L12 2l3.694 3.65a1.024 1.024 0 0 1 0 1.46 1.054 1.054 0 0 1-1.478 0l-1.171-1.157v8.014A1.04 1.04 0 0 1 12 15a1.039 1.039 0 0 1-1.045-1.033V5.954Z" fill="#000"/></svg>