<svg width="24" height="24" fill="none" xmlns="http://www.w3.org/2000/svg"><path fill-rule="evenodd" clip-rule="evenodd" d="M10.474 15.955a5.488 5.488 0 0 1-5.481-5.481 5.488 5.488 0 0 1 5.481-5.481 5.488 5.488 0 0 1 5.481 5.481 5.488 5.488 0 0 1-5.481 5.481Zm10.217 3.327-4.28-4.28a7.437 7.437 0 0 0 1.537-4.528 7.474 7.474 0 1 0-7.474 7.474c1.704 0 3.27-.577 4.528-1.537l4.28 4.28a.995.995 0 0 0 1.409 0 .995.995 0 0 0 0-1.409Z" fill="#000"/><path d="M10.5 8a.5.5 0 0 0-.5.5V10H8.5a.5.5 0 0 0 0 1H10v1.5a.5.5 0 0 0 1 0V11h1.5a.5.5 0 0 0 0-1H11V8.5a.5.5 0 0 0-.5-.5Z" fill="#000"/></svg>