<?xml version="1.0" encoding="UTF-8"?>
<svg width="24px" height="24px" viewBox="0 0 24 24" version="1.1" xmlns="http://www.w3.org/2000/svg" xmlns:xlink="http://www.w3.org/1999/xlink">
    <!-- Generator: Sketch 46.1 (44463) - http://www.bohemiancoding.com/sketch -->
    <title>24x24_trash_filled</title>
    <desc>Created with Sketch.</desc>
    <defs></defs>
    <g id="Page-1" stroke="none" stroke-width="1" fill="none" fill-rule="evenodd">
        <g id="24x24_trash_filled" fill="#000000">
            <path d="M6,19 L6,8 L18,8 L18,19 C18,20.657 16.657,22 15,22 L9,22 C7.343,22 6,20.657 6,19 Z M13,19 L14,19 L14,11 L13,11 L13,19 Z M10,19 L11,19 L11,11 L10,11 L10,19 Z M17.571,3.6 C18.359,3.6 19,4.183 19,4.9 L19,7 L5,7 L5,4.9 C5,4.183 5.641,3.6 6.429,3.6 L9.643,3.6 L9.643,3.3 C9.643,2.583 10.283,2 11.071,2 L12.929,2 C13.717,2 14.357,2.583 14.357,3.3 L14.357,3.6 L17.571,3.6 Z" id="Combined-Shape"></path>
        </g>
    </g>
</svg>