<svg width="24" height="24" fill="none" xmlns="http://www.w3.org/2000/svg"><path fill-rule="evenodd" clip-rule="evenodd" d="M7.286 13.67 5 15.956a8.04 8.04 0 0 0 2.828 2.829l2.192-2.192a5.015 5.015 0 0 1-2.734-2.923Zm.058-3.497a5.016 5.016 0 0 1 2.829-2.829L7.828 5A8.04 8.04 0 0 0 5 7.828l2.344 2.345Zm6.326-2.887a5.015 5.015 0 0 1 2.923 2.734l2.192-2.192A8.04 8.04 0 0 0 15.956 5L13.67 7.286Zm2.986 6.541a5.016 5.016 0 0 1-2.829 2.829l2.13 2.129a8.039 8.039 0 0 0 2.828-2.829l-2.13-2.129ZM12 22C6.477 22 2 17.523 2 12S6.477 2 12 2s10 4.477 10 10-4.477 10-10 10Zm0-7a3 3 0 1 0 0-6 3 3 0 0 0 0 6Z" fill="#000"/></svg>