<svg width="24" height="24" fill="none" xmlns="http://www.w3.org/2000/svg"><path fill-rule="evenodd" clip-rule="evenodd" d="M7.106 3.553A1 1 0 0 1 8 3h8a1 1 0 0 1 .894.553L17.618 5H21a1 1 0 0 1 1 1v14a1 1 0 0 1-1 1H3a1 1 0 0 1-1-1V6a1 1 0 0 1 1-1h3.382l.724-1.447ZM8.618 5l-1 2H4v12h16V7h-3.618l-1-2H8.618Z" fill="#000"/><path d="M8.146 9.854a.5.5 0 0 1 .854.353V12h6v-1.793a.5.5 0 0 1 .854-.353l2.792 2.792a.5.5 0 0 1 0 .708l-2.792 2.792a.5.5 0 0 1-.854-.353V14H9v1.793a.5.5 0 0 1-.854.353l-2.792-2.792a.5.5 0 0 1 0-.708l2.792-2.792Z" fill="#000"/></svg>