<svg xmlns="http://www.w3.org/2000/svg" width="24" height="24" viewBox="0 0 24 24">
  <path fill-rule="evenodd" d="M19.75,19.0001 L16.75,19.0001 L16.75,14.0211 C16.75,12.8581 16.473,11.3631 14.875,11.3631 C13.254,11.3631 12.75,12.6301 12.75,13.9381 L12.75,19.0001 L9.75,19.0001 L9.75,9.0001 L12.75,9.0001 L12.75,10.0001 L12.961,10.0001 C13.377,9.0001 14.446,8.5031 15.961,8.5031 C19.115,8.5031 19.75,10.6991 19.75,13.3981 L19.75,19.0001 Z M4.25,6.0001 C4.25,4.8961 5.143,4.0001 6.251,4.0001 C7.354,4.0001 8.25,4.8961 8.25,6.0001 C8.25,7.1041 7.354,8.0001 6.251,8.0001 C5.143,8.0001 4.25,7.1041 4.25,6.0001 Z M4.75,19.0001 L7.75,19.0001 L7.75,9.0001 L4.75,9.0001 L4.75,19.0001 Z"/>
</svg>
