<svg xmlns="http://www.w3.org/2000/svg" width="24" height="24" viewBox="0 0 24 24">
  <path fill-rule="evenodd" d="M19,6.17070571 C20.1651924,6.58254212 21,7.69378117 21,9 C21,10.3062188 20.1651924,11.4174579 19,11.8292943 L19,20 C19,20.5522847 18.5522847,21 18,21 C17.4477153,21 17,20.5522847 17,20 L17,11.8292943 C15.8348076,11.4174579 15,10.3062188 15,9 C15,7.69378117 15.8348076,6.58254212 17,6.17070571 L17,4 C17,3.44771525 17.4477153,3 18,3 C18.5522847,3 19,3.44771525 19,4 L19,6.17070571 Z M13,13.1707057 C14.1651924,13.5825421 15,14.6937812 15,16 C15,17.3062188 14.1651924,18.4174579 13,18.8292943 L13,20 C13,20.5522847 12.5522847,21 12,21 C11.4477153,21 11,20.5522847 11,20 L11,18.8292943 C9.83480763,18.4174579 9,17.3062188 9,16 C9,14.6937812 9.83480763,13.5825421 11,13.1707057 L11,4 C11,3.44771525 11.4477153,3 12,3 C12.5522847,3 13,3.44771525 13,4 L13,13.1707057 L13,13.1707057 Z M7,6.17070571 C8.16519237,6.58254212 9,7.69378117 9,9 C9,10.3062188 8.16519237,11.4174579 7,11.8292943 L7,20 C7,20.5522847 6.55228475,21 6,21 C5.44771525,21 5,20.5522847 5,20 L5,11.8292943 C3.83480763,11.4174579 3,10.3062188 3,9 C3,7.69378117 3.83480763,6.58254212 5,6.17070571 L5,4 C5,3.44771525 5.44771525,3 6,3 C6.55228475,3 7,3.44771525 7,4 L7,6.17070571 Z"/>
</svg>
