<svg xmlns="http://www.w3.org/2000/svg" xmlns:xlink="http://www.w3.org/1999/xlink" width="24" height="24" viewBox="0 0 24 24">
  <defs>
    <path id="24x24_add_call_outline-a" d="M19.8671253,14.0014422 L16.9659367,12.3303 L16.9191334,12.3024 C16.5699086,12.1287 16.2305846,12.0495 15.8876604,12.0495 C15.2720168,12.0495 14.6797749,12.2997 14.2639455,12.7344 L13.1163643,13.9575 C12.7608391,13.7568 12.1991994,13.368 11.444946,12.6264 C10.6510898,11.8461 10.2460612,11.2674 10.0435468,10.9101 L11.0984215,9.7833 C11.7185654,9.1335 11.8859772,8.094 11.4962496,7.2678 L11.4494463,7.1751 L9.77802806,4.1052 C9.42700322,3.4212 8.75015533,3 7.99320177,3 C7.4396626,3 6.91942579,3.225 6.52699802,3.6354 L3.75480186,6.5631 C3.3695746,6.9654 3.08425442,7.572 3.01854977,8.139 C2.97174645,8.5368 2.70262741,12.1548 7.40636024,16.779 C10.1399327,19.4660399 12.496496,20.4624786 14.0550779,20.816409 C14.0187598,20.5494553 14,20.2769184 14,20 C14,19.57919 14.0433208,19.1684982 14.125746,18.7721409 C13.8555192,18.6940563 13.5672356,18.5938107 13.2617581,18.4682672 C11.869668,17.8961534 10.3751976,16.8928431 8.80838199,15.3526988 C6.95388856,13.529562 5.85421024,11.8066242 5.32684826,10.2370958 C5.1487129,9.70693147 5.05130976,9.23565488 5.01503045,8.82887553 C4.99417795,8.59506834 4.99700432,8.43937438 5.00484906,8.37269881 C5.02067775,8.23613126 5.11519947,8.03419386 5.19933464,7.94632993 C7.05924778,5.98210998 7.9923573,5.00611991 7.9986632,5.01835974 L9.7109011,8.16920479 C9.72452615,8.19977136 9.70043415,8.35129471 9.65157723,8.40248803 L8.58350279,9.54325277 L7.57842635,10.6168591 L8.30359508,11.8962885 C8.66698921,12.5374319 9.23327711,13.2568798 10.0429632,14.0527395 C10.8147193,14.8115486 11.5114685,15.3481844 12.1331744,15.699148 L13.5005203,16.471038 L15.7224694,14.1028692 C15.7456775,14.0787429 15.814976,14.0495 15.8876604,14.0495 C15.9145464,14.0495 15.9412637,14.0544359 15.9839118,14.0724515 L17.127252,14.7311366 C17.9440219,14.2848634 18.8759669,14.022978 19.8671253,14.0014422 Z M21,19 L21,17 C21,16.4477153 20.5522847,16 20,16 C19.4477153,16 19,16.4477153 19,17 L19,19 L17,19 C16.4477153,19 16,19.4477153 16,20 C16,20.5522847 16.4477153,21 17,21 L19,21 L19,23 C19,23.5522847 19.4477153,24 20,24 C20.5522847,24 21,23.5522847 21,23 L21,21 L23,21 C23.5522847,21 24,20.5522847 24,20 C24,19.4477153 23.5522847,19 23,19 L21,19 Z"/>
  </defs>
  <g fill="none" fill-rule="evenodd">
    <use fill="#000" xlink:href="#24x24_add_call_outline-a"/>
  </g>
</svg>
