<?xml version="1.0" encoding="UTF-8"?>
<svg width="24px" height="24px" viewBox="0 0 24 24" version="1.1" xmlns="http://www.w3.org/2000/svg" xmlns:xlink="http://www.w3.org/1999/xlink">
    <!-- Generator: Sketch 46.2 (44496) - http://www.bohemiancoding.com/sketch -->
    <title>24x24_list_outline</title>
    <desc>Created with Sketch.</desc>
    <defs></defs>
    <g id="Page-1" stroke="none" stroke-width="1" fill="none" fill-rule="evenodd">
        <g id="24x24_list_outline" fill="#000000">
            <path d="M11,5 L20,5 C20.5522847,5 21,5.44771525 21,6 L21,6 C21,6.55228475 20.5522847,7 20,7 L11,7 C10.4477153,7 10,6.55228475 10,6 L10,6 L10,6 C10,5.44771525 10.4477153,5 11,5 Z M11,11 L20,11 C20.5522847,11 21,11.4477153 21,12 C21,12.5522847 20.5522847,13 20,13 L11,13 C10.4477153,13 10,12.5522847 10,12 C10,11.4477153 10.4477153,11 11,11 Z M11,17 L20,17 C20.5522847,17 21,17.4477153 21,18 C21,18.5522847 20.5522847,19 20,19 L11,19 C10.4477153,19 10,18.5522847 10,18 C10,17.4477153 10.4477153,17 11,17 Z M4,5 L6,5 C6.55228475,5 7,5.44771525 7,6 L7,6 C7,6.55228475 6.55228475,7 6,7 L4,7 C3.44771525,7 3,6.55228475 3,6 L3,6 L3,6 C3,5.44771525 3.44771525,5 4,5 L4,5 Z M4,11 L6,11 C6.55228475,11 7,11.4477153 7,12 C7,12.5522847 6.55228475,13 6,13 L4,13 C3.44771525,13 3,12.5522847 3,12 C3,11.4477153 3.44771525,11 4,11 L4,11 Z M4,17 L6,17 C6.55228475,17 7,17.4477153 7,18 C7,18.5522847 6.55228475,19 6,19 L4,19 C3.44771525,19 3,18.5522847 3,18 C3,17.4477153 3.44771525,17 4,17 L4,17 Z" id="Icon"></path>
        </g>
    </g>
</svg>