<?xml version="1.0" encoding="UTF-8"?>
<svg width="24px" height="24px" viewBox="0 0 24 24" version="1.1" xmlns="http://www.w3.org/2000/svg" xmlns:xlink="http://www.w3.org/1999/xlink">
    <!-- Generator: Sketch 46.1 (44463) - http://www.bohemiancoding.com/sketch -->
    <title>24x24_avatar</title>
    <desc>Created with Sketch.</desc>
    <defs></defs>
    <g id="Page-1" stroke="none" stroke-width="1" fill="none" fill-rule="evenodd">
        <g id="24x24_avatar" fill="#000000">
            <path d="M12,3.5 C9.794,3.5 8,5.294 8,7.5 C8,9.706 9.794,11.5 12,11.5 C14.206,11.5 16,9.706 16,7.5 C16,5.294 14.206,3.5 12,3.5 M12,12.5 C9.243,12.5 7,10.257 7,7.5 C7,4.743 9.243,2.5 12,2.5 C14.757,2.5 17,4.743 17,7.5 C17,10.257 14.757,12.5 12,12.5 Z M19.5,21 L18.5,21 C18.5,17.416 15.584,14.5 12,14.5 C8.416,14.5 5.5,17.416 5.5,21 L4.5,21 C4.5,16.864 7.864,13.5 12,13.5 C16.136,13.5 19.5,16.864 19.5,21 Z" id="Combined-Shape"></path>
        </g>
    </g>
</svg>