<svg xmlns="http://www.w3.org/2000/svg" xmlns:xlink="http://www.w3.org/1999/xlink" width="24" height="24" viewBox="0 0 24 24">
  <defs>
    <path id="24x24_chevron_down_outline-a" d="M11.9499998,12.5355339 L7.70717918,8.29289322 C7.31663833,7.90236893 6.6834465,7.90236893 6.29290564,8.29289322 C5.90236479,8.68341751 5.90236479,9.31658249 6.29290564,9.70710678 L11.9499998,15.363961 L17.607094,9.70710678 C17.9976348,9.31658249 17.9976348,8.68341751 17.607094,8.29289322 C17.2165531,7.90236893 16.5833613,7.90236893 16.1928204,8.29289322 L11.9499998,12.5355339 Z"/>
  </defs>
  <g fill="none" fill-rule="evenodd">
    <use fill="#D8D8D8" xlink:href="#24x24_chevron_down_outline-a"/>
    <path stroke="#000" d="M11.9499998,14.6568692 L17.2535481,9.35354589 C17.4488168,9.15828546 17.4488168,8.84171454 17.2535481,8.64645411 C17.0582677,8.45118196 16.7416468,8.45118196 16.5463663,8.64645411 L11.9499998,13.2426257 L7.35363329,8.64645411 C7.15835287,8.45118196 6.84173196,8.45118196 6.64645153,8.64645411 C6.45118282,8.84171454 6.45118282,9.15828546 6.64645153,9.35354589 L11.9499998,14.6568692 Z"/>
  </g>
</svg>
