<?xml version="1.0" encoding="UTF-8"?>
<svg width="24px" height="24px" viewBox="0 0 24 24" version="1.1" xmlns="http://www.w3.org/2000/svg" xmlns:xlink="http://www.w3.org/1999/xlink">
    <!-- Generator: Sketch 46.2 (44496) - http://www.bohemiancoding.com/sketch -->
    <title>24x24_meeting_planner_outline</title>
    <desc>Created with Sketch.</desc>
    <defs></defs>
    <g id="Page-1" stroke="none" stroke-width="1" fill="none" fill-rule="evenodd">
        <g id="24x24_meeting_planner_outline" fill="#000000">
            <path d="M21,9.00000003 C20.7443333,9.00006355 20.4886863,9.09756354 20.29325,9.2925 L19,10.58575 L19,7 L21,7 L21,9.00000003 C21.2558333,8.99993647 21.5116863,9.09743646 21.70725,9.2925 C22.09825,9.6835 22.09825,10.3165 21.70725,10.7065 L21,11.41375 L21,18.5 C21,19.878 19.879,21 18.5,21 L5.5,21 C4.121,21 3,19.878 3,18.5 L3,5.5 C3,4.122 4.121,3 5.5,3 L6,3 L6,2 L8,2 L8,3 L11,3 L11,2 L13,2 L13,3 L16,3 L16,2 L18,2 L18,3 L18.5,3 C19.879,3 21,4.122 21,5.5 L21,9.00000003 Z M19,10.58575 L19,7 L5,7 L5,17.6363636 C5,18.3881818 5.588875,19 6.3125,19 L17.6875,19 C18.411125,19 19,18.3881818 19,17.6363636 L19,13.41375 L15.85725,16.5565 L12.29325,12.9925 C11.90225,12.6015 11.90225,11.9695 12.29325,11.5785 C12.68425,11.1875 13.31625,11.1875 13.70725,11.5785 L15.85725,13.7285 L19,10.58575 Z M21,11.41375 L19,13.41375 L19,15 L21,15 L21,11.41375 Z M21,9.00000003 L21,11.41375 L21,11.41375 L21,9.00000003 C21.2558333,8.99993647 21.5116863,9.09743646 21.70725,9.2925 C22.09825,9.6835 22.09825,10.3165 21.70725,10.7065 L21,11.41375 Z M19,10.58575 L19,13.41375 L19,13.41375 L19,10.58575 L19,10.58575 Z" id="Icon"></path>
        </g>
    </g>
</svg>