<?xml version="1.0" encoding="UTF-8"?>
<svg width="24px" height="24px" viewBox="0 0 24 24" version="1.1" xmlns="http://www.w3.org/2000/svg" xmlns:xlink="http://www.w3.org/1999/xlink">
    <!-- Generator: Sketch 46.2 (44496) - http://www.bohemiancoding.com/sketch -->
    <title>24x24_magic_outline</title>
    <desc>Created with Sketch.</desc>
    <defs></defs>
    <g id="Page-1" stroke="none" stroke-width="1" fill="none" fill-rule="evenodd">
        <g id="24x24_magic_outline" fill="#000000">
            <path d="M5.53529811,3.17444844 L4.866,4.8654 L3.17385611,5.53552677 L3.17385611,5.53552677 C2.91711371,5.63720249 2.79140734,5.92775778 2.89308306,6.18450018 C2.94390638,6.31283465 3.04552164,6.41444992 3.17385611,6.46527323 L4.866,7.1354 L5.53532008,8.82581686 L5.53532008,8.82581686 C5.63697969,9.08256564 5.9275271,9.20829026 6.18427588,9.10663065 C6.31258505,9.05582667 6.41419138,8.954251 6.46503409,8.82595716 L7.135,7.1354 L8.82714389,6.46527323 L8.82714389,6.46527323 C9.08388629,6.36359751 9.20959266,6.07304222 9.10791694,5.81629982 C9.05709362,5.68796535 8.95547836,5.58635008 8.82714389,5.53552677 L7.135,4.8654 L6.46505612,3.17430817 L6.46505612,3.17430817 C6.36334972,2.91757792 6.07277941,2.79190626 5.81604916,2.89361266 C5.68771062,2.94445533 5.58610205,3.04609456 5.53529811,3.17444844 Z M3.51521356,19.0706136 L4.92978644,20.4851864 L4.92969553,20.4852773 C5.71074411,21.2663259 6.97707407,21.2663259 7.75812265,20.4852773 C7.75815296,20.485247 7.75818326,20.4852167 7.75821356,20.4851864 L20.4848774,7.75670447 L20.4847864,7.75661356 C21.2657493,6.97555028 21.2657086,5.70929043 20.4846955,4.92827735 L19.0712136,3.51461356 L19.0712136,3.51461356 C18.290165,2.73356498 17.023835,2.73356498 16.2427864,3.51461356 L3.51521356,16.2421864 L3.51521356,16.2421864 C2.73416498,17.023235 2.73416498,18.289565 3.51521356,19.0706136 Z M14.828,7.7574 L17.657,4.9294 L19.072,6.3424 L16.243,9.1714 L14.828,7.7574 Z M17.65,17.6484 L16.6736813,18.0352947 L16.6736813,18.0352947 C16.4169615,18.1370274 16.2913196,18.4276105 16.3930523,18.6843304 C16.4439014,18.8126468 16.5455313,18.9142359 16.6738682,18.9650334 L17.65,19.3514 L18.0356244,20.3258956 L18.0356244,20.3258956 C18.1372324,20.5826648 18.4277544,20.7084479 18.6845237,20.60684 C18.8128268,20.5560682 18.9144449,20.4545319 18.9653198,20.3262697 L19.352,19.3514 L20.3277517,18.9650041 L20.3277517,18.9650041 C20.5844963,18.8633338 20.7102087,18.5727811 20.6085384,18.3160366 C20.5577408,18.1877593 20.4561955,18.0861732 20.3279387,18.035324 L19.352,17.6484 L18.9653198,16.6735303 L18.9653198,16.6735303 C18.8635053,16.4168429 18.5728821,16.2912937 18.3161947,16.3931083 C18.1879324,16.4439832 18.0863961,16.5456013 18.0356244,16.6739044 L17.65,17.6484 Z" id="Icon"></path>
        </g>
    </g>
</svg>