<svg xmlns="http://www.w3.org/2000/svg" width="24" height="24" viewBox="0 0 24 24">
  <path d="M18,19 L18,11 L20,11 L20,21 L4,21 L4,11 L6,11 L6,19 L18,19 Z M6,11.4130565 L6,19 L9,19 L9,15 L15,15 L15,19 L18,19 L18,11.4153757 L12.0092887,5.4142141 L6,11.4130565 Z M4,13.4095798 L3.70133899,13.7077217 C3.31047511,14.0979061 2.67731037,14.0973553 2.28712596,13.7064914 C1.89694155,13.3156275 1.89749236,12.6824628 2.28835623,12.2922783 L11.3040287,3.29227835 C11.694893,2.90209352 12.3280586,2.90264481 12.7182428,3.2935097 L21.7025703,12.2935097 C22.0927542,12.6843742 22.0922024,13.3175389 21.7013379,13.7077227 C21.3104734,14.0979065 20.6773087,14.0973548 20.2871249,13.7064903 L20,13.4188645 L20,21 L4,21 L4,13.4095798 Z M11,19 L13,19 L13,17 L11,17 L11,19 Z"/>
</svg>
