<svg width="24" height="24" fill="none" xmlns="http://www.w3.org/2000/svg"><g clip-path="url(#24x24_front_hand_outline__a)"><path d="M18.5 8c-.17 0-.34.02-.5.05V4.5a2.5 2.5 0 0 0-3.04-2.44A2.502 2.502 0 0 0 12.5 0c-1.06 0-1.96.66-2.33 1.59A2.5 2.5 0 0 0 7 4v.55A2.5 2.5 0 0 0 4 7v8.5c0 4.69 3.81 8.5 8.5 8.5 4.69 0 8.5-3.81 8.5-8.5v-5A2.5 2.5 0 0 0 18.5 8Zm.5 7.5a6.5 6.5 0 1 1-13 0V7c0-.28.22-.5.5-.5s.5.22.5.5v4a1 1 0 1 0 2 0V4c0-.28.22-.5.5-.5s.5.22.5.5v6a1 1 0 1 0 2 0V2.5c0-.28.22-.5.5-.5s.5.22.5.5V10a1 1 0 1 0 2 0V4.5c0-.28.22-.5.5-.5s.5.22.5.5v8.92a4.992 4.992 0 0 0-2.902 3.586c-.109.542.35.994.902.994s.984-.46 1.164-.982c.19-.55.533-1.026.98-1.377C17.012 14.958 18 14.105 18 13v-2.5c0-.28.22-.5.5-.5s.5.22.5.5v5Z" fill="#000"/></g><defs><clipPath id="24x24_front_hand_outline__a"><path fill="#fff" d="M0 0h24v24H0z"/></clipPath></defs></svg>