<svg width="24" height="24" viewBox="0 0 24 24" fill="none" xmlns="http://www.w3.org/2000/svg"><path fill-rule="evenodd" clip-rule="evenodd" d="M8 6a4 4 0 1 1 8 0h2a2 2 0 0 1 2 2v3.05a1 1 0 0 1-1.199.98 1.5 1.5 0 1 0 0 2.94 1 1 0 0 1 1.199.98V19a2 2 0 0 1-2 2H6a2 2 0 0 1-2-2v-3.05a1 1 0 0 1 1.199-.98 1.5 1.5 0 1 0 0-2.94A1 1 0 0 1 4 11.05V8a2 2 0 0 1 2-2h2Zm4-2a2 2 0 0 0-1.886 2.667A1 1 0 0 1 9.17 8H6v2.035a3.5 3.5 0 0 1 0 6.93V19h12v-2.035a3.501 3.501 0 0 1 0-6.93V8h-3.17a1 1 0 0 1-.944-1.333A2 2 0 0 0 12 4Z" fill="#000"/></svg>