<svg width="24" height="24" fill="none" xmlns="http://www.w3.org/2000/svg"><path fill-rule="evenodd" clip-rule="evenodd" d="m9.413 17.415-1.477 1.477A7.964 7.964 0 0 0 12 20a7.964 7.964 0 0 0 4.064-1.108l-1.477-1.477A5.977 5.977 0 0 1 12 18c-.926 0-1.804-.21-2.587-.585Zm8.002-8.002c.375.783.585 1.66.585 2.587 0 .926-.21 1.804-.585 2.587l1.477 1.477A7.964 7.964 0 0 0 20 12a7.964 7.964 0 0 0-1.108-4.064l-1.477 1.477Zm-10.83 5.174A5.976 5.976 0 0 1 6 12c0-.926.21-1.804.585-2.587L5.108 7.936A7.963 7.963 0 0 0 4 12a7.96 7.96 0 0 0 1.108 4.064l1.477-1.477Zm8.002-8.002 1.477-1.477A7.963 7.963 0 0 0 12 4a7.963 7.963 0 0 0-4.064 1.108l1.477 1.477A5.976 5.976 0 0 1 12 6c.926 0 1.804.21 2.587.585ZM12 22C6.477 22 2 17.523 2 12S6.477 2 12 2s10 4.477 10 10-4.477 10-10 10Zm0-6a4 4 0 1 0 0-8 4 4 0 0 0 0 8Z" fill="#000"/></svg>