<svg xmlns="http://www.w3.org/2000/svg" xmlns:xlink="http://www.w3.org/1999/xlink" width="24" height="24" viewBox="0 0 24 24">
  <defs>
    <path id="24x24_idea_filled-a" d="M4,10 C4,5.581722 7.581722,2 12,2 C16.418278,2 20,5.581722 20,10 C20,12.9611294 18.3912055,15.5465048 16,16.9297424 L16,18 C16,20.209139 14.209139,22 12,22 C9.790861,22 8,20.209139 8,18 L8,16.9297424 C5.60879452,15.5465048 4,12.9611294 4,10 Z M10,18 C10,19.1045695 10.8954305,20 12,20 C13.1045695,20 14,19.1045695 14,18 L10,18 Z M12,6 C9.790861,6 8,7.790861 8,10 C8,10.5522847 8.44771525,11 9,11 C9.55228475,11 10,10.5522847 10,10 C10,8.8954305 10.8954305,8 12,8 C12.5522847,8 13,7.55228475 13,7 C13,6.44771525 12.5522847,6 12,6 Z"/>
  </defs>
  <g fill="none" fill-rule="evenodd">
    <use fill="#000" fill-rule="nonzero" xlink:href="#24x24_idea_filled-a"/>
  </g>
</svg>
