<svg xmlns="http://www.w3.org/2000/svg" width="24" height="24" viewBox="0 0 24 24">
  <path d="M20,12.2361065 L20,21 L4,21 L4,12.2361065 C3.38625064,11.686786 3,10.8884998 3,10 L3,4 C3,3.44771525 3.44771525,3 4,3 L20,3 C20.5522847,3 21,3.44771525 21,4 L21,10 C21,10.8884998 20.6137494,11.686786 20,12.2361065 Z M10,16 L10,19 L14,19 L14,16 L10,16 Z M5,10 C5,10.5522847 5.44771525,11 6,11 C6.55228475,11 7,10.5522847 7,10 L7,5 L5,5 L5,10 Z M9,10 C9,10.5522847 9.44771525,11 10,11 C10.5522847,11 11,10.5522847 11,10 L11,5 L9,5 L9,10 Z M13,10 C13,10.5522847 13.4477153,11 14,11 C14.5522847,11 15,10.5522847 15,10 L15,5 L13,5 L13,10 Z M17,5 L17,10 C17,10.5522847 17.4477153,11 18,11 C18.5522847,11 19,10.5522847 19,10 L19,5 L17,5 Z"/>
</svg>
