<svg width="24" height="24" fill="none" xmlns="http://www.w3.org/2000/svg"><g clip-path="url(#24x24_sync_outline__a)"><path fill-rule="evenodd" clip-rule="evenodd" d="M16 20.5 12 17v2.5c-4.136 0-7.5-3.364-7.5-7.5a7.492 7.492 0 0 1 3.182-6.122L6.145 4.534C3.93 6.275 2.5 8.971 2.5 12c0 5.238 4.262 9.5 9.5 9.5V24l4-3.5ZM12 7V4.5c4.136 0 7.5 3.364 7.5 7.5a7.493 7.493 0 0 1-3.181 6.122l1.536 1.344C20.07 17.725 21.5 15.029 21.5 12c0-5.238-4.262-9.5-9.5-9.5V0L8 3.5 12 7Z" fill="#000"/></g><defs><clipPath id="24x24_sync_outline__a"><path fill="#fff" d="M0 0h24v24H0z"/></clipPath></defs></svg>