<svg xmlns="http://www.w3.org/2000/svg" xmlns:xlink="http://www.w3.org/1999/xlink" width="24" height="24" viewBox="0 0 24 24">
  <defs>
    <path id="24x24_task_outline-a" d="M18,7 C18,6.44771525 18.4477153,6 19,6 C19.5522847,6 20,6.44771525 20,7 L20,20 C20,21.1045695 19.1045695,22 18,22 L6,22 C4.8954305,22 4,21.1045695 4,20 L4,7 C4,6.44771525 4.44771525,6 5,6 C5.55228475,6 6,6.44771525 6,7 L6,20 L18,20 L18,7 Z M10,11 L14,11 C14.5522847,11 15,11.4477153 15,12 C15,12.5522847 14.5522847,13 14,13 L10,13 C9.44771525,13 9,12.5522847 9,12 C9,11.4477153 9.44771525,11 10,11 Z M10,15 L14,15 C14.5522847,15 15,15.4477153 15,16 C15,16.5522847 14.5522847,17 14,17 L10,17 C9.44771525,17 9,16.5522847 9,16 C9,15.4477153 9.44771525,15 10,15 Z M10.2675644,3 C10.6133738,2.40219863 11.2597176,2 12,2 C12.7402824,2 13.3866262,2.40219863 13.7324356,3 L14,3 C15.1045695,3 16,3.8954305 16,5 L16,7 C16,7.55228475 15.5522847,8 15,8 L9,8 C8.44771525,8 8,7.55228475 8,7 L8,5 C8,3.8954305 8.8954305,3 10,3 L10.2675644,3 Z M10,5 L10,6 L14,6 L14,5 L10,5 Z M12,4 C11.4477153,4 11,4.44771525 11,5 L13,5 C13,4.44771525 12.5522847,4 12,4 Z"/>
  </defs>
  <g fill="none" fill-rule="evenodd">
    <use fill="#000" fill-rule="nonzero" xlink:href="#24x24_task_outline-a"/>
  </g>
</svg>
