<svg width="24" height="24" viewBox="0 0 24 24" fill="none" xmlns="http://www.w3.org/2000/svg">
<path d="M9 15.75C9 15.3358 9.33579 15 9.75 15H13.75C14.1642 15 14.5 15.3358 14.5 15.75C14.5 16.1642 14.1642 16.5 13.75 16.5H9.75C9.33579 16.5 9 16.1642 9 15.75Z" fill="#1A1C20"/>
<path d="M9 18.25C9 17.8358 9.33579 17.5 9.75 17.5H13.75C14.1642 17.5 14.5 17.8358 14.5 18.25C14.5 18.6642 14.1642 19 13.75 19H9.75C9.33579 19 9 18.6642 9 18.25Z" fill="#1A1C20"/>
<path fill-rule="evenodd" clip-rule="evenodd" d="M6 3V7H4C2.89539 7 2 7.89545 2 9V15C2 16.1046 2.89539 17 4 17H6V21C6 21.5523 6.44771 22 7 22H17C17.5523 22 18 21.5523 18 21V17H20C21.1046 17 22 16.1046 22 15V9C22 7.89545 21.1046 7 20 7H18V3C18 2.44772 17.5523 2 17 2H7C6.44772 2 6 2.44772 6 3ZM8 4V7H16V4H8ZM19 11C19.5522 11 20 10.5523 20 10C20 9.44769 19.5522 9 19 9C18.4478 9 18 9.44769 18 10C18 10.5523 18.4478 11 19 11ZM8 15C8 14.4477 8.44772 14 9 14H15C15.5523 14 16 14.4477 16 15V19C16 19.5523 15.5523 20 15 20H9C8.44772 20 8 19.5523 8 19V15Z" fill="#1A1C20"/>
</svg>
