<svg xmlns="http://www.w3.org/2000/svg" width="24" height="24" viewBox="0 0 24 24">
  <path d="M13,9.80269317 C13.8825201,9.29218286 14.9071386,9 16,9 C19.3137085,9 22,11.6862915 22,15 C22,15.5522847 21.5522847,16 21,16 C20.4477153,16 20,15.5522847 20,15 C20,12.790861 18.209139,11 16,11 C14.8053075,11 13.7329445,11.5237549 13,12.3541756 L13,9.80269317 L13,9.80269317 Z M16,8 C14.3431458,8 13,6.65685425 13,5 C13,3.34314575 14.3431458,2 16,2 C17.6568542,2 19,3.34314575 19,5 C19,6.65685425 17.6568542,8 16,8 Z M16,6 C16.5522847,6 17,5.55228475 17,5 C17,4.44771525 16.5522847,4 16,4 C15.4477153,4 15,4.44771525 15,5 C15,5.55228475 15.4477153,6 16,6 Z M4,21 C4,21.5522847 3.55228475,22 3,22 C2.44771525,22 2,21.5522847 2,21 C2,17.6862915 4.6862915,15 8,15 C11.3137085,15 14,17.6862915 14,21 C14,21.5522847 13.5522847,22 13,22 C12.4477153,22 12,21.5522847 12,21 C12,18.790861 10.209139,17 8,17 C5.790861,17 4,18.790861 4,21 Z M8,14 C6.34314575,14 5,12.6568542 5,11 C5,9.34314575 6.34314575,8 8,8 C9.65685425,8 11,9.34314575 11,11 C11,12.6568542 9.65685425,14 8,14 Z M8,12 C8.55228475,12 9,11.5522847 9,11 C9,10.4477153 8.55228475,10 8,10 C7.44771525,10 7,10.4477153 7,11 C7,11.5522847 7.44771525,12 8,12 Z"/>
</svg>
