<svg xmlns="http://www.w3.org/2000/svg" width="24" height="24" viewBox="0 0 24 24">
  <path d="M15,14 L13,14 L13,12 L7,12 L7,17 L3,17 L3,21 L5,21 L5,19 L7,19 L7,21 L8,21 L9,21 L9,14 L11,14 L11,21 L13,21 L13,16 L15,16 L15,21 L17,21 L17,12.1818182 L19,12.1818182 L19,21 L21,21 L21,10 L15,10 L15,14 Z M5.57919673,9.23781307 C5.1289496,9.55765047 4.50467274,9.45193249 4.18483533,9.00168536 C3.86499793,8.55143822 3.97071591,7.92716136 4.42096304,7.60732396 L8.71729662,4.5553819 C9.52576517,3.98107845 10.632984,4.0859401 11.319264,4.80180708 L13.1423027,6.70344064 L18.4453797,3.16805598 C18.9049084,2.86170352 19.5257777,2.98587739 19.8321302,3.44540608 C20.1384826,3.90493477 20.0143088,4.52580411 19.5547801,4.83215657 L14.2517031,8.36754123 C13.445234,8.90518731 12.3693246,8.78717781 11.698569,8.08750456 L9.87553031,6.18587101 L5.57919673,9.23781307 Z"/>
</svg>
