<svg width="24" height="24" viewBox="0 0 24 24" fill="none" xmlns="http://www.w3.org/2000/svg"><path d="M14.007 19.708a6.02 6.02 0 0 0 .242 2.009A9 9 0 0 1 9.06 4.49 2 2 0 0 1 11 2h2a2 2 0 0 1 1.94 2.49 8.965 8.965 0 0 1 1.852.89l.019-.02a1.803 1.803 0 0 1 2.55 0l.278.278a1.803 1.803 0 0 1-.02 2.57A8.958 8.958 0 0 1 21 13c0 .363-.021.72-.063 1.073a6.038 6.038 0 0 0-2.023.025 7 7 0 1 0-4.907 5.61ZM21 19h2a1 1 0 1 1 0 2h-2v2a1 1 0 1 1-2 0v-2h-2a1 1 0 1 1 0-2h2v-2a1 1 0 1 1 2 0v2Zm-10-7.732V9a1 1 0 1 1 2 0v2.268A2 2 0 0 1 12 15a2 2 0 0 1-1-3.732Z" fill="#000"/></svg>