<svg xmlns="http://www.w3.org/2000/svg" xmlns:xlink="http://www.w3.org/1999/xlink" width="24" height="24" viewBox="0 0 24 24">
  <defs>
    <path id="24x24_archive_outline-a" d="M5,9 L5,19 L19,19 L19,9 L5,9 Z M21,9 L21,19 C21,20.1045695 20.1045695,21 19,21 L5,21 C3.8954305,21 3,20.1045695 3,19 L3,9 C2.44771525,9 2,8.55228475 2,8 L2,3 L22,3 L22,8 C22,8.55228475 21.5522847,9 21,9 Z M4,5 L4,7 L20,7 L20,5 L4,5 Z M9.5,11 L14.5,11 L14.5,11 C15.3284271,11 16,11.6715729 16,12.5 L16,12.5 L16,12.5 C16,13.3284271 15.3284271,14 14.5,14 L9.5,14 L9.5,14 C8.67157288,14 8,13.3284271 8,12.5 L8,12.5 L8,12.5 C8,11.6715729 8.67157288,11 9.5,11 Z"/>
  </defs>
  <g fill="none" fill-rule="evenodd">
    <use fill="#000" fill-rule="nonzero" xlink:href="#24x24_archive_outline-a"/>
  </g>
</svg>
