<svg width="24" height="24" viewBox="0 0 24 24" fill="none" xmlns="http://www.w3.org/2000/svg"><path fill-rule="evenodd" clip-rule="evenodd" d="M3.70711 2.29289C3.31658 1.90237 2.68342 1.90237 2.29289 2.29289C1.90237 2.68342 1.90237 3.31658 2.29289 3.70711L3.11676 4.53097C3.04185 4.6719 3 4.832 3 4.99998V13C3 17.9705 7.02944 22 12 22C14.3799 22 16.5441 21.0762 18.1535 19.5677L19.9706 21.3848C20.3611 21.7753 20.9943 21.7753 21.3848 21.3848C21.7753 20.9943 21.7753 20.3611 21.3848 19.9706L19.4562 18.042L19.4572 18.0404L18.0091 16.5923L18.0082 16.594L14.024 12.6098L14.0253 12.6085L12.6113 11.1945L12.61 11.1958L6.75598 5.34176L6.75804 5.34125L5.1088 3.69201L5.10674 3.69252L3.70711 2.29289ZM5 6.41421V13C5 16.866 8.13401 20 12 20C13.8276 20 15.4917 19.2996 16.7383 18.1525L12.6098 14.024L10.8573 15.7765L7.29325 12.2125C6.90225 11.8215 6.90225 11.1895 7.29325 10.7985C7.68425 10.4075 8.31625 10.4075 8.70725 10.7985L10.8573 12.9485L11.1958 12.61L5 6.41421Z" fill="#000"/><path d="M19 13C19 13.1115 18.9974 13.2225 18.9922 13.3328L20.7548 15.0954C20.9151 14.423 21 13.7214 21 13V4.99998C21 4.54111 20.6877 4.14113 20.2425 4.02984L14.4254 2.57555C12.833 2.17745 11.167 2.17744 9.57465 2.57554L8.50291 2.84348L10.1526 4.49319C11.3983 4.19754 12.6973 4.20508 13.9403 4.51583L19 5.78076V13Z" fill="#000"/></svg>