<?xml version="1.0" encoding="UTF-8"?>
<svg width="24px" height="24px" viewBox="0 0 24 24" version="1.1" xmlns="http://www.w3.org/2000/svg" xmlns:xlink="http://www.w3.org/1999/xlink">
    <!-- Generator: Sketch 46.2 (44496) - http://www.bohemiancoding.com/sketch -->
    <title>24x24_idea_outline</title>
    <desc>Created with Sketch.</desc>
    <defs></defs>
    <g id="Page-1" stroke="none" stroke-width="1" fill="none" fill-rule="evenodd">
        <g id="24x24_idea_outline" fill="#000000">
            <path d="M3,8.9998 C3,4.0368 7.037,-0.0002 12,-0.0002 C16.963,-0.0002 21,4.0368 21,8.9998 C21,12.0028 19.465,14.8138 17,16.4738 L17,16.9998 L17,18.9998 C17,20.8778 15.695,22.4458 13.947,22.8748 C13.78,23.5208 13.198,23.9998 12.5,23.9998 L11.5,23.9998 C10.802,23.9998 10.22,23.5208 10.053,22.8748 C8.305,22.4458 7,20.8778 7,18.9998 L7,16.9998 L7,16.4738 C4.535,14.8138 3,12.0028 3,8.9998 Z M15,15.3198 C17.36,14.1898 19,11.7898 19,8.9998 C19,5.1298 15.87,1.9998 12,1.9998 C8.13,1.9998 5,5.1298 5,8.9998 C5,11.7898 6.64,14.1898 9,15.3198 L9,16.9998 L15,16.9998 L15,15.3198 Z M13,20.9998 C14.105,20.9998 15,20.1048 15,18.9998 L9,18.9998 C9,20.1048 9.895,20.9998 11,20.9998 L11.5,20.9998 L12.5,20.9998 L13,20.9998 Z M12,5 C12.552,5 13,5.448 13,6 C13,6.552 12.552,7 12,7 C10.897,7 10,7.897 10,9 C10,9.552 9.552,10 9,10 C8.448,10 8,9.552 8,9 C8,6.794 9.794,5 12,5 Z" id="Icon"></path>
        </g>
    </g>
</svg>