<svg width="24" height="24" viewBox="0 0 24 24" fill="none" xmlns="http://www.w3.org/2000/svg"><path fill-rule="evenodd" clip-rule="evenodd" d="M21 14.083a6.036 6.036 0 0 0-2 0V10H5v9h9.083a6.036 6.036 0 0 0 0 2H5a2 2 0 0 1-2-2V7a2 2 0 0 1 2-2h2V4a1 1 0 0 1 2 0v1h6V4a1 1 0 1 1 2 0v1h2a2 2 0 0 1 2 2v7.083Z" fill="#000"/><path d="M22.622 16c-.353 0-.706.134-.974.404l-4.872 4.872-.758 2.274a.342.342 0 0 0 .432.432l2.274-.758 4.872-4.872a1.372 1.372 0 0 0 0-1.948 1.372 1.372 0 0 0-.974-.404Z" fill="#000"/></svg>