<svg xmlns="http://www.w3.org/2000/svg" xmlns:xlink="http://www.w3.org/1999/xlink" width="24" height="24" viewBox="0 0 24 24">
  <defs>
    <path id="24x24_download_outline-a" d="M12.9980198,13.1755756 L16.2428206,9.9309124 C16.6333615,9.54038811 17.2665533,9.54038811 17.6570942,9.9309124 C18.047635,10.3214367 18.047635,10.9546017 17.6570942,11.345126 L12,17.0019802 L6.34290583,11.345126 C5.95236498,10.9546017 5.95236498,10.3214367 6.34290583,9.9309124 C6.73344669,9.54038811 7.36663852,9.54038811 7.75717937,9.9309124 L10.9980198,13.1716154 L10.9980198,3.97514162 C10.9980198,3.46420012 11.445735,3.05000019 11.9980198,3.05000019 C12.5503045,3.05000019 12.9980198,3.46420012 12.9980198,3.97514162 L12.9980198,13.1755756 Z M6,19 L18,19 C18.5522847,19 19,19.4477153 19,20 C19,20.5522847 18.5522847,21 18,21 L6,21 C5.44771525,21 5,20.5522847 5,20 C5,19.4477153 5.44771525,19 6,19 L6,19 Z"/>
  </defs>
  <g fill="none" fill-rule="evenodd">
    <use fill="#000" xlink:href="#24x24_download_outline-a"/>
  </g>
</svg>
