<svg width="24" height="24" viewBox="0 0 24 24" fill="none" xmlns="http://www.w3.org/2000/svg"><path fill-rule="evenodd" clip-rule="evenodd" d="M19 7.17a3.001 3.001 0 0 1 0 5.66V19a1 1 0 1 1-2 0v-6.17a3.001 3.001 0 0 1 0-5.66V5a1 1 0 1 1 2 0v2.17ZM15 15a3.001 3.001 0 0 1-2 2.83V19a1 1 0 1 1-2 0v-1.17a3.001 3.001 0 0 1 0-5.66V5a1 1 0 1 1 2 0v7.17c1.165.412 2 1.524 2 2.83ZM7 7.17a3.001 3.001 0 0 1 0 5.66V19a1 1 0 1 1-2 0v-6.17a3.001 3.001 0 0 1 0-5.66V5a1 1 0 0 1 2 0v2.17ZM6 11a1 1 0 1 0 0-2 1 1 0 0 0 0 2Zm12 0a1 1 0 1 0 0-2 1 1 0 0 0 0 2Zm-6 5a1 1 0 1 0 0-2 1 1 0 0 0 0 2Z" fill="#000"/></svg>