<svg xmlns="http://www.w3.org/2000/svg" xmlns:xlink="http://www.w3.org/1999/xlink" width="24" height="24" viewBox="0 0 24 24">
  <defs>
    <path id="24x24_building_outline-a" d="M12,20 L12,6 L6,6 L6,12 L8,12 L8,12 C9.1045695,12 10,12.8954305 10,14 L10,20 L8,20 L8,14 L4,14 L4,20 L2,20 L2,14 L2,14 C2,12.8954305 2.8954305,12 4,12 L4,12 L4,6 L4,6 C4,4.8954305 4.8954305,4 6,4 L12,4 L12,4 C13.1045695,4 14,4.8954305 14,6 L14,9 L16,9 L16,7 L16,7 C16,6.44771525 16.4477153,6 17,6 L17,6 L17,6 C17.5522847,6 18,6.44771525 18,7 L18,9 L20,9 L20,9 C21.1045695,9 22,9.8954305 22,11 L22,20 L20,20 L20,11 L14,11 L14,20 L12,20 Z"/>
    <rect id="24x24_building_outline-c" width="6" height="9" x="14" y="11"/>
  </defs>
  <g fill="none" fill-rule="evenodd">
    <mask id="24x24_building_outline-b" fill="#fff">
      <use xlink:href="#24x24_building_outline-a"/>
    </mask>
    <use fill="#000" xlink:href="#24x24_building_outline-a"/>
    <g mask="url(#24x24_building_outline-b)">
      <use fill="#D8D8D8" xlink:href="#24x24_building_outline-c"/>
      <rect width="5" height="8" x="14.5" y="11.5" stroke="#979797"/>
    </g>
  </g>
</svg>
