<svg xmlns="http://www.w3.org/2000/svg" xmlns:xlink="http://www.w3.org/1999/xlink" width="24" height="24" viewBox="0 0 24 24">
  <defs>
    <path id="24x24_ticket_outline-a" d="M5.35009323,11.7126353 L12.2876899,18.650232 L20.0377513,10.8998453 L20.0377513,3.96224866 L13.1001547,3.96224866 L5.35009323,11.7126353 Z M2.57472933,11.7126353 L11.7126353,2.57472933 C12.0806283,2.20673632 12.579734,2 13.1001547,2 L20.0377513,2 C21.1214714,2 22,2.87852865 22,3.96224866 L22,10.8998453 C22,11.420266 21.7932637,11.9193717 21.4252707,12.2873647 L12.2873647,21.4252707 C11.5210589,22.1915764 10.2786318,22.1915764 9.512326,21.4252707 L2.57472933,14.487674 C1.80842356,13.7213682 1.80842356,12.4789411 2.57472933,11.7126353 Z M17.837442,8.93759667 C17.0711362,9.70390244 15.8287091,9.70390244 15.0624033,8.93759667 C14.2960976,8.1712909 14.2960976,6.92886377 15.0624033,6.162558 C15.8287091,5.39625223 17.0711362,5.39625223 17.837442,6.162558 C18.6037478,6.92886377 18.6037478,8.1712909 17.837442,8.93759667 Z"/>
  </defs>
  <g fill="none" fill-rule="evenodd">
    <use fill="#000" fill-rule="nonzero" xlink:href="#24x24_ticket_outline-a"/>
  </g>
</svg>
