<svg width="24" height="24" viewBox="0 0 24 24" fill="none" xmlns="http://www.w3.org/2000/svg"><path fill-rule="evenodd" clip-rule="evenodd" d="M15.998 15.53A5.976 5.976 0 0 0 12 14c-3.309 0-6 2.691-6 6H4c0-4.411 3.589-8 8-8 2.252 0 4.29.935 5.745 2.438a6 6 0 0 0-1.747 1.091ZM4 20h2v1a1 1 0 1 1-2 0v-1Zm8-10a4 4 0 1 1 0-8 4 4 0 0 1 0 8Zm0-2a2 2 0 1 0 0-4 2 2 0 0 0 0 4Zm3.776 12.276 4.872-4.872a1.372 1.372 0 0 1 1.948 0c.27.27.404.621.404.974s-.134.706-.404.974l-4.872 4.872-2.274.758a.341.341 0 0 1-.432-.432l.758-2.274Z" fill="#000"/></svg>