<svg xmlns="http://www.w3.org/2000/svg" width="24" height="24" viewBox="0 0 24 24">
  <path fill-rule="evenodd" d="M13,8.12601749 C14.7252272,8.57006028 16,10.1361606 16,12 C16,13.8638394 14.7252272,15.4299397 13,15.8739825 L13,19 C13,19.5522847 12.5522847,20 12,20 C11.4477153,20 11,19.5522847 11,19 L11,15.8739825 C9.27477279,15.4299397 8,13.8638394 8,12 C8,10.1361606 9.27477279,8.57006028 11,8.12601749 L11,5 C11,4.44771525 11.4477153,4 12,4 C12.5522847,4 13,4.44771525 13,5 L13,8.12601749 Z M12,14 C13.1045695,14 14,13.1045695 14,12 C14,10.8954305 13.1045695,10 12,10 C10.8954305,10 10,10.8954305 10,12 C10,13.1045695 10.8954305,14 12,14 Z"/>
</svg>
