<?xml version="1.0" encoding="UTF-8"?>
<svg width="24px" height="24px" viewBox="0 0 24 24" version="1.1" xmlns="http://www.w3.org/2000/svg" xmlns:xlink="http://www.w3.org/1999/xlink">
    <!-- Generator: Sketch 46.1 (44463) - http://www.bohemiancoding.com/sketch -->
    <title>24x24_hamburger</title>
    <desc>Created with Sketch.</desc>
    <defs></defs>
    <g id="Page-1" stroke="none" stroke-width="1" fill="none" fill-rule="evenodd">
        <g id="24x24_hamburger" fill="#000000">
            <path d="M21,7.5 L3,7.5 C2.724,7.5 2.5,7.276 2.5,7 C2.5,6.724 2.724,6.5 3,6.5 L21,6.5 C21.276,6.5 21.5,6.724 21.5,7 C21.5,7.276 21.276,7.5 21,7.5 Z M21,12.5 L3,12.5 C2.724,12.5 2.5,12.276 2.5,12 C2.5,11.724 2.724,11.5 3,11.5 L21,11.5 C21.276,11.5 21.5,11.724 21.5,12 C21.5,12.276 21.276,12.5 21,12.5 Z M21,17.5 L3,17.5 C2.724,17.5 2.5,17.276 2.5,17 C2.5,16.724 2.724,16.5 3,16.5 L21,16.5 C21.276,16.5 21.5,16.724 21.5,17 C21.5,17.276 21.276,17.5 21,17.5 Z" id="Combined-Shape"></path>
        </g>
    </g>
</svg>