<?xml version="1.0" encoding="UTF-8"?>
<svg width="24px" height="24px" viewBox="0 0 24 24" version="1.1" xmlns="http://www.w3.org/2000/svg" xmlns:xlink="http://www.w3.org/1999/xlink">
    <!-- Generator: Sketch 46.2 (44496) - http://www.bohemiancoding.com/sketch -->
    <title>24x24_help_outline</title>
    <desc>Created with Sketch.</desc>
    <defs></defs>
    <g id="Page-1" stroke="none" stroke-width="1" fill="none" fill-rule="evenodd">
        <g id="24x24_help_outline" fill="#000000">
            <path d="M13.937,11.1864424 C13.774,11.3734424 13.59,11.5384424 13.405,11.7024424 C13.243,11.8434424 13.09,11.9784424 12.987,12.1124424 C12.827,12.3194424 12.735,12.7094424 12.736,12.9814424 C12.737,13.4644424 12.346,13.9754424 11.863,13.9754424 L11.861,13.9754424 C11.378,13.9754424 10.987,13.4684424 10.986,12.9854424 C10.984,12.3234424 11.203,11.6164424 11.602,11.1004424 C11.808,10.8324424 12.042,10.5984424 12.249,10.4164424 C12.376,10.3044424 12.506,10.1794424 12.619,10.0504424 C13.104,9.49444242 13.119,8.63544242 12.653,8.10344242 C12.45,7.87244242 12.118,7.74244242 11.759,7.75544242 C11.401,7.77144242 11.078,7.92944242 10.894,8.18144242 C10.802,8.30944242 10.75,8.47344242 10.75,8.64644242 C10.75,9.12944242 10.359,9.52044242 9.875,9.52044242 C9.392,9.52044242 9,9.12844242 9,8.64544242 C9,8.09844242 9.166,7.58244242 9.479,7.15144242 C9.979,6.46244242 10.782,6.04444242 11.68,6.00344242 C12.584,5.96144242 13.412,6.30544242 13.969,6.94344242 C15,8.12044242 14.987,9.98444242 13.937,11.1864424 M11.857,18.0254424 C11.029,18.0254424 10.357,17.3534424 10.357,16.5254424 C10.357,15.6974424 11.029,15.0254424 11.857,15.0254424 C12.686,15.0254424 13.357,15.6974424 13.357,16.5254424 C13.357,17.3534424 12.686,18.0254424 11.857,18.0254424 Z M12,21 L12,23 C5.93403104,23 1,18.065969 1,12 C1,5.93403104 5.93403104,1 12,1 C18.065969,1 23,5.93403104 23,12 C23,18.065969 18.065969,23 12,23 L12,21 C16.9613995,21 21,16.9613995 21,12 C21,7.03860054 16.9613995,3 12,3 C7.03860054,3 3,7.03860054 3,12 C3,16.9613995 7.03860054,21 12,21 Z" id="Icon"></path>
        </g>
    </g>
</svg>