<svg width="24" height="24" viewBox="0 0 24 24" fill="none" xmlns="http://www.w3.org/2000/svg"><path d="M15 11.665V8.092A.57.57 0 0 0 14.667 8h-3.332l-2-2h5.332C15.955 6 17 6.895 17 8v2.333l3.18-2.65a.5.5 0 0 1 .82.384v7.865a.5.5 0 0 1-.82.385L15 11.665Z" fill="#000"/><path fill-rule="evenodd" clip-rule="evenodd" d="M20.385 19.879a1 1 0 1 1-1.415 1.414l-3.435-3.436a2.668 2.668 0 0 1-.868.143H5.333C4.045 18 3 17.105 3 16V8c0-.688.405-1.295 1.023-1.655L2.707 5.029a1 1 0 1 1 1.414-1.414L20.385 19.88ZM5.678 7.999l8 8H5.333A.57.57 0 0 1 5 15.908V8.092A.57.57 0 0 1 5.333 8h.345Z" fill="#000"/></svg>