<svg xmlns="http://www.w3.org/2000/svg" width="24" height="24" viewBox="0 0 24 24">
  <path fill-rule="evenodd" d="M15.9981484,15.5294449 C14.9361735,14.5787314 13.5345409,14 12,14 C8.691,14 6,16.691 6,20 L4,20 C4,15.589 7.589,12 12,12 C14.2519731,12 16.2896946,12.9354611 17.7449612,14.4381801 C17.0990442,14.7003267 16.5091303,15.0717246 15.9981484,15.5294449 Z M4,20 L6,20 L6,21 C6,21.5522847 5.55228475,22 5,22 C4.44771525,22 4,21.5522847 4,21 L4,20 Z M12,10 C9.790861,10 8,8.209139 8,6 C8,3.790861 9.790861,2 12,2 C14.209139,2 16,3.790861 16,6 C16,8.209139 14.209139,10 12,10 Z M12,8 C13.1045695,8 14,7.1045695 14,6 C14,4.8954305 13.1045695,4 12,4 C10.8954305,4 10,4.8954305 10,6 C10,7.1045695 10.8954305,8 12,8 Z M15.7758227,20.275682 L20.64775,15.4037547 C20.9164605,15.1343552 21.2692291,15 21.6219977,15 C21.9747663,15 22.3268459,15.1343552 22.5962453,15.4037547 C22.8656448,15.6731541 23,16.0252337 23,16.3780023 C23,16.7307709 22.8656448,17.0835395 22.5962453,17.35225 L17.724318,22.2241773 L15.4497175,22.9823775 C15.3795981,23.0057506 15.3037893,23.0057506 15.23367,22.9823775 C15.0546904,22.9227176 14.9579627,22.7292621 15.0176225,22.5502825 L15.7758227,20.275682 Z"/>
</svg>
