<?xml version="1.0" encoding="UTF-8"?>
<svg width="24px" height="24px" viewBox="0 0 24 24" version="1.1" xmlns="http://www.w3.org/2000/svg" xmlns:xlink="http://www.w3.org/1999/xlink">
    <!-- Generator: Sketch 46.1 (44463) - http://www.bohemiancoding.com/sketch -->
    <title>24x24_filter</title>
    <desc>Created with Sketch.</desc>
    <defs></defs>
    <g id="Page-1" stroke="none" stroke-width="1" fill="none" fill-rule="evenodd">
        <g id="24x24_filter" fill="#000000">
            <path d="M5,9 C3.897,9 3,8.103 3,7 C3,5.897 3.897,5 5,5 C6.103,5 7,5.897 7,7 C7,8.103 6.103,9 5,9 M5.5,4.051 C6.916,4.29 8,5.517 8,7 C8,8.483 6.916,9.71 5.5,9.949 L5.5,21.5 C5.5,21.776 5.276,22 5,22 C4.724,22 4.5,21.776 4.5,21.5 L4.5,9.949 C3.084,9.71 2,8.483 2,7 C2,5.517 3.084,4.29 4.5,4.051 L4.5,2.5 C4.5,2.224 4.724,2 5,2 C5.276,2 5.5,2.224 5.5,2.5 L5.5,4.051 Z M12.5,13.051 C13.916,13.29 15,14.517 15,16 C15,17.483 13.916,18.71 12.5,18.949 L12.5,21.5 C12.5,21.776 12.276,22 12,22 C11.724,22 11.5,21.776 11.5,21.5 L11.5,18.949 C10.084,18.71 9,17.483 9,16 C9,14.517 10.084,13.29 11.5,13.051 L11.5,2.5 C11.5,2.224 11.724,2 12,2 C12.276,2 12.5,2.224 12.5,2.5 L12.5,13.051 Z M12,18 C13.103,18 14,17.103 14,16 C14,14.897 13.103,14 12,14 C10.897,14 10,14.897 10,16 C10,17.103 10.897,18 12,18 Z M22,9 C22,10.483 20.916,11.71 19.5,11.949 L19.5,21.5 C19.5,21.776 19.276,22 19,22 C18.724,22 18.5,21.776 18.5,21.5 L18.5,11.949 C17.084,11.71 16,10.483 16,9 C16,7.517 17.084,6.29 18.5,6.051 L18.5,2.5 C18.5,2.224 18.724,2 19,2 C19.276,2 19.5,2.224 19.5,2.5 L19.5,6.051 C20.916,6.29 22,7.517 22,9 Z M19,11 C20.103,11 21,10.103 21,9 C21,7.897 20.103,7 19,7 C17.897,7 17,7.897 17,9 C17,10.103 17.897,11 19,11 Z" id="Filer"></path>
        </g>
    </g>
</svg>