<svg width="24" height="24" viewBox="0 0 24 24" fill="none" xmlns="http://www.w3.org/2000/svg">
<path fill-rule="evenodd" clip-rule="evenodd" d="M19 12L15.2929 16.2785C14.9024 16.6723 14.9024 17.3108 15.2929 17.7046C15.6834 18.0985 16.3166 18.0985 16.7071 17.7046L22 12.0504L16.7071 6.29537C16.3166 5.90154 15.6834 5.90154 15.2929 6.29537C14.9024 6.68919 14.9024 7.3277 15.2929 7.72153L19 12Z" fill="black"/>
<path fill-rule="evenodd" clip-rule="evenodd" d="M5 12L8.70711 16.2785C9.09763 16.6723 9.09763 17.3108 8.70711 17.7046C8.31658 18.0985 7.68342 18.0985 7.29289 17.7046L2 12.0504L7.29289 6.29537C7.68342 5.90154 8.31658 5.90154 8.70711 6.29537C9.09763 6.68919 9.09763 7.3277 8.70711 7.72153L5 12Z" fill="black"/>
<path d="M12.3282 6.91154C12.4711 6.37808 13.0194 6.0615 13.5529 6.20444C14.0864 6.34738 14.403 6.89572 14.26 7.42918L11.6718 17.0884C11.5289 17.6219 10.9805 17.9385 10.4471 17.7955C9.91361 17.6526 9.59703 17.1043 9.73997 16.5708L12.3282 6.91154Z" fill="black"/>
</svg>
