<svg width="24" height="24" viewBox="0 0 24 24" fill="none" xmlns="http://www.w3.org/2000/svg"><path fill-rule="evenodd" clip-rule="evenodd" d="M5 17H3v1a3 3 0 0 0 3 3h12a3 3 0 0 0 3-3V6a3 3 0 0 0-3-3H6a3 3 0 0 0-3 3v1h2V6a1 1 0 0 1 1-1h12a1 1 0 0 1 1 1v12a1 1 0 0 1-1 1H6a1 1 0 0 1-1-1v-1Z" fill="#000"/><path d="m8.89 14.216 1.157-1.171H3.032C2.462 13.045 2 12.577 2 12s.462-1.045 1.032-1.045h7.015L8.89 9.784a1.054 1.054 0 0 1 0-1.478 1.024 1.024 0 0 1 1.46 0L14 12l-3.65 3.694a1.024 1.024 0 0 1-1.46 0 1.054 1.054 0 0 1 0-1.478Z" fill="#000"/></svg>