<svg width="24" height="24" viewBox="0 0 24 24" fill="none" xmlns="http://www.w3.org/2000/svg">
<path d="M19 11C19.5523 11 20 10.5523 20 10C20 9.44771 19.5523 9 19 9C18.4477 9 18 9.44771 18 10C18 10.5523 18.4477 11 19 11Z" fill="#1A1C20"/>
<path d="M10 15.25C9.58579 15.25 9.25 15.5858 9.25 16C9.25 16.4142 9.58579 16.75 10 16.75H14C14.4142 16.75 14.75 16.4142 14.75 16C14.75 15.5858 14.4142 15.25 14 15.25H10Z" fill="#1A1C20"/>
<path d="M9.25 19C9.25 18.5858 9.58579 18.25 10 18.25H14C14.4142 18.25 14.75 18.5858 14.75 19C14.75 19.4142 14.4142 19.75 14 19.75H10C9.58579 19.75 9.25 19.4142 9.25 19Z" fill="#1A1C20"/>
<path fill-rule="evenodd" clip-rule="evenodd" d="M6 6V2C6 1.44772 6.44772 1 7 1H17C17.5523 1 18 1.44772 18 2V6H20C21.6569 6 23 7.34315 23 9L23 14C23 15.6569 21.6569 17 20 17H18V22C18 22.5523 17.5523 23 17 23H7C6.44771 23 6 22.5523 6 22V17H4C2.34315 17 1 15.6569 1 14V9C1 7.34315 2.34315 6 4 6H6ZM8 6V3H16V6H8ZM21 14C21 14.5523 20.5523 15 20 15H18V12C18 11.4477 17.5523 11 17 11H7C6.44772 11 6 11.4477 6 12V15H4C3.44772 15 3 14.5523 3 14V9C3 8.44772 3.44772 8 4 8H20C20.5523 8 21 8.44772 21 9L21 14ZM8 13V21H16V13H8Z" fill="#1A1C20"/>
</svg>
