<?xml version="1.0" encoding="UTF-8"?>
<svg width="24px" height="24px" viewBox="0 0 24 24" version="1.1" xmlns="http://www.w3.org/2000/svg" xmlns:xlink="http://www.w3.org/1999/xlink">
    <!-- Generator: Sketch 46.1 (44463) - http://www.bohemiancoding.com/sketch -->
    <title>24x24_warning_filled</title>
    <desc>Created with Sketch.</desc>
    <defs></defs>
    <g id="Page-1" stroke="none" stroke-width="1" fill="none" fill-rule="evenodd">
        <g id="24x24_warning_filled" fill="#000000">
            <path d="M12,18 C11.172,18 10.5,17.329 10.5,16.5 C10.5,15.671 11.172,15 12,15 C12.829,15 13.5,15.671 13.5,16.5 C13.5,17.329 12.829,18 12,18 L12,18 Z M11,7 C11,6.448 11.448,6 12,6 C12.552,6 13,6.448 13,7 L13,12 C13,12.552 12.552,13 12,13 C11.448,13 11,12.552 11,12 L11,7 Z M12,2 C6.477,2 2,6.477 2,12 C2,17.523 6.477,22 12,22 C17.523,22 22,17.523 22,12 C22,6.477 17.523,2 12,2 L12,2 Z" id="Fill-1"></path>
        </g>
    </g>
</svg>