<?xml version="1.0" encoding="UTF-8"?>
<svg width="24px" height="24px" viewBox="0 0 24 24" version="1.1" xmlns="http://www.w3.org/2000/svg" xmlns:xlink="http://www.w3.org/1999/xlink">
    <!-- Generator: Sketch 46.2 (44496) - http://www.bohemiancoding.com/sketch -->
    <title>24x24_add_timer_outline</title>
    <desc>Created with Sketch.</desc>
    <defs></defs>
    <g id="Page-1" stroke="none" stroke-width="1" fill="none" fill-rule="evenodd">
        <g id="24x24_add_timer_outline" fill-rule="nonzero" fill="#000000">
            <path d="M20.7999638,16 L18.747965,16 C18.912494,15.3607602 19,14.6905991 19,14 C19,9.581722 15.418278,6 11,6 C6.581722,6 3,9.581722 3,14 C3,18.418278 6.581722,22 11,22 C12.0609004,22 13.0735686,21.7934929 14,21.418483 L14,23.5421977 C13.0529588,23.8396462 12.0452057,24 11,24 C5.4771525,24 1,19.5228475 1,14 C1,8.4771525 5.4771525,4 11,4 C16.5228475,4 21,8.4771525 21,14 C21,14.6849317 20.9311395,15.3537801 20.7999638,16 L20.7999638,16 Z M8,0 L14,0 C14.5522847,-1.01453063e-16 15,0.44771525 15,1 C15,1.55228475 14.5522847,2 14,2 L8,2 C7.44771525,2 7,1.55228475 7,1 C7,0.44771525 7.44771525,1.01453063e-16 8,0 Z M10,12.2675644 L10,9 C10,8.44771525 10.4477153,8 11,8 C11.5522847,8 12,8.44771525 12,9 L12,12.2675644 C12.5978014,12.6133738 13,13.2597176 13,14 C13,15.1045695 12.1045695,16 11,16 C9.8954305,16 9,15.1045695 9,14 C9,13.2597176 9.40219863,12.6133738 10,12.2675644 L10,12.2675644 Z M18.4142136,3 L21.2426407,5.82842712 L19.8284271,7.24264069 L17,4.41421356 L18.4142136,3 Z M20,20 L22,20 L22,22 L20,22 L20,24 L18,24 L18,22 L16,22 L16,20 L18,20 L18,18 L20,18 L20,20 Z" id="Icon"></path>
        </g>
    </g>
</svg>