<?xml version="1.0" encoding="UTF-8"?>
<svg width="24px" height="24px" viewBox="0 0 24 24" version="1.1" xmlns="http://www.w3.org/2000/svg" xmlns:xlink="http://www.w3.org/1999/xlink">
    <!-- Generator: Sketch 46.2 (44496) - http://www.bohemiancoding.com/sketch -->
    <title>24x24_timer_outline</title>
    <desc>Created with Sketch.</desc>
    <defs></defs>
    <g id="Page-1" stroke="none" stroke-width="1" fill="none" fill-rule="evenodd">
        <g id="24x24_timer_outline" fill-rule="nonzero" fill="#000000">
            <path d="M12,22 C16.418278,22 20,18.418278 20,14 C20,9.581722 16.418278,6 12,6 C7.581722,6 4,9.581722 4,14 C4,18.418278 7.581722,22 12,22 Z M12,24 C6.4771525,24 2,19.5228475 2,14 C2,8.4771525 6.4771525,4 12,4 C17.5228475,4 22,8.4771525 22,14 C22,19.5228475 17.5228475,24 12,24 Z M9,0 L15,0 L15,0 C15.5522847,-1.01453063e-16 16,0.44771525 16,1 L16,1 L16,1 C16,1.55228475 15.5522847,2 15,2 L9,2 L9,2 C8.44771525,2 8,1.55228475 8,1 L8,1 L8,1 C8,0.44771525 8.44771525,1.01453063e-16 9,0 Z M11,12.2675644 C10.4021986,12.6133738 10,13.2597176 10,14 C10,15.1045695 10.8954305,16 12,16 C13.1045695,16 14,15.1045695 14,14 C14,13.2597176 13.5978014,12.6133738 13,12.2675644 L13,9 C13,8.44771525 12.5522847,8 12,8 C11.4477153,8 11,8.44771525 11,9 L11,12.2675644 Z M19.4142136,3 L22.2426407,5.82842712 L20.8284271,7.24264069 L18,4.41421356 L19.4142136,3 Z" id="Icon"></path>
        </g>
    </g>
</svg>