<?xml version="1.0" encoding="UTF-8"?>
<svg width="24px" height="24px" viewBox="0 0 24 24" version="1.1" xmlns="http://www.w3.org/2000/svg" xmlns:xlink="http://www.w3.org/1999/xlink">
    <!-- Generator: Sketch 46.2 (44496) - http://www.bohemiancoding.com/sketch -->
    <title>24x24_download_outline</title>
    <desc>Created with Sketch.</desc>
    <defs></defs>
    <g id="Page-1" stroke="none" stroke-width="1" fill="none" fill-rule="evenodd">
        <g id="24x24_download_outline" fill="#000000">
            <path d="M12.9980198,14.1755756 L16.2428206,10.9309124 C16.6333615,10.5403881 17.2665533,10.5403881 17.6570942,10.9309124 C18.047635,11.3214367 18.047635,11.9546017 17.6570942,12.345126 L12,18.0019802 L6.34290583,12.345126 C5.95236498,11.9546017 5.95236498,11.3214367 6.34290583,10.9309124 C6.73344669,10.5403881 7.36663852,10.5403881 7.75717937,10.9309124 L10.9980198,14.1716154 L10.9980198,3.00198021 C10.9980198,2.44969546 11.445735,2.00198021 11.9980198,2.00198021 C12.5503045,2.00198021 12.9980198,2.44969546 12.9980198,3.00198021 L12.9980198,14.1755756 Z M4,20 L20,20 C20.5522847,20 21,20.4477153 21,21 C21,21.5522847 20.5522847,22 20,22 L4,22 C3.44771525,22 3,21.5522847 3,21 C3,20.4477153 3.44771525,20 4,20 L4,20 Z" id="Icon"></path>
        </g>
    </g>
</svg>