<svg xmlns="http://www.w3.org/2000/svg" width="24" height="24" viewBox="0 0 24 24">
  <path fill-rule="evenodd" d="M13.9981484,15.5294449 C12.9361735,14.5787314 11.5345409,14 10,14 C6.691,14 4,16.691 4,20 L2,20 C2,15.589 5.589,12 10,12 C12.2519731,12 14.2896946,12.9354611 15.7449612,14.4381801 C15.0990442,14.7003267 14.5091303,15.0717246 13.9981484,15.5294449 L13.9981484,15.5294449 Z M2,20 L4,20 L4,21 C4,21.5522847 3.55228475,22 3,22 C2.44771525,22 2,21.5522847 2,21 L2,20 Z M10,10 C7.790861,10 6,8.209139 6,6 C6,3.790861 7.790861,2 10,2 C12.209139,2 14,3.790861 14,6 C14,8.209139 12.209139,10 10,10 Z M10,8 C11.1045695,8 12,7.1045695 12,6 C12,4.8954305 11.1045695,4 10,4 C8.8954305,4 8,4.8954305 8,6 C8,7.1045695 8.8954305,8 10,8 Z M15,19 L21,19 C21.5522847,19 22,19.4477153 22,20 C22,20.5522847 21.5522847,21 21,21 L15,21 C14.4477153,21 14,20.5522847 14,20 C14,19.4477153 14.4477153,19 15,19 Z"/>
</svg>
