<?xml version="1.0" encoding="UTF-8"?>
<svg width="24px" height="24px" viewBox="0 0 24 24" version="1.1" xmlns="http://www.w3.org/2000/svg" xmlns:xlink="http://www.w3.org/1999/xlink">
    <!-- Generator: Sketch 46.1 (44463) - http://www.bohemiancoding.com/sketch -->
    <title>24x24_building</title>
    <desc>Created with Sketch.</desc>
    <defs></defs>
    <g id="Page-1" stroke="none" stroke-width="1" fill="none" fill-rule="evenodd">
        <g id="24x24_building" fill="#000000">
            <path d="M17,10 L21,10 L21,21 L20,21 L20,11 L17,11 L16,11 L13,11 L13,21 L12,21 L12,10 L12,4.258 L6,6.83 L6,14 L10,14 L10,21 L9,21 L9,15 L6,15 L5,15 L4,15 L4,21 L3,21 L3,14 L5,14 L5,6.17 L13,2.742 L13,10 L16,10 L16,8 L17,8 L17,10 Z M15,14 L15,13 L18,13 L18,14 L15,14 Z M15,17 L15,16 L18,16 L18,17 L15,17 Z M15,20 L15,19 L18,19 L18,20 L15,20 Z M8,9 L8,8 L10,8 L10,9 L8,9 Z M8,12 L8,11 L10,11 L10,12 L8,12 Z" id="mask"></path>
        </g>
    </g>
</svg>