<?xml version="1.0" encoding="UTF-8"?>
<svg width="24px" height="24px" viewBox="0 0 24 24" version="1.1" xmlns="http://www.w3.org/2000/svg" xmlns:xlink="http://www.w3.org/1999/xlink">
    <!-- Generator: Sketch 46.2 (44496) - http://www.bohemiancoding.com/sketch -->
    <title>24x24_add_company_outline</title>
    <desc>Created with Sketch.</desc>
    <defs></defs>
    <g id="Page-1" stroke="none" stroke-width="1" fill="none" fill-rule="evenodd">
        <g id="24x24_add_company_outline" fill="#000000">
            <path d="M18,8 L22,8 L22,15 L20,15 L20,10 L14,10 L14,21 L12,21 L12,8 L12,2.943 L6,5.193 L6,12 L9,12 L9,21 L7,21 L7,14 L4,14 L4,21 L2,21 L2,12 L4,12 L4,4.5 C4,4.083 4.259,3.71 4.649,3.563 L12.649,0.563 C12.957,0.449 13.3,0.491 13.57,0.678 C13.839,0.865 14,1.172 14,1.5 L14,8 L16,8 L16,6 L18,6 L18,8 Z M22,19 L24,19 L24,21 L22,21 L22,23 L20,23 L20,21 L18,21 L18,19 L20,19 L20,17 L22,17 L22,19 Z" id="Icon"></path>
        </g>
    </g>
</svg>