<svg width="24" height="24" fill="none" xmlns="http://www.w3.org/2000/svg"><path d="m3.293 4.707 15.556 15.556a1 1 0 0 0 1.415-1.414l-4.728-4.728 3.535-3.535a4 4 0 0 0-5.657-5.657l-2.12 2.121a5.018 5.018 0 0 1 2.533.295l1.002-1.002a2 2 0 1 1 2.828 2.829l-3.536 3.535-2.639-2.639a1.999 1.999 0 0 1 1.932.518 1 1 0 0 0 1.415-1.414 4.002 4.002 0 0 0-4.861-.618l-5.26-5.261a1 1 0 0 0-1.415 1.414Zm6.427 8.427 2.828 2.829a3.994 3.994 0 0 1-3.376-1.134 1 1 0 0 1 .548-1.695Z" fill="#000"/><path d="m8.879 12.293-1.414-1.414-2.536 2.535a4 4 0 0 0 5.657 5.657l2.12-2.12c-.85.12-1.724.022-2.533-.295l-1.001 1a2 2 0 1 1-2.829-2.827l2.536-2.536Z" fill="#000"/></svg>