<svg xmlns="http://www.w3.org/2000/svg" xmlns:xlink="http://www.w3.org/1999/xlink" width="24" height="24" viewBox="0 0 24 24">
  <defs>
    <path id="24x24_user_outline-a" d="M18,20 C18,16.691 15.309,14 12,14 C8.691,14 6,16.691 6,20 L4,20 C4,15.589 7.589,12 12,12 C16.411,12 20,15.589 20,20 L18,20 Z M4,20 L6,20 L6,21 C6,21.5522847 5.55228475,22 5,22 C4.44771525,22 4,21.5522847 4,21 L4,20 Z M18,20 L20,20 L20,21 C20,21.5522847 19.5522847,22 19,22 C18.4477153,22 18,21.5522847 18,21 L18,20 Z M12,10 C9.790861,10 8,8.209139 8,6 C8,3.790861 9.790861,2 12,2 C14.209139,2 16,3.790861 16,6 C16,8.209139 14.209139,10 12,10 Z M12,8 C13.1045695,8 14,7.1045695 14,6 C14,4.8954305 13.1045695,4 12,4 C10.8954305,4 10,4.8954305 10,6 C10,7.1045695 10.8954305,8 12,8 Z"/>
  </defs>
  <g fill="none" fill-rule="evenodd">
    <use fill="#000" xlink:href="#24x24_user_outline-a"/>
  </g>
</svg>
