<svg xmlns="http://www.w3.org/2000/svg" xmlns:xlink="http://www.w3.org/1999/xlink" width="24" height="24" viewBox="0 0 24 24">
  <defs>
    <path id="24x24_mail_outline-a" d="M20,16 C20,17.103 19.103,18 18,18 L6,18 C4.897,18 4,17.103 4,16 L4,8 C4,7.873 4.015,7.749 4.038,7.628 C4.061,7.658 4.071,7.693 4.099,7.72 L9.879,13.5 C10.454,14.075 11.227,14.362 12,14.362 C12.773,14.362 13.546,14.075 14.121,13.5 L19.901,7.72 C19.929,7.692 19.939,7.657 19.962,7.628 C19.985,7.749 20,7.873 20,8 L20,16 Z M18,6 C18.259,6 18.505,6.053 18.732,6.143 C18.646,6.188 18.56,6.233 18.487,6.306 L12.707,12.086 C12.344,12.449 11.656,12.449 11.293,12.086 L5.513,6.306 C5.44,6.234 5.354,6.189 5.268,6.144 C5.495,6.053 5.741,6 6,6 L18,6 Z M18,4 L6,4 C3.8,4 2,5.8 2,8 L2,16 C2,18.2 3.8,20 6,20 L18,20 C20.2,20 22,18.2 22,16 L22,8 C22,5.8 20.2,4 18,4 L18,4 Z"/>
  </defs>
  <g fill="none" fill-rule="evenodd">
    <use fill="#000" xlink:href="#24x24_mail_outline-a"/>
  </g>
</svg>
