<?xml version="1.0" encoding="UTF-8"?>
<svg width="24px" height="24px" viewBox="0 0 24 24" version="1.1" xmlns="http://www.w3.org/2000/svg" xmlns:xlink="http://www.w3.org/1999/xlink">
    <!-- Generator: Sketch 46.2 (44496) - http://www.bohemiancoding.com/sketch -->
    <title>24x24_settings_outline</title>
    <desc>Created with Sketch.</desc>
    <defs></defs>
    <g id="Page-1" stroke="none" stroke-width="1" fill="none" fill-rule="evenodd">
        <g id="24x24_settings_outline" fill="#000000">
            <path d="M21.918,13.1936 L18.681,13.6786 L18.484,14.2516 C18.395,14.5116 18.292,14.7626 18.176,15.0026 L17.916,15.5456 L19.857,18.1726 C19.594,18.5116 19.338,18.8046 19.082,19.0616 C18.805,19.3376 18.511,19.5946 18.171,19.8586 L15.544,17.9166 L15.001,18.1776 C14.76,18.2946 14.508,18.3966 14.249,18.4866 L13.677,18.6846 L13.192,21.9206 C12.305,22.0346 11.648,22.0276 10.808,21.9206 L10.323,18.6846 L9.751,18.4866 C9.492,18.3966 9.24,18.2946 8.999,18.1776 L8.456,17.9166 L5.829,19.8576 C5.492,19.5966 5.199,19.3406 4.939,19.0826 C4.667,18.8096 4.41,18.5156 4.143,18.1726 L6.085,15.5456 L5.824,15.0026 C5.709,14.7626 5.606,14.5116 5.516,14.2516 L5.319,13.6786 L2.082,13.1936 C2.027,12.7636 2,12.3716 2,12.0016 C2,11.6316 2.027,11.2386 2.082,10.8086 L5.319,10.3226 L5.517,9.7506 C5.606,9.4906 5.709,9.2406 5.824,9.0006 L6.085,8.4576 L4.145,5.8316 C4.638,5.2046 5.203,4.6396 5.831,4.1456 L8.458,6.0876 L9.001,5.8256 C9.241,5.7096 9.491,5.6076 9.75,5.5176 L10.322,5.3196 L10.808,2.0836 C11.657,1.9726 12.34,1.9736 13.192,2.0836 L13.678,5.3196 L14.251,5.5176 C14.509,5.6076 14.759,5.7096 14.999,5.8256 L15.543,6.0876 L18.169,4.1456 C18.797,4.6396 19.362,5.2056 19.855,5.8316 L17.915,8.4576 L18.176,9.0006 C18.291,9.2406 18.394,9.4906 18.483,9.7506 L18.681,10.3226 L21.918,10.8086 C21.973,11.2386 22,11.6316 22,12.0016 C22,12.3716 21.973,12.7636 21.918,13.1936 M23.849,10.1796 C23.951,10.8416 24,11.4376 24,12.0016 C24,12.5656 23.951,13.1616 23.849,13.8236 L23.677,14.9526 L20.334,15.4526 L22.344,18.1726 L21.668,19.0926 C21.273,19.6296 20.89,20.0816 20.496,20.4766 C20.074,20.8966 19.629,21.2746 19.091,21.6686 L18.171,22.3456 L15.452,20.3356 L14.951,23.6786 L13.821,23.8516 C13.152,23.9536 12.579,24.0016 12.018,24.0016 C11.424,24.0016 10.857,23.9556 10.178,23.8506 L9.049,23.6786 L8.548,20.3356 L5.828,22.3446 L4.908,21.6686 C4.375,21.2766 3.923,20.8936 3.526,20.4966 C3.113,20.0836 2.734,19.6386 2.333,19.0936 L1.656,18.1726 L3.666,15.4526 L0.323,14.9526 L0.151,13.8216 C0.049,13.1616 0,12.5656 0,12.0016 C0,11.4376 0.049,10.8406 0.151,10.1786 L0.323,9.0496 L3.666,8.5486 L1.658,5.8316 L2.333,4.9106 C3.056,3.9256 3.923,3.0596 4.91,2.3346 L5.831,1.6576 L8.548,3.6666 L9.048,0.3266 L10.177,0.1526 C11.506,-0.0514 12.494,-0.0514 13.823,0.1526 L14.952,0.3266 L15.452,3.6666 L18.169,1.6576 L19.09,2.3336 C20.077,3.0596 20.944,3.9256 21.667,4.9106 L22.342,5.8316 L20.335,8.5486 L23.677,9.0496 L23.849,10.1796 Z M12,14.0012 C10.897,14.0012 10,13.1042 10,12.0012 C10,10.8982 10.897,10.0012 12,10.0012 C13.103,10.0012 14,10.8982 14,12.0012 C14,13.1042 13.103,14.0012 12,14.0012 Z M12,8.0012 C9.794,8.0012 8,9.7952 8,12.0012 C8,14.2072 9.794,16.0012 12,16.0012 C14.206,16.0012 16,14.2072 16,12.0012 C16,9.7952 14.206,8.0012 12,8.0012 Z" id="Icon"></path>
        </g>
    </g>
</svg>