<svg xmlns="http://www.w3.org/2000/svg" xmlns:xlink="http://www.w3.org/1999/xlink" width="24" height="24" viewBox="0 0 24 24">
  <defs>
    <path id="24x24_message_outline-a" d="M11.2012606,15 L19,15 L19,5 L5,5 L5,15 L9,15 L9,17.384699 L11.2012606,15 Z M8.73480344,20.6206296 C8.36019969,21.0264503 7.72754063,21.0517567 7.3217199,20.6771529 C7.11663769,20.4878463 7,20.2214475 7,19.9423495 L7,17 L5,17 C3.8954305,17 3,16.1045695 3,15 L3,5 C3,3.8954305 3.8954305,3 5,3 L19,3 C20.1045695,3 21,3.8954305 21,5 L21,15 C21,16.1045695 20.1045695,17 19,17 L12.0769231,17 L8.73480344,20.6206296 Z"/>
  </defs>
  <g fill="none" fill-rule="evenodd">
    <use fill="#000" fill-rule="nonzero" xlink:href="#24x24_message_outline-a"/>
  </g>
</svg>
