<?xml version="1.0" encoding="UTF-8"?>
<svg width="24px" height="24px" viewBox="0 0 24 24" version="1.1" xmlns="http://www.w3.org/2000/svg" xmlns:xlink="http://www.w3.org/1999/xlink">
    <!-- Generator: Sketch 46.2 (44496) - http://www.bohemiancoding.com/sketch -->
    <title>24x24_building_filled</title>
    <desc>Created with Sketch.</desc>
    <defs></defs>
    <g id="Page-1" stroke="none" stroke-width="1" fill="none" fill-rule="evenodd">
        <g id="24x24_building_filled" fill="#000000">
            <path d="M2,21 L2,15 L11,15 L11,21 L2,21 Z M12.9998316,3 L12.9998316,10 L15.9998316,10 L15.9998316,8 L16.9998316,8 L16.9998316,10 L20.9998316,10 L20.9998316,21 L11.9998316,21 L11.9998316,14 L4.99983158,14 L4.99983158,6 L12.9998316,3 Z M8,9 L10,9 L10,8 L8,8 L8,9 Z M8,12 L10,12 L10,11 L8,11 L8,12 Z M15,14 L18,14 L18,13 L15,13 L15,14 Z M15,17 L18,17 L18,16 L15,16 L15,17 Z" id="Icon"></path>
        </g>
    </g>
</svg>