<?xml version="1.0" encoding="UTF-8"?>
<svg width="24px" height="24px" viewBox="0 0 24 24" version="1.1" xmlns="http://www.w3.org/2000/svg" xmlns:xlink="http://www.w3.org/1999/xlink">
    <!-- Generator: Sketch 46.2 (44496) - http://www.bohemiancoding.com/sketch -->
    <title>24x24_task_outline</title>
    <desc>Created with Sketch.</desc>
    <defs></defs>
    <g id="Page-1" stroke="none" stroke-width="1" fill="none" fill-rule="evenodd">
        <g id="24x24_task_outline" fill-rule="nonzero" fill="#000000">
            <path d="M19,7 C19,6.44771525 19.4477153,6 20,6 C20.5522847,6 21,6.44771525 21,7 L21,19 C21,20.6568542 19.6568542,22 18,22 L6,22 C4.34314575,22 3,20.6568542 3,19 L3,7 C3,6.44771525 3.44771525,6 4,6 C4.55228475,6 5,6.44771525 5,7 L5,19 C5,19.5522847 5.44771525,20 6,20 L18,20 C18.5522847,20 19,19.5522847 19,19 L19,7 Z M9.17070571,3 C9.58254212,1.83480763 10.6937812,1 12,1 C13.3062188,1 14.4174579,1.83480763 14.8292943,3 L17,3 L17,9 L7,9 L7,3 L9.17070571,3 Z M15,5 L13,5 L13,4 C13,3.44771525 12.5522847,3 12,3 C11.4477153,3 11,3.44771525 11,4 L11,5 L9,5 L9,7 L15,7 L15,5 Z M9,11 L15,11 C15.5522847,11 16,11.4477153 16,12 C16,12.5522847 15.5522847,13 15,13 L9,13 C8.44771525,13 8,12.5522847 8,12 C8,11.4477153 8.44771525,11 9,11 Z M9,15 L15,15 C15.5522847,15 16,15.4477153 16,16 C16,16.5522847 15.5522847,17 15,17 L9,17 C8.44771525,17 8,16.5522847 8,16 C8,15.4477153 8.44771525,15 9,15 Z" id="Icon"></path>
        </g>
    </g>
</svg>