<svg width="24" height="24" fill="none" xmlns="http://www.w3.org/2000/svg"><path d="M5.2 7.946a.904.904 0 0 0-.195.427c-.008.066-.01.222.01.456.036.407.134.878.312 1.408.527 1.57 1.627 3.293 3.481 5.116 1.567 1.54 3.062 2.543 4.454 3.115.935.385 1.71.532 2.298.532.124 0 .204-.006.242-.012a.876.876 0 0 0 .409-.21l2.777-2.938c.013-.023.003-.036-.05-.066l-2.954-1.701a.232.232 0 0 0-.096-.024.263.263 0 0 0-.165.054L13.5 16.47l-1.367-.772c-.621-.35-1.318-.887-2.09-1.646-.81-.796-1.376-1.516-1.74-2.157l-.725-1.28 1.006-1.073 1.068-1.14a.355.355 0 0 0 .059-.234L7.999 5.02c-.007-.013-.94.963-2.8 2.927Zm1.327-4.31a1.996 1.996 0 0 1 3.251.47l1.671 3.07.047.092c.39.826.223 1.865-.398 2.515l-1.055 1.127c.203.357.608.936 1.402 1.716.754.742 1.316 1.13 1.671 1.332l1.148-1.224a2.255 2.255 0 0 1 2.655-.432l.047.028 2.97 1.711c.544.298.928.826 1.034 1.428a2.043 2.043 0 0 1-.536 1.753l-2.77 2.93a2.856 2.856 0 0 1-1.56.813 3.7 3.7 0 0 1-.544.035c-1.16 0-4.278-.411-8.154-4.221-4.703-4.624-4.434-8.242-4.387-8.64a2.875 2.875 0 0 1 .736-1.576l2.772-2.928Z" fill="#000"/></svg>