<svg xmlns="http://www.w3.org/2000/svg" width="24" height="24" viewBox="0 0 24 24">
  <path d="M11.5,22 C10.6715729,22 10,21.3284271 10,20.5 C10,19.6715729 10.6715729,19 11.5,19 L12.5,19 C13.1104267,19 13.6356896,19.3646293 13.8698646,19.8879636 C15.6579047,19.5107341 17,17.9238908 17,16.0235844 L17,9 L19,9 L19,16.0235844 C19,19.3093903 16.2858059,22 13,22 C12.9823227,21.9999699 12.4823227,21.9999699 11.5,22 Z M5,9 C5,5.13400675 8.13400675,2 12,2 C15.8659932,2 19,5.13400675 19,9 L17,9 C17,6.23857625 14.7614237,4 12,4 C9.23857625,4 7,6.23857625 7,9 L5,9 Z M20,16 L17,16 L17,8 L20,8 C21.1045695,8 22,8.8954305 22,10 L22,14 C22,15.1045695 21.1045695,16 20,16 Z M4,8 L7,8 L7,16 L4,16 C2.8954305,16 2,15.1045695 2,14 L2,10 C2,8.8954305 2.8954305,8 4,8 Z"/>
</svg>
