<?xml version="1.0" encoding="UTF-8"?>
<svg width="24px" height="24px" viewBox="0 0 24 24" version="1.1" xmlns="http://www.w3.org/2000/svg" xmlns:xlink="http://www.w3.org/1999/xlink">
    <!-- Generator: Sketch 46.2 (44496) - http://www.bohemiancoding.com/sketch -->
    <title>24x24_car_outline</title>
    <desc>Created with Sketch.</desc>
    <defs></defs>
    <g id="Page-1" stroke="none" stroke-width="1" fill="none" fill-rule="evenodd">
        <g id="24x24_car_outline" fill="#000000">
            <path d="M18,11.9999 C18.69,11.9999 19.25,12.5599 19.25,13.2499 C19.25,13.9399 18.69,14.4999 18,14.4999 C17.31,14.4999 16.75,13.9399 16.75,13.2499 C16.75,12.5599 17.31,11.9999 18,11.9999 L18,11.9999 Z M6,14.4999 C5.31,14.4999 4.75,13.9399 4.75,13.2499 C4.75,12.5599 5.31,11.9999 6,11.9999 C6.69,11.9999 7.25,12.5599 7.25,13.2499 C7.25,13.9399 6.69,14.4999 6,14.4999 L6,14.4999 Z M7.526,5.1429 C7.543,5.0729 7.569,5.0259 7.588,4.9999 L16.412,4.9999 C16.431,5.0259 16.457,5.0729 16.474,5.1429 L17.438,9.9999 L6.562,9.9999 L7.526,5.1429 Z M21,11.9999 C21,11.0759 20.37,10.3069 19.519,10.0769 L18.415,4.6579 C18.169,3.6769 17.384,2.9999 16.492,2.9999 L7.509,2.9999 C6.616,2.9999 5.831,3.6769 5.585,4.6579 L4.481,10.0769 C3.63,10.3069 3,11.0759 3,11.9999 L3,17.9999 L4,17.9999 L4,19.4999 C4,20.3279 4.671,20.9999 5.5,20.9999 C6.329,20.9999 7,20.3279 7,19.4999 L7,17.9999 L17,17.9999 L17,19.4999 C17,20.3279 17.671,20.9999 18.5,20.9999 C19.329,20.9999 20,20.3279 20,19.4999 L20,17.9999 L21,17.9999 L21,11.9999 Z" id="Icon"></path>
        </g>
    </g>
</svg>