<?xml version="1.0" encoding="UTF-8"?>
<svg width="24px" height="24px" viewBox="0 0 24 24" version="1.1" xmlns="http://www.w3.org/2000/svg" xmlns:xlink="http://www.w3.org/1999/xlink">
    <!-- Generator: Sketch 46.2 (44496) - http://www.bohemiancoding.com/sketch -->
    <title>24x24_invoice_outline</title>
    <desc>Created with Sketch.</desc>
    <defs></defs>
    <g id="Page-1" stroke="none" stroke-width="1" fill="none" fill-rule="evenodd">
        <g id="24x24_invoice_outline" fill="#000000">
            <path d="M8.9995,3 L21.9995,3 L21.9985,17 C21.9985,19.206 20.2035,21 17.9985,21 L6.9995,21 C4.7945,21 2.9995,19.206 2.9995,17 L2.9995,14 L8.9995,14 L8.9995,3 Z M19.9985,17 L19.9995,5 L10.9995,5 L10.9995,17 C10.9995,17.728 10.8045,18.411 10.4635,19 L17.9985,19 C19.1015,19 19.9985,18.103 19.9985,17 Z M13,9 L13,8 L18,8 L18,9 L13,9 Z M13,12 L13,11 L18,11 L18,12 L13,12 Z M13,15 L13,14 L18,14 L18,15 L13,15 Z M6.9995,19 C8.1025,19 8.9995,18.103 8.9995,17 L8.9995,16 L4.9995,16 L4.9995,17 C4.9995,18.103 5.8965,19 6.9995,19 Z" id="Icon"></path>
        </g>
    </g>
</svg>