<svg width="24" height="24" viewBox="0 0 24 24" fill="none" xmlns="http://www.w3.org/2000/svg">
<g opacity="0.84">
<path d="M3.29289 4.70711L18.8492 20.2635C19.2398 20.654 19.8729 20.654 20.2635 20.2635C20.654 19.8729 20.654 19.2398 20.2635 18.8492L15.5356 14.1214L19.0711 10.5859C20.6332 9.02378 20.6332 6.49112 19.0711 4.92902C17.509 3.36692 14.9763 3.36692 13.4142 4.92902L11.2933 7.04999C12.1431 6.92932 13.0181 7.02749 13.8272 7.34453L14.8285 6.34323C15.6095 5.56218 16.8758 5.56218 17.6569 6.34323C18.4379 7.12428 18.4379 8.39061 17.6569 9.17166L14.1214 12.7072L11.4822 10.068C12.1494 9.88979 12.8908 10.0624 13.4142 10.5859C13.8048 10.9764 14.4379 10.9764 14.8285 10.5859C15.219 10.1953 15.219 9.56218 14.8285 9.17166C13.5105 7.85374 11.5018 7.64773 9.96785 8.55364L4.70711 3.29289C4.31658 2.90237 3.68342 2.90237 3.29289 3.29289C2.90237 3.68342 2.90237 4.31658 3.29289 4.70711Z" fill="#1A1C20"/>
<path d="M9.71978 13.134L12.5483 15.9626C11.3506 16.1274 10.0924 15.7494 9.1716 14.8285C8.78107 14.438 8.78107 13.8048 9.1716 13.4143C9.3263 13.2596 9.51909 13.1662 9.71978 13.134Z" fill="#1A1C20"/>
<path d="M8.87871 12.293L7.4645 10.8788L4.92896 13.4143C3.36686 14.9764 3.36686 17.5091 4.92896 19.0712C6.49106 20.6333 9.02372 20.6333 10.5858 19.0712L12.7068 16.9502C11.8569 17.0709 10.9819 16.9727 10.1729 16.6556L9.1716 17.6569C8.39055 18.438 7.12422 18.438 6.34317 17.6569C5.56212 16.8759 5.56212 15.6096 6.34317 14.8285L8.87871 12.293Z" fill="#1A1C20"/>
</g>
</svg>
