<svg width="24" height="24" viewBox="0 0 24 24" fill="none" xmlns="http://www.w3.org/2000/svg"><path d="M12.5 14a2 2 0 1 0 0-4 2 2 0 0 0 0 4ZM11.014 2.1c.46-.07.93-.1 1.41-.1.48 0 .95.03 1.41.1.9.12 1.54.83 1.73 1.71.11.53.44 1.02.95 1.32.31.18.66.27 1 .27.21 0 .41-.03.61-.09a2.38 2.38 0 0 1 .727-.116c.576 0 1.127.224 1.493.696.55.72 1 1.51 1.35 2.35.32.8.14 1.77-.53 2.32-.42.34-.7.85-.74 1.44.04.59.32 1.1.74 1.44.67.55.85 1.52.53 2.32-.35.84-.8 1.63-1.35 2.35-.366.472-.917.696-1.493.696a2.38 2.38 0 0 1-.727-.116c-.2-.06-.4-.09-.61-.09-.34 0-.69.09-1 .27-.51.3-.84.79-.95 1.32-.19.88-.83 1.59-1.73 1.71-.46.07-.93.1-1.41.1-.48 0-.95-.03-1.41-.1-.9-.12-1.54-.83-1.73-1.71-.11-.53-.44-1.02-.95-1.32-.31-.18-.66-.27-1-.27-.21 0-.41.03-.61.09a2.375 2.375 0 0 1-.727.116c-.576 0-1.127-.224-1.493-.696-.55-.72-1-1.51-1.35-2.35-.32-.8-.14-1.77.53-2.32.42-.34.7-.85.74-1.44-.04-.59-.32-1.1-.74-1.44-.67-.55-.85-1.52-.53-2.32.35-.84.8-1.63 1.35-2.35.366-.472.917-.696 1.493-.696.242 0 .488.039.727.116.2.06.4.09.61.09.34 0 .69-.09 1-.27.51-.3.84-.79.95-1.32.19-.88.83-1.59 1.73-1.71ZM12.5 16a4 4 0 1 1 0-8 4 4 0 0 1 0 8Zm-.076-12c-.405 0-.768.025-1.11.077-.013 0-.053.054-.075.155a4.009 4.009 0 0 1-1.891 2.622 4.008 4.008 0 0 1-2.014.546 4.11 4.11 0 0 1-1.185-.174.67.67 0 0 0-.125-.031A8.609 8.609 0 0 0 5 9.009a.156.156 0 0 0 0 .044 4.034 4.034 0 0 1 1.42 2.812l.008.135-.008.135A4.04 4.04 0 0 1 5 14.946a.176.176 0 0 0 .01.072 8.562 8.562 0 0 0 1.014 1.786.353.353 0 0 0 .088-.018 4.153 4.153 0 0 1 1.222-.186 3.99 3.99 0 0 1 2.004.541 4.019 4.019 0 0 1 1.904 2.642c.019.086.059.14.072.15a9.01 9.01 0 0 0 1.11.067c.405 0 .768-.025 1.109-.077.014 0 .054-.054.076-.155a4.008 4.008 0 0 1 1.89-2.622 4.008 4.008 0 0 1 2.015-.546c.4 0 .799.058 1.184.174.063.02.1.028.125.031a8.568 8.568 0 0 0 1.025-1.814.148.148 0 0 0 0-.044 4.03 4.03 0 0 1-1.42-2.812l-.01-.135.01-.135a4.035 4.035 0 0 1 1.42-2.811.176.176 0 0 0-.011-.072 8.562 8.562 0 0 0-1.013-1.786.353.353 0 0 0-.088.018 4.158 4.158 0 0 1-1.222.186 3.99 3.99 0 0 1-2.004-.541 4.019 4.019 0 0 1-1.904-2.642.308.308 0 0 0-.072-.15A9.01 9.01 0 0 0 12.424 4Z" fill="#000"/></svg>