<svg width="24" height="24" viewBox="0 0 24 24" fill="none" xmlns="http://www.w3.org/2000/svg">
<path opacity="0.84" fill-rule="evenodd" clip-rule="evenodd" d="M12.4404 19H7V5H11.9741C15.1865 5 16.7409 6.58594 16.7409 8.82812C16.7409 10.3252 16.0479 11.4053 14.4093 11.7607V11.8633C15.9896 12.082 17 13.3945 17 15.1992C17 17.4688 15.3938 19 12.4404 19ZM10.0052 7.625V10.8242H11.715C13.1658 10.8242 13.7617 10.332 13.7617 9.26562C13.7617 8.41797 13.3731 7.625 11.8964 7.625H10.0052ZM14.0466 14.7617C14.0466 13.8047 13.5544 13.0117 12.3109 13.0117H10.0052V16.375H12.2073C13.5026 16.375 14.0466 15.7734 14.0466 14.7617Z" fill="black"/>
</svg>
