<svg width="24" height="24" viewBox="0 0 24 24" fill="none" xmlns="http://www.w3.org/2000/svg">
<path opacity="0.84" d="M11.2933 7.04988L13.4142 4.92891C14.9763 3.36681 17.509 3.36681 19.0711 4.92891C20.6332 6.491 20.6332 9.02366 19.0711 10.5858L14.8284 14.8284C13.2663 16.3905 10.7337 16.3905 9.17159 14.8284C8.78107 14.4379 8.78107 13.8047 9.17159 13.4142C9.56212 13.0237 10.1953 13.0237 10.5858 13.4142C11.3669 14.1952 12.6332 14.1952 13.4142 13.4142L17.6569 9.17155C18.4379 8.3905 18.4379 7.12417 17.6569 6.34312C16.8758 5.56207 15.6095 5.56207 14.8284 6.34312L13.8272 7.34441C13.0181 7.02738 12.1431 6.9292 11.2933 7.04988ZM12.7068 16.9501L10.5858 19.071C9.02371 20.6331 6.49105 20.6331 4.92895 19.071C3.36685 17.5089 3.36685 14.9763 4.92895 13.4142L9.17159 9.17155C10.7337 7.60945 13.2663 7.60945 14.8284 9.17155C15.219 9.56207 15.219 10.1952 14.8284 10.5858C14.4379 10.9763 13.8048 10.9763 13.4142 10.5858C12.6332 9.80471 11.3669 9.80471 10.5858 10.5858L6.34317 14.8284C5.56212 15.6094 5.56212 16.8758 6.34317 17.6568C7.12421 18.4379 8.39054 18.4379 9.17159 17.6568L10.1729 16.6555C10.9819 16.9726 11.8569 17.0707 12.7068 16.9501Z" fill="black"/>
</svg>
