<svg width="24" height="24" viewBox="0 0 24 24" fill="none" xmlns="http://www.w3.org/2000/svg">
<path opacity="0.84" fill-rule="evenodd" clip-rule="evenodd" d="M11 5H20C20.5523 5 21 5.44772 21 6C21 6.55228 20.5523 7 20 7H11C10.4477 7 10 6.55228 10 6C10 5.44772 10.4477 5 11 5ZM11 17H20C20.5523 17 21 17.4477 21 18C21 18.5523 20.5523 19 20 19H11C10.4477 19 10 18.5523 10 18C10 17.4477 10.4477 17 11 17ZM11 11H20C20.5523 11 21 11.4477 21 12C21 12.5523 20.5523 13 20 13H11C10.4477 13 10 12.5523 10 12C10 11.4477 10.4477 11 11 11ZM6 4C7.10457 4 8 4.89543 8 6C8 7.10457 7.10457 8 6 8C4.89543 8 4 7.10457 4 6C4 4.89543 4.89543 4 6 4ZM6 10C7.10457 10 8 10.8954 8 12C8 13.1046 7.10457 14 6 14C4.89543 14 4 13.1046 4 12C4 10.8954 4.89543 10 6 10ZM6 16C7.10457 16 8 16.8954 8 18C8 19.1046 7.10457 20 6 20C4.89543 20 4 19.1046 4 18C4 16.8954 4.89543 16 6 16Z" fill="black"/>
</svg>
