<svg width="24" height="24" viewBox="0 0 24 24" fill="none" xmlns="http://www.w3.org/2000/svg">
<path opacity="0.84" fill-rule="evenodd" clip-rule="evenodd" d="M11 5H20C20.5523 5 21 5.44772 21 6C21 6.55228 20.5523 7 20 7H11C10.4477 7 10 6.55228 10 6C10 5.44772 10.4477 5 11 5ZM11 17H20C20.5523 17 21 17.4477 21 18C21 18.5523 20.5523 19 20 19H11C10.4477 19 10 18.5523 10 18C10 17.4477 10.4477 17 11 17ZM11 11H20C20.5523 11 21 11.4477 21 12C21 12.5523 20.5523 13 20 13H11C10.4477 13 10 12.5523 10 12C10 11.4477 10.4477 11 11 11ZM4.5 4C4.22386 4 4 3.77614 4 3.5C4 3.22386 4.22386 3 4.5 3H6C6.55228 3 7 3.44772 7 4V6.5C7 6.77614 7.22386 7 7.5 7C7.77614 7 8 7.22386 8 7.5C8 7.77614 7.77614 8 7.5 8H4.5C4.22386 8 4 7.77614 4 7.5C4 7.22386 4.22386 7 4.5 7C4.77614 7 5 6.77614 5 6.5V4.5C5 4.22386 4.77614 4 4.5 4ZM4 13V12.4142C4 12.149 4.10536 11.8946 4.29289 11.7071L6 10H4.5C4.22386 10 4 9.77614 4 9.5C4 9.22386 4.22386 9 4.5 9H7C7.55228 9 8 9.44772 8 10V10.5858C8 10.851 7.89464 11.1054 7.70711 11.2929L6 13H7.5C7.77614 13 8 13.2239 8 13.5C8 13.7761 7.77614 14 7.5 14H5C4.44772 14 4 13.5523 4 13ZM4 19.5C4 19.2239 4.22386 19 4.5 19H5.5C5.77614 19 6 18.7761 6 18.5C6 18.2239 5.77614 18 5.5 18H4.5C4.22386 18 4 17.7761 4 17.5C4 17.2239 4.22386 17 4.5 17H5.5C5.77614 17 6 16.7761 6 16.5C6 16.2239 5.77614 16 5.5 16H4.5C4.22386 16 4 15.7761 4 15.5C4 15.2239 4.22386 15 4.5 15H7C7.55228 15 8 15.4477 8 16V19C8 19.5523 7.55228 20 7 20H4.5C4.22386 20 4 19.7761 4 19.5Z" fill="black"/>
</svg>
