<?xml version="1.0" encoding="UTF-8"?>
<svg width="30px" height="30px" viewBox="0 0 30 30" version="1.1" xmlns="http://www.w3.org/2000/svg" xmlns:xlink="http://www.w3.org/1999/xlink">
    <!-- Generator: Sketch 46.1 (44463) - http://www.bohemiancoding.com/sketch -->
    <title>30x30_user</title>
    <desc>Created with Sketch.</desc>
    <defs></defs>
    <g id="Page-1" stroke="none" stroke-width="1" fill="none" fill-rule="evenodd">
        <g id="30x30_user" fill-rule="nonzero" fill="#000000">
            <path d="M15,15.5 C18.5898509,15.5 21.5,12.5898509 21.5,9 C21.5,5.41014913 18.5898509,2.5 15,2.5 C11.4101491,2.5 8.5,5.41014913 8.5,9 C8.50550664,12.5875675 11.4124325,15.4944934 15,15.5 L15,15.5 Z M15,3.5 C18.0375661,3.5 20.5,5.96243388 20.5,9 C20.5,12.0375661 18.0375661,14.5 15,14.5 C11.9624339,14.5 9.5,12.0375661 9.5,9 C9.5055037,5.96471651 11.9647165,3.5055037 15,3.5 L15,3.5 Z M15,17.5 C21.18,17.5 25.5,20.53 25.5,24.86 L25.5,26 C25.5,26.2761424 25.2761424,26.5 25,26.5 C24.7238576,26.5 24.5,26.2761424 24.5,26 L24.5,24.86 C24.5,21.11 20.59,18.5 15,18.5 C9.41,18.5 5.5,21.12 5.5,24.86 L5.5,26 C5.5,26.2761424 5.27614237,26.5 5,26.5 C4.72385763,26.5 4.5,26.2761424 4.5,26 L4.5,24.86 C4.5,20.5 8.82,17.5 15,17.5 Z" id="Combined-Shape"></path>
        </g>
    </g>
</svg>