<?xml version="1.0" encoding="UTF-8"?>
<svg width="30px" height="30px" viewBox="0 0 30 30" version="1.1" xmlns="http://www.w3.org/2000/svg" xmlns:xlink="http://www.w3.org/1999/xlink">
    <!-- Generator: Sketch 46.1 (44463) - http://www.bohemiancoding.com/sketch -->
    <title>30x30_plus</title>
    <desc>Created with Sketch.</desc>
    <defs></defs>
    <g id="Page-1" stroke="none" stroke-width="1" fill="none" fill-rule="evenodd">
        <g id="30x30_plus" fill="#000000">
            <path d="M16,14 L16,6 C16,5.448 15.553,5 15,5 C14.447,5 14,5.448 14,6 L14,14 L6,14 C5.448,14 5,14.447 5,15 C5,15.553 5.448,16 6,16 L14,16 L14,24 C14,24.553 14.447,25 15,25 C15.553,25 16,24.553 16,24 L16,16 L24,16 C24.553,16 25,15.553 25,15 C25,14.447 24.553,14 24,14 L16,14 Z" id="Page-1"></path>
        </g>
    </g>
</svg>