<?xml version="1.0" encoding="UTF-8"?>
<svg width="30px" height="30px" viewBox="0 0 30 30" version="1.1" xmlns="http://www.w3.org/2000/svg" xmlns:xlink="http://www.w3.org/1999/xlink">
    <!-- Generator: Sketch 46.1 (44463) - http://www.bohemiancoding.com/sketch -->
    <title>30x30_search</title>
    <desc>Created with Sketch.</desc>
    <defs></defs>
    <g id="Page-1" stroke="none" stroke-width="1" fill="none" fill-rule="evenodd">
        <g id="30x30_search" fill-rule="nonzero" fill="#000000">
            <path d="M26.79,24.67 L21.4,19.28 C24.7023596,14.8656127 24.0325768,8.6497922 19.8656034,5.04025937 C15.6986301,1.43072654 9.45082906,1.65436906 5.55259906,5.55259906 C1.65436906,9.45082906 1.43072654,15.6986301 5.04025937,19.8656034 C8.6497922,24.0325768 14.8656127,24.7023596 19.28,21.4 L24.67,26.79 C24.9504068,27.0723219 25.3320891,27.2307561 25.73,27.23 L25.73,27.23 C26.3362833,27.2294667 26.8826315,26.8640099 27.114574,26.303847 C27.3465164,25.7436842 27.2184406,25.0989736 26.79,24.67 L26.79,24.67 Z M6.28,19.72 C2.57203947,16.0092939 2.5735232,9.99550496 6.28331431,6.28662903 C9.99310542,2.57775309 16.0068946,2.57775309 19.7166857,6.28662903 C23.4264768,9.99550496 23.4279605,16.0092939 19.72,19.72 C16.0071654,23.4277762 9.99283458,23.4277762 6.28,19.72 L6.28,19.72 Z M26.08,26.08 C25.9876848,26.1742071 25.8618846,26.2281215 25.73,26.23 L25.73,26.23 C25.5981154,26.2281215 25.4723152,26.1742071 25.38,26.08 L20.06,20.76 C20.18,20.65 20.31,20.54 20.43,20.42 C20.55,20.3 20.65,20.17 20.77,20.05 L26.09,25.37 C26.1846563,25.4638833 26.2378992,25.5916812 26.2378992,25.725 C26.2378992,25.8583188 26.1846563,25.9861167 26.09,26.08 L26.08,26.08 Z" id="Shape"></path>
        </g>
    </g>
</svg>