<?xml version="1.0" encoding="UTF-8"?>
<svg width="30px" height="30px" viewBox="0 0 30 30" version="1.1" xmlns="http://www.w3.org/2000/svg" xmlns:xlink="http://www.w3.org/1999/xlink">
    <!-- Generator: Sketch 46.1 (44463) - http://www.bohemiancoding.com/sketch -->
    <title>30x30_bird</title>
    <desc>Created with Sketch.</desc>
    <defs></defs>
    <g id="Page-1" stroke="none" stroke-width="1" fill="none" fill-rule="evenodd">
        <g id="30x30_bird" fill-rule="nonzero" fill="#000000">
            <path d="M29.46,9.31 C29.3832982,9.12328725 29.2018509,9.00100757 29,9 L15.24,9 L12,4.94 C11.5165038,4.33179012 10.7768115,3.98413476 10,4 L7.87,4 C7.78394469,4.01861004 7.70449337,4.06006291 7.64,4.12 L0.64,11.12 C0.474913859,11.259996 0.418655074,11.4903206 0.50061164,11.6906589 C0.582568205,11.8909971 0.784127233,12.0158509 1,12 L7.5,12 L7.5,16.5 C7.49213923,16.549691 7.49213923,16.600309 7.5,16.65 L7.5,16.74 L12.5,25.74 C12.5391719,25.808498 12.5939995,25.8667524 12.66,25.91 L12.66,25.91 C12.7177689,25.9463073 12.7824838,25.9701496 12.85,25.98 L24,25.98 C24.2084365,25.9779434 24.3937284,25.8467927 24.4649636,25.6508959 C24.5361988,25.454999 24.4784296,25.2354624 24.32,25.1 L18.74,20.45 L29.35,9.85 C29.491506,9.70827477 29.5347908,9.49578568 29.46,9.31 Z M11.21,5.56 L14.33,9.46 L8.5,15.29 L8.5,5 L10,5 C10.4690104,4.98572823 10.9173436,5.19322127 11.21,5.56 Z M2.21,11 L7.5,5.71 L7.5,11 L2.21,11 Z M22.62,25 L14.21,25 L18,21.18 L22.62,25 Z M17.62,20.15 L13.09,24.68 L8.59,16.59 L15.21,10 L27.79,10 L17.62,20.15 Z" id="Shape"></path>
        </g>
    </g>
</svg>